<?xml version="1.0" encoding="utf-8"?>
<!-- Generator: Adobe Illustrator 19.2.1, SVG Export Plug-In . SVG Version: 6.00 Build 0)  -->
<svg version="1.1" id="Layer_1" xmlns="http://www.w3.org/2000/svg" xmlns:xlink="http://www.w3.org/1999/xlink" x="0px" y="0px"
	 viewBox="0 0 511.9 511.9" style="enable-background:new 0 0 511.9 511.9;" xml:space="preserve">
<style type="text/css">
	.st0{fill:#38454F;}
	.st1{fill:#E8EDEE;}
	.st2{fill:#B0B6BB;}
	.st3{fill:#25AE88;}
	.st4{fill:#DD691D;}
	.st5{fill:#ECBA16;}
</style>
<g>
	<path class="st0" d="M512,317.8H0V48.6c0-17.1,13.8-30.9,30.9-30.9h450.2c17.1,0,30.9,13.8,30.9,30.9L512,317.8L512,317.8z"/>
	<path class="st1" d="M361.9,494.3H150.1c0-19.5,15.8-35.3,35.3-35.3h141.2C346.1,459,361.9,474.8,361.9,494.3"/>
	<polygon class="st2" points="317.8,459 194.2,459 211.9,388.4 300.1,388.4 	"/>
	<path class="st1" d="M481.1,388.4H30.9C13.8,388.4,0,374.6,0,357.5v-39.7h512v39.7C512,374.6,498.2,388.4,481.1,388.4"/>
	<g>
		<path class="st3" d="M291.3,291.3c-4.9,0-8.8-4-8.8-8.8V256c0-4.9,3.9-8.8,8.8-8.8s8.8,4,8.8,8.8v26.5
			C300.1,287.4,296.2,291.3,291.3,291.3"/>
		<path class="st3" d="M326.6,291.3c-4.9,0-8.8-4-8.8-8.8v-61.8c0-4.9,3.9-8.8,8.8-8.8s8.8,4,8.8,8.8v61.8
			C335.4,287.4,331.5,291.3,326.6,291.3"/>
		<path class="st3" d="M361.9,291.3c-4.9,0-8.8-4-8.8-8.8v-44.1c0-4.9,3.9-8.8,8.8-8.8s8.8,4,8.8,8.8v44.1
			C370.8,287.4,366.8,291.3,361.9,291.3"/>
		<path class="st3" d="M397.2,291.3c-4.9,0-8.8-4-8.8-8.8V176.6c0-4.9,3.9-8.8,8.8-8.8s8.8,4,8.8,8.8v105.9
			C406.1,287.4,402.1,291.3,397.2,291.3"/>
		<path class="st3" d="M432.6,291.3c-4.9,0-8.8-4-8.8-8.8v-70.6c0-4.9,3.9-8.8,8.8-8.8s8.8,4,8.8,8.8v70.6
			C441.4,287.4,437.4,291.3,432.6,291.3"/>
	</g>
	<path class="st4" d="M238.3,163.3c0,51.2-41.5,92.7-92.7,92.7S53,214.5,53,163.3s41.5-92.7,92.7-92.7S238.3,112.1,238.3,163.3"/>
	<path class="st5" d="M141.4,70.7c0,0-0.1,0.1-0.1,0.1v96.6c0,0.2,0.1,0.3,0.3,0.3h96.6c0,0,0.1-0.1,0.1-0.1
		C240.7,113,195.9,68.3,141.4,70.7"/>
	<g>
		<path class="st4" d="M388.4,114.8h-70.6c-4.9,0-8.8-4-8.8-8.8s3.9-8.8,8.8-8.8h70.6c4.9,0,8.8,4,8.8,8.8
			C397.2,110.8,393.3,114.8,388.4,114.8"/>
		<path class="st4" d="M432.6,114.8c-2.3,0-4.6-1-6.3-2.6c-0.4-0.4-0.8-0.9-1.1-1.3c-0.4-0.5-0.6-1.1-0.8-1.6
			c-0.3-0.5-0.4-1.1-0.5-1.6c-0.1-0.6-0.2-1.2-0.2-1.8s0.1-1.1,0.2-1.8c0.1-0.5,0.3-1.1,0.5-1.6c0.2-0.5,0.4-1.1,0.8-1.6
			c0.3-0.4,0.7-0.9,1.1-1.3c3.3-3.3,9.2-3.3,12.5,0c1.6,1.7,2.6,3.9,2.6,6.3c0,2.4-1,4.6-2.6,6.3
			C437.1,113.8,434.8,114.8,432.6,114.8"/>
		<path class="st4" d="M432.6,70.6h-26.5c-4.9,0-8.8-4-8.8-8.8s3.9-8.8,8.8-8.8h26.5c4.9,0,8.8,4,8.8,8.8S437.4,70.6,432.6,70.6"/>
		<path class="st4" d="M335.4,70.6h-17.7c-4.9,0-8.8-4-8.8-8.8s3.9-8.8,8.8-8.8h17.7c4.9,0,8.8,4,8.8,8.8S340.3,70.6,335.4,70.6"/>
		<path class="st4" d="M370.8,70.6c-2.3,0-4.6-1-6.3-2.6c-1.6-1.7-2.6-4-2.6-6.3c0-2.3,1-4.6,2.6-6.3c0.9-0.8,1.8-1.4,2.9-1.9
			c3.3-1.4,7.1-0.6,9.6,1.9c1.6,1.7,2.6,4,2.6,6.3c0,2.3-1,4.6-2.6,6.3C375.3,69.7,373.1,70.6,370.8,70.6"/>
	</g>
</g>
</svg>
