<?xml version="1.0" encoding="utf-8"?>
<!-- Generator: Adobe Illustrator 19.2.1, SVG Export Plug-In . SVG Version: 6.00 Build 0)  -->
<svg version="1.1" id="Layer_1" xmlns="http://www.w3.org/2000/svg" xmlns:xlink="http://www.w3.org/1999/xlink" x="0px" y="0px"
	 viewBox="0 0 511.9 511.9" style="enable-background:new 0 0 511.9 511.9;" xml:space="preserve">
<style type="text/css">
	.st0{fill:#EF494F;}
	.st1{fill:#2E8DB7;}
	.st2{fill:#FFFFFF;}
</style>
<path class="st0" d="M511.9,195.2V361c0,33.2-27,60.2-60.2,60.2l0,0v78l-95.2-78H182.8c-33.2,0-60.2-27-60.2-60.2v-34.4l33.2-27.6
	h174.4c33.2,0,60.2-27,60.2-60.2V134.4h61.4C484.9,135.1,511.9,162.1,511.9,195.2z"/>
<path class="st1" d="M330.2,12.9H61.2c-33.2,0-60.2,27-60.2,60.2v165.8c0,33.2,27,60.2,60.2,60.2l0,0v78l95.2-78h173.7
	c33.2,0,60.2-27,60.2-60.2V73C390.3,39.9,363.3,12.9,330.2,12.9z"/>
<g>
	<circle class="st2" cx="84" cy="157.8" r="37.5"/>
	<circle class="st2" cx="195.7" cy="157.8" r="37.5"/>
	<circle class="st2" cx="306.8" cy="157.8" r="37.5"/>
</g>
</svg>
