<?xml version="1.0" encoding="utf-8"?>
<!-- Generator: Adobe Illustrator 19.2.1, SVG Export Plug-In . SVG Version: 6.00 Build 0)  -->
<svg version="1.1" id="Livello_1" xmlns="http://www.w3.org/2000/svg" xmlns:xlink="http://www.w3.org/1999/xlink" x="0px" y="0px"
	 viewBox="0 0 122.5 122.5" style="enable-background:new 0 0 122.5 122.5;" xml:space="preserve">
<style type="text/css">
	.st0{fill:#86BE3C;}
	.st1{fill:#E4B645;}
	.st2{fill:#C33734;}
	.st3{fill:#748EC4;}
</style>
<g id="Layer_1">
</g>
<path id="path174" class="st0" d="M22.1,61.7l-2.4-2.3c-7.3-7.3-9.6-17.7-6.8-27c-7.3-1.6-12.7-8.2-12.7-16C0.2,7.4,7.6,0,16.6,0
	C24.7,0,31.5,6,32.8,13.8c8.8-2.1,18.5,0.3,25.4,7.2l0.9,0.9L47,34l-0.9-0.9c-3.9-3.9-10.3-3.9-14.2,0c-3.9,3.9-3.9,10.3,0,14.2
	l2.4,2.4l12.1,12.1l12.8,12.8L47,86.6L34.2,73.8L22.1,61.7"/>
<path id="path176" class="st1" d="M35.6,48.2l12.8-12.8l12.1-12.1l2.4-2.4c7.3-7.3,17.6-9.6,26.8-6.9C90.8,6.2,97.7,0,105.9,0
	c9,0,16.4,7.3,16.4,16.4c0,8.3-6.2,15.2-14.2,16.2c2.6,9.2,0.3,19.5-6.9,26.7l-0.9,0.9L88.2,48.2l0.9-0.9c3.9-3.9,3.9-10.3,0-14.2
	c-3.9-3.9-10.2-3.9-14.2,0l-2.4,2.4L60.5,47.5L47.7,60.3L35.6,48.2"/>
<path id="path184" class="st2" d="M90,109.1c-9.3,2.9-19.8,0.6-27.2-6.7l-0.9-0.9L74,89.4l0.9,0.9c3.9,3.9,10.3,3.9,14.2,0
	c3.9-3.9,3.9-10.2,0-14.2l-2.4-2.4L74.7,61.7L61.9,48.9L74,36.9l12.7,12.8l12.1,12.1l2.4,2.4c6.9,6.9,9.3,16.7,7.2,25.6
	c8,1.1,14.1,8,14.1,16.2c0,9-7.3,16.4-16.4,16.4C98.2,122.3,91.5,116.6,90,109.1"/>
<path id="path186" class="st3" d="M85.3,75.2L72.6,88l-12.1,12.1l-2.4,2.4c-7,7-16.8,9.3-25.7,7.1c-1.7,7.3-8.2,12.7-16,12.7
	c-9,0-16.4-7.3-16.4-16.4c0-7.7,5.4-14.2,12.6-15.9c-2.3-9,0.1-18.9,7.1-25.9l0.9-0.9l12.1,12.1l-0.9,0.9c-3.9,3.9-3.9,10.3,0,14.2
	c3.9,3.9,10.3,3.9,14.2,0l2.4-2.4l12.1-12.1l12.8-12.8L85.3,75.2"/>
</svg>
