<?xml version="1.0" encoding="utf-8"?>
<!-- Generator: Adobe Illustrator 19.2.1, SVG Export Plug-In . SVG Version: 6.00 Build 0)  -->
<svg version="1.1" id="Livello_1" xmlns="http://www.w3.org/2000/svg" xmlns:xlink="http://www.w3.org/1999/xlink" x="0px" y="0px"
	 viewBox="0 0 122.5 122.5" style="enable-background:new 0 0 122.5 122.5;" xml:space="preserve">
<style type="text/css">
	.st0{fill:#FFF6F3;}
</style>
<title>wp-logo</title>
<path class="st0" d="M8.7,61.3c0,20.1,11.5,38.5,29.6,47.3L13.3,39.9C10.3,46.6,8.7,53.9,8.7,61.3z"/>
<path class="st0" d="M96.7,58.6c0-6.5-2.3-11-4.3-14.5c-2.7-4.3-5.2-8-5.2-12.3c0-4.8,3.7-9.3,8.8-9.3c0.2,0,0.4,0,0.7,0
	C75.4,2.9,42.1,4.3,22.5,25.7c-1.9,2.1-3.6,4.3-5.2,6.6c1.2,0,2.4,0.1,3.4,0.1c5.5,0,14-0.7,14-0.7c1.2-0.1,2.2,0.8,2.3,2
	c0.1,1.2-0.8,2.2-2,2.3l0,0c0,0-2.8,0.3-6,0.5l19.1,57L59.7,59l-8.2-22.4c-2.8-0.2-5.5-0.5-5.5-0.5c-2.8-0.2-2.5-4.5,0.3-4.3
	c0,0,8.7,0.7,13.8,0.7c5.5,0,14-0.7,14-0.7c1.2-0.1,2.2,0.8,2.3,2c0.1,1.2-0.8,2.2-2,2.3c0,0-2.8,0.3-6,0.5l19,56.5l5.2-17.5
	C95,68.3,96.7,63.1,96.7,58.6z"/>
<path class="st0" d="M62.2,65.9l-15.8,45.8c10.6,3.1,21.9,2.8,32.3-0.8c-0.1-0.2-0.3-0.5-0.4-0.7L62.2,65.9z"/>
<path class="st0" d="M107.4,36c0.2,1.8,0.4,3.6,0.3,5.4c-0.1,6.5-1.5,12.9-4,18.8l-16,46.5C112.3,92.4,121.1,61,107.4,36z"/>
<path class="st0" d="M61.3,0C27.4,0,0,27.4,0,61.3s27.4,61.3,61.3,61.3s61.3-27.4,61.3-61.3C122.5,27.4,95.1,0,61.3,0z M61.3,119.7
	C29,119.7,2.8,93.5,2.8,61.3S29,2.8,61.3,2.8c32.3,0,58.4,26.2,58.5,58.4C119.7,93.5,93.5,119.7,61.3,119.7z"/>
</svg>
