<?xml version="1.0" encoding="utf-8"?>
<!-- Generator: Adobe Illustrator 19.2.1, SVG Export Plug-In . SVG Version: 6.00 Build 0)  -->
<svg version="1.1" id="Livello_1" xmlns="http://www.w3.org/2000/svg" xmlns:xlink="http://www.w3.org/1999/xlink" x="0px" y="0px"
	 viewBox="0 0 732 259" style="enable-background:new 0 0 732 259;" xml:space="preserve">
<style type="text/css">
	.st0{fill:#E94D58;}
	.st1{fill:#F5B527;}
	.st2{fill:#84BD57;}
	.st3{fill:#E4EEF9;}
	.st4{opacity:0.35;fill:#1D1D1B;enable-background:new    ;}
	.st5{opacity:0.8;fill:url(#SVGID_1_);enable-background:new    ;}
	.st6{opacity:0.8;fill:url(#SVGID_2_);enable-background:new    ;}
	.st7{opacity:0.8;fill:url(#SVGID_3_);enable-background:new    ;}
	.st8{opacity:0.62;fill:url(#SVGID_4_);enable-background:new    ;}
	.st9{opacity:0.62;fill:url(#SVGID_5_);enable-background:new    ;}
	.st10{opacity:0.62;fill:url(#SVGID_6_);enable-background:new    ;}
</style>
<title>logo</title>
<g>
	<g>
		<circle class="st0" cx="223.5" cy="18.1" r="11"/>
		<circle class="st1" cx="255.5" cy="18.1" r="11"/>
		<circle class="st2" cx="287.4" cy="18.1" r="11"/>
		<path class="st3" d="M234.7,82.1h-82.3c-0.2,0-0.5-0.2-0.5-0.5v-7.1c0-0.2,0.2-0.5,0.5-0.5h82.3c0.2,0,0.5,0.2,0.5,0.5v7.1
			C235.1,81.9,234.9,82.1,234.7,82.1z"/>
		<path class="st3" d="M234.7,106.1H69.3c-0.2,0-0.5-0.2-0.5-0.5v-7.1c0-0.2,0.2-0.5,0.5-0.5h165.4c0.2,0,0.5,0.2,0.5,0.5v7.1
			C235.1,105.9,234.9,106.1,234.7,106.1z"/>
		<path class="st3" d="M234.7,130.2H69.3c-0.2,0-0.5-0.2-0.5-0.5v-7.1c0-0.2,0.2-0.5,0.5-0.5h165.4c0.2,0,0.5,0.2,0.5,0.5v7.1
			C235.1,130,234.9,130.2,234.7,130.2z"/>
		<path class="st3" d="M151.3,154h-82c-0.2,0-0.5-0.2-0.5-0.5v-7.1c0-0.2,0.2-0.5,0.5-0.5h82c0.2,0,0.5,0.2,0.5,0.5v7.1
			C151.7,153.8,151.5,154,151.3,154z"/>
		<rect y="55" class="st4" width="24" height="7.4"/>
		<rect x="47.9" y="7.1" class="st4" width="7.4" height="24"/>
		<path class="st3" d="M47.9,31.1h111.8l31.9-24H33c-0.7,0-1.3,0.3-1.8,0.7L0.7,38.3C0.3,38.8,0,39.4,0,40.1v157.7
			c0,9.3,7.6,16.9,16.9,16.9h110.8v40.2l63.9-40.2h94.8c9.3,0,16.9-7.6,16.9-16.9V67c0-6.6-5.4-12-12-12l0,0c-6.6,0-12,5.4-12,12
			v123.7H24V55h24L47.9,31.1"/>
		
			<linearGradient id="SVGID_1_" gradientUnits="userSpaceOnUse" x1="63.3927" y1="240.9" x2="47.5049" y2="240.9" gradientTransform="matrix(1 0 0 -1 0 260)">
			<stop  offset="0" style="stop-color:#FFFFFF;stop-opacity:0"/>
			<stop  offset="1" style="stop-color:#1D1D1B"/>
		</linearGradient>
		<rect x="47.9" y="7.1" class="st5" width="11.2" height="24"/>
		
			<linearGradient id="SVGID_2_" gradientUnits="userSpaceOnUse" x1="12" y1="190.938" x2="12" y2="204.5409" gradientTransform="matrix(1 0 0 -1 0 260)">
			<stop  offset="0" style="stop-color:#FFFFFF;stop-opacity:0"/>
			<stop  offset="1" style="stop-color:#1D1D1B"/>
		</linearGradient>
		<polygon class="st6" points="24,66.2 24,55 0,55 0,66.2 		"/>
		
			<linearGradient id="SVGID_3_" gradientUnits="userSpaceOnUse" x1="159.65" y1="34.2846" x2="159.65" y2="45.2552" gradientTransform="matrix(1 0 0 -1 0 260)">
			<stop  offset="0" style="stop-color:#FFFFFF;stop-opacity:0"/>
			<stop  offset="1" style="stop-color:#1D1D1B"/>
		</linearGradient>
		<polygon class="st7" points="127.7,225.9 173.8,225.9 191.6,214.7 127.7,214.7 		"/>
		
			<linearGradient id="SVGID_4_" gradientUnits="userSpaceOnUse" x1="381.7418" y1="279.3745" x2="381.3482" y2="284.2936" gradientTransform="matrix(0.7559 0.6547 0.6547 -0.7559 -244.9927 -24.261)">
			<stop  offset="0" style="stop-color:#D7E1EF;stop-opacity:0"/>
			<stop  offset="1" style="stop-color:#D7E1EF"/>
		</linearGradient>
		<path class="st8" d="M231.2,15.4c-0.9,1.1-3.1,0.6-5-0.9s-2.6-3.7-1.6-4.8s3.1-0.6,5,0.9S232.1,14.3,231.2,15.4z"/>
		
			<linearGradient id="SVGID_5_" gradientUnits="userSpaceOnUse" x1="405.7037" y1="300.1248" x2="405.3102" y2="305.0439" gradientTransform="matrix(0.7559 0.6547 0.6547 -0.7559 -244.9927 -24.261)">
			<stop  offset="0" style="stop-color:#D7E1EF;stop-opacity:0"/>
			<stop  offset="1" style="stop-color:#D7E1EF"/>
		</linearGradient>
		<path class="st9" d="M262.9,15.4c-0.9,1.1-3.1,0.6-5-0.9c-1.8-1.6-2.6-3.7-1.6-4.8c0.9-1.1,3.1-0.6,5,0.9
			C263.1,12.2,263.8,14.3,262.9,15.4z"/>
		
			<linearGradient id="SVGID_6_" gradientUnits="userSpaceOnUse" x1="429.6656" y1="320.8752" x2="429.272" y2="325.7944" gradientTransform="matrix(0.7559 0.6547 0.6547 -0.7559 -244.9927 -24.261)">
			<stop  offset="0" style="stop-color:#D7E1EF;stop-opacity:0"/>
			<stop  offset="1" style="stop-color:#D7E1EF"/>
		</linearGradient>
		<path class="st10" d="M294.6,15.4c-0.9,1.1-3.1,0.6-5-0.9s-2.6-3.7-1.6-4.8c0.9-1.1,3.1-0.6,5,0.9
			C294.8,12.2,295.5,14.3,294.6,15.4z"/>
	</g>
	<g>
		<path class="st3" d="M359.9,63.5v-56h14.3c4.8,0,10.5,0.1,14.8,2.6c5.1,3,5.9,8.4,5.9,13.8v24.9c-0.1,5.6-1.8,9.7-5.6,12.1
			c-3.4,2.2-7.6,2.6-11.7,2.6H359.9z M373,53.4c8.8,0.6,8.9-3,8.7-10.5V24.7c-0.1-6.6-2.2-6.9-8.7-7.1V53.4z"/>
		<path class="st3" d="M401.8,63.5v-56h13.1v56H401.8z"/>
		<path class="st3" d="M448,63.6l-0.6-5h-0.1c-2.7,4.8-5.7,6.3-11.4,6.3c-11.1,0-14.7-7.7-14.7-17.9V24c0-12.2,5.6-17.9,17.6-17.9
			c11.2,0,17.8,4.8,17.8,16.2v4.2h-13.1v-3.1c0-4.8-0.6-7.2-4.1-7.2c-4.1-0.1-5.1,2.2-5.1,5.8v27.7c0,3.1,1.4,5,4.9,5
			c4.5,0,4.6-3.6,4.6-7.2v-4.4h-4.7v-10H457v30.5H448z"/>
		<path class="st3" d="M464.1,63.5v-56h13.1v56H464.1z"/>
		<path class="st3" d="M482.6,7.5h34.1v11.2h-10.6v44.8H493V18.7h-10.3V7.5H482.6z"/>
		<path class="st3" d="M514.9,63.5l12.2-56H543l12.2,56h-13.3L540,52.6h-10.3l-1.6,10.9H514.9z M535.1,17.6h-0.2l-3.8,25.1h7.6
			L535.1,17.6z"/>
		<path class="st3" d="M558.5,63.5v-56h13.1v44.8h16.1v11.2H558.5z"/>
		<path class="st3" d="M359.9,138.2v-56h14.3c4.8,0,10.5,0.1,14.8,2.6c5.1,3,5.9,8.4,5.9,13.8v24.9c-0.1,5.6-1.8,9.7-5.6,12.1
			c-3.4,2.2-7.6,2.6-11.7,2.6L359.9,138.2L359.9,138.2z M373,128.1c8.8,0.6,8.9-3,8.7-10.5V99.3c-0.1-6.6-2.2-6.9-8.7-7.1V128.1z"/>
		<path class="st3" d="M436.6,120.3c0,12.6-4.4,19.2-17.7,19.2c-13.3,0-17.9-6.6-17.9-19.2V97.5c0-10.8,6.4-16.7,17.9-16.7
			s17.7,6,17.7,16.7V120.3z M423.4,98.4c0-3.4-0.3-7.5-4.6-7.5c-4.2,0-4.7,4.1-4.7,7.5v23c0,3.2,0.5,8,4.8,8s4.6-4.8,4.6-8
			L423.4,98.4L423.4,98.4z"/>
		<path class="st3" d="M464.8,101.7v-3.6c0-4.8-1.7-7.2-4.2-7.2c-4.1-0.1-5.1,2.2-5.1,5.8l-0.1,27.7c0,3.1,1.3,5,4.7,5
			c4.5,0,4.9-4.6,4.9-8.1v-5.1h13.1v6.9c0,9.6-5.5,16.4-19,16.4c-12.1,0-16.8-6.4-16.8-17.9v-23c0-12.2,5.6-17.9,17.6-17.9
			c11.2,0,17.9,4.8,17.9,16.2v4.7L464.8,101.7L464.8,101.7z"/>
		<path class="st3" d="M484.1,82.2h13.1v42.3c0,2.7,0.8,5,4.6,5c3.4,0,4.5-3,4.5-5.4V82.2h13.1v40.6c0,9.5-4.3,16.8-17.7,16.8
			c-11.1,0-17.6-5.3-17.6-16.8V82.2z"/>
		<path class="st3" d="M526.2,138.2v-56h18.5l6.8,33.1h0.1l7-33.1H577v56h-12.5l1.3-43.9h-0.2l-9.3,43.9h-9.8l-9-43.9h-0.2l1.2,43.9
			H526.2z"/>
		<path class="st3" d="M584.1,138.2v-56h30.1v11.2h-17v10.3h16.4v11.2h-16.4V127H615v11.2H584.1z"/>
		<path class="st3" d="M632.6,106.8l-0.2,0.1l1.2,31.2h-12.5v-56h13.5l10.2,31.3h0.2l-1.3-31.3h12.5v56h-13.4L632.6,106.8z"/>
		<path class="st3" d="M661.1,82.2h34.1v11.2h-10.6v44.8h-13.1V93.4h-10.3V82.2H661.1z"/>
		<path class="st3" d="M710.2,119.4v4c0,3.2,1,6,5.2,6c3.1,0,4.4-2.8,4.4-5.6c0-4.7-3.9-6.5-7.3-8.6c-4-2.3-7.5-4.5-9.9-7.3
			s-3.8-6.3-3.8-11.2c0-10.5,6.3-15.9,16.5-15.9c11.4,0,17.3,7.6,16.7,18.1h-12.1c-0.1-3.3,0-7.8-4.3-8.1c-2.7-0.2-4.3,1.3-4.6,3.7
			c-0.4,3.4,1.3,5.1,4,6.9c4.9,3.1,9.2,5.1,12.2,7.9c3.1,2.8,4.9,6.6,4.9,13.4c0,10.8-6,16.7-16.9,16.7c-12,0-17.1-6.7-17.1-14.1v-6
			h12.1V119.4z"/>
		<path class="st3" d="M369.8,194.1v4c0,3.2,1,6.1,5.2,6.1c3.1,0,4.4-2.8,4.4-5.6c0-4.7-3.9-6.5-7.3-8.6c-4-2.3-7.5-4.5-9.9-7.3
			s-3.8-6.3-3.8-11.2c0-10.5,6.3-15.9,16.5-15.9c11.4,0,17.3,7.6,16.7,18.1h-12.1c-0.1-3.3,0-7.8-4.3-8.1c-2.7-0.2-4.3,1.3-4.6,3.7
			c-0.4,3.4,1.3,5.1,4,6.9c4.9,3.1,9.2,5.1,12.2,7.9s4.9,6.6,4.9,13.4c0,10.8-6,16.7-16.9,16.7c-12,0-17.1-6.7-17.1-14.1v-6
			L369.8,194.1L369.8,194.1z"/>
		<path class="st3" d="M432.4,195c0,12.6-4.4,19.2-17.7,19.2c-13.3,0-17.9-6.6-17.9-19.2v-22.8c0-10.8,6.4-16.7,17.9-16.7
			s17.7,6,17.7,16.7V195z M419.2,173.1c0-3.4-0.3-7.5-4.6-7.5c-4.2,0-4.7,4.1-4.7,7.5v23c0,3.2,0.5,8,4.8,8s4.6-4.8,4.6-8
			L419.2,173.1L419.2,173.1z"/>
		<path class="st3" d="M438.1,212.9v-56h13.1v44.8h16.1v11.2H438.1z"/>
		<path class="st3" d="M471.6,156.8h13.1v42.3c0,2.7,0.8,5,4.6,5c3.4,0,4.5-3,4.5-5.4v-41.9h13.1v40.6c0,9.5-4.3,16.8-17.7,16.8
			c-11.1,0-17.6-5.3-17.6-16.8V156.8z"/>
		<path class="st3" d="M511.6,156.8h34.1V168h-10.6v44.8H522V168h-10.3v-11.2H511.6z"/>
		<path class="st3" d="M551.1,212.9v-56h13.1v56H551.1z"/>
		<path class="st3" d="M606.7,195c0,12.6-4.4,19.2-17.7,19.2s-17.9-6.6-17.9-19.2v-22.8c0-10.8,6.4-16.7,17.9-16.7s17.7,6,17.7,16.7
			V195z M593.5,173.1c0-3.4-0.3-7.5-4.6-7.5c-4.2,0-4.7,4.1-4.7,7.5v23c0,3.2,0.5,8,4.8,8s4.6-4.8,4.6-8L593.5,173.1L593.5,173.1z"
			/>
		<path class="st3" d="M624.2,181.5l-0.2,0.2l1.2,31.2h-12.5v-56h13.5l10.2,31.3h0.2l-1.3-31.3h12.5v56h-13.4L624.2,181.5z"/>
	</g>
</g>
</svg>
