<?xml version="1.0" encoding="utf-8"?>
<!-- Generator: Adobe Illustrator 19.2.1, SVG Export Plug-In . SVG Version: 6.00 Build 0)  -->
<svg version="1.1" id="Capa_1" xmlns="http://www.w3.org/2000/svg" xmlns:xlink="http://www.w3.org/1999/xlink" x="0px" y="0px"
	 viewBox="0 0 60 60" style="enable-background:new 0 0 60 60;" xml:space="preserve">
<style type="text/css">
	.st0{fill:#E4EEF9;}
</style>
<g>
	<path class="st0" d="M51.7,11.3H8.3c-2.4,0-4.4-2-4.4-4.4v0c0-2.4,2-4.4,4.4-4.4h43.3c2.4,0,4.4,2,4.4,4.4v0
		C56.1,9.3,54.1,11.3,51.7,11.3z"/>
	<path class="st0" d="M51.7,25.9H8.3c-2.4,0-4.4-2-4.4-4.4v0c0-2.4,2-4.4,4.4-4.4h43.3c2.4,0,4.4,2,4.4,4.4v0
		C56.1,23.9,54.1,25.9,51.7,25.9z"/>
	<path class="st0" d="M51.7,40.5H8.6c-2.4,0-4.4-2-4.4-4.4v0c0-2.4,2-4.4,4.4-4.4h43.1c2.4,0,4.4,2,4.4,4.4v0
		C56.1,38.5,54.1,40.5,51.7,40.5z"/>
</g>
<g>
	<path class="st0" d="M14.9,59.3v-8.8l-3.5,8.8h-1.2l-3.5-8.8v8.8H4V46.7h3.7l3,7.6l3-7.6h3.8v12.5H14.9z"/>
	<path class="st0" d="M20.1,59.3V46.7H29v2.3h-6.2v2.6h6.1v2.3h-6.1v2.8H29v2.3H20.1z"/>
	<path class="st0" d="M39.7,59.3l-6-8.2v8.2h-2.7V46.7h2.7l5.8,7.9v-7.9h2.7v12.5H39.7z"/>
	<path class="st0" d="M44.8,54.3v-7.5h2.7v7.4c0,1.7,1,2.9,2.9,2.9c1.9,0,2.9-1.2,2.9-2.9v-7.4h2.7v7.5c0,3.1-1.8,5.2-5.7,5.2
		C46.6,59.5,44.8,57.4,44.8,54.3z"/>
</g>
</svg>
