<?xml version="1.0" encoding="utf-8"?>
<!-- Generator: Adobe Illustrator 19.2.1, SVG Export Plug-In . SVG Version: 6.00 Build 0)  -->
<svg version="1.1" id="Livello_1" xmlns="http://www.w3.org/2000/svg" xmlns:xlink="http://www.w3.org/1999/xlink" x="0px" y="0px"
	 viewBox="0 0 866.5 430.5" style="enable-background:new 0 0 866.5 430.5;" xml:space="preserve">
<style type="text/css">
	.st0{fill:none;stroke:#F0F7FF;stroke-width:5;stroke-miterlimit:10;}
	.st1{fill:none;stroke:#F0F7FF;stroke-width:5;stroke-miterlimit:10;stroke-dasharray:12.034,12.034;}
	.st2{fill:none;stroke:#F0F7FF;stroke-width:5;stroke-miterlimit:10;stroke-dasharray:11.9779,11.9779;}
	.st3{fill:#297EA4;}
	.st4{fill:#2E8DB7;}
	.st5{fill:#FFDE33;}
	.st6{fill:#FFBC33;}
	.st7{fill:#C4CAD9;}
	.st8{fill:#B8BFCC;}
	.st9{fill:#DAE2F2;}
	.st10{fill:#FFFFFF;}
	.st11{fill:#E6EBEF;}
	.st12{fill:#D2DCF0;}
	.st13{fill:#FF6469;}
	.st14{fill:#FFE169;}
	.st15{fill:#87E1AA;}
	.st16{fill:#E4EAF6;}
	.st17{fill:#D2555F;}
	.st18{fill:#DEE3ED;}
	.st19{fill:#FF969B;}
	.st20{fill:#A0DCF0;}
	.st21{fill:#91E6BE;}
	.st22{fill:#464655;}
	.st23{fill:#4ACFD9;}
	.st24{fill:#EFCE4A;}
	.st25{fill:#EBBA16;}
</style>
<g>
	<g>
		<path class="st0" d="M53.9,422.1c0.4,2,0.8,3.9,1.3,5.9h6"/>
		<line class="st1" x1="73.2" y1="428" x2="813.3" y2="428"/>
		<path class="st0" d="M819.3,428h6c0.4-1.9,0.9-3.9,1.3-5.9"/>
		<path class="st2" d="M828.7,410.3c2.9-17.3,4.3-34.9,4.3-52.9c0-196-175.9-354.9-392.8-354.9S47.4,161.4,47.4,357.4
			c0,20,1.8,39.7,5.4,58.8"/>
	</g>
</g>
<g>
	<circle class="st3" cx="244.5" cy="57" r="48.3"/>
	<path class="st4" d="M292.7,57c0-26.7-21.3-48.3-48.3-48.3v96.7C271.3,105.3,292.7,83.7,292.7,57z"/>
</g>
<g>
	<g>
		<circle class="st3" cx="48.5" cy="285" r="48.3"/>
		<path class="st4" d="M0,285c0,26.7,21.3,48.3,48.3,48.3v-96.7C21.3,236.7,0,258.3,0,285z"/>
	</g>
	<g>
		<path class="st5" d="M57.1,300.7H39.8c-1,0-1.7-0.8-1.7-1.7V295c0-0.5-0.3-1-0.8-1.3c-7.2-4.6-10.8-13-9.2-21.5
			c1.5-8.1,7.9-14.7,16-16.4c6.3-1.3,12.7,0.2,17.6,4.2c4.9,4,7.7,9.9,7.7,16.2c0,7.1-3.5,13.6-9.5,17.5c-0.6,0.4-0.9,0.9-0.9,1.5
			v3.8C58.9,299.9,58.1,300.7,57.1,300.7z"/>
		<path class="st6" d="M61.6,260c-3.7-3-8.4-4.6-13.1-4.6v45.3h8.7c1,0,1.7-0.8,1.7-1.7v-3.8c0-0.6,0.3-1.1,0.9-1.5
			c5.9-3.9,9.5-10.4,9.5-17.5C69.3,269.9,66.5,264,61.6,260z"/>
		<path class="st7" d="M48.4,314.6c-3.8,0-6.9-3.1-6.9-6.9v-1.7c0-1,0.8-1.7,1.7-1.7h10.4c1,0,1.7,0.8,1.7,1.7v1.7
			C55.4,311.5,52.3,314.6,48.4,314.6z"/>
		<path class="st8" d="M53.7,304.2h-5.2v10.4c3.8,0,6.9-3.1,6.9-6.9v-1.7C55.4,305,54.6,304.2,53.7,304.2z"/>
		<g>
			<path class="st9" d="M53.7,307.7H43.2c-2.9,0-5.2-2.3-5.2-5.2v-5.2h20.8v5.2C58.9,305.3,56.5,307.7,53.7,307.7z"/>
			<path class="st9" d="M48.4,307.7h5.2c2.9,0,5.2-2.3,5.2-5.2v-5.2H48.4L48.4,307.7L48.4,307.7z"/>
		</g>
	</g>
</g>
<g>
	<g>
		<circle class="st10" cx="818.2" cy="285.4" r="48.4"/>
	</g>
	<g>
		<path class="st11" d="M818.2,333.7c26.7,0,48.4-21.7,48.4-48.4c0-26.7-21.7-48.4-48.4-48.4V333.7z"/>
	</g>
</g>
<g>
	<path class="st12" d="M274.8,28.9h-60.7c-1.9,0-3.5,1.6-3.5,3.5v44.3c0,1.9,1.6,3.5,3.5,3.5h60.7c1.9,0,3.5-1.6,3.5-3.5V32.4
		C278.3,30.5,276.7,28.9,274.8,28.9z M269,31.2h1.2c0.6,0,1.2,0.5,1.2,1.2s-0.5,1.2-1.2,1.2H269c-0.6,0-1.2-0.5-1.2-1.2
		C267.8,31.8,268.3,31.2,269,31.2z M236.3,31.2h28c0.6,0,1.2,0.5,1.2,1.2s-0.5,1.2-1.2,1.2h-28c-0.6,0-1.2-0.5-1.2-1.2
		S235.6,31.2,236.3,31.2z M230.5,31.2h1.2c0.6,0,1.2,0.5,1.2,1.2s-0.5,1.2-1.2,1.2h-1.2c-0.6,0-1.2-0.5-1.2-1.2
		S229.8,31.2,230.5,31.2z M225.8,31.2h1.2c0.6,0,1.2,0.5,1.2,1.2s-0.5,1.2-1.2,1.2h-1.2c-0.6,0-1.2-0.5-1.2-1.2
		S225.1,31.2,225.8,31.2z M221.1,31.2c0.6,0,1.2,0.5,1.2,1.2s-0.5,1.2-1.2,1.2c-0.6,0-1.2-0.5-1.2-1.2
		C220,31.8,220.5,31.2,221.1,31.2z M217.6,31.2c0.6,0,1.2,0.5,1.2,1.2s-0.5,1.2-1.2,1.2c-0.6,0-1.2-0.5-1.2-1.2S217,31.2,217.6,31.2
		z M214.1,31.2c0.6,0,1.2,0.5,1.2,1.2s-0.5,1.2-1.2,1.2S213,33,213,32.4S213.5,31.2,214.1,31.2z M276,42.9v33.8
		c0,0.6-0.5,1.2-1.2,1.2h-30.3h-30.3c-0.6,0-1.2-0.5-1.2-1.2V42.9v-5.8c0-0.6,0.5-1.2,1.2-1.2h30.3h30.3c0.6,0,1.2,0.5,1.2,1.2V42.9
		z M274.8,33.6h-1.2c-0.6,0-1.2-0.5-1.2-1.2s0.5-1.2,1.2-1.2h1.2c0.6,0,1.2,0.5,1.2,1.2C276,33,275.4,33.6,274.8,33.6z"/>
	<path class="st10" d="M244.5,77.9h30.3c0.6,0,1.2-0.5,1.2-1.2V42.9h-31.5V77.9z M262,48.7v-1.2c0-0.6,0.5-1.2,1.2-1.2h8.2
		c0.6,0,1.2,0.5,1.2,1.2v1.2v9.3c0,0.6-0.5,1.2-1.2,1.2h-8.2c-0.6,0-1.2-0.5-1.2-1.2V48.7z M248,48.7v-1.2c0-0.6,0.5-1.2,1.2-1.2
		h8.2c0.6,0,1.2,0.5,1.2,1.2v1.2v9.3c0,0.6-0.5,1.2-1.2,1.2h-8.2c-0.6,0-1.2-0.5-1.2-1.2L248,48.7L248,48.7z M249.1,62.7h1.2h21
		c0.6,0,1.2,0.5,1.2,1.2v9.3c0,0.6-0.5,1.2-1.2,1.2h-21h-1.2c-0.6,0-1.2-0.5-1.2-1.2v-9.3C248,63.3,248.5,62.7,249.1,62.7z"/>
	<circle class="st13" cx="214.1" cy="32.4" r="1.2"/>
	<circle class="st14" cx="217.6" cy="32.4" r="1.2"/>
	<circle class="st15" cx="221.1" cy="32.4" r="1.2"/>
	<g>
		<path class="st16" d="M225.8,33.6h1.2c0.6,0,1.2-0.5,1.2-1.2s-0.5-1.2-1.2-1.2h-1.2c-0.6,0-1.2,0.5-1.2,1.2
			C224.6,33,225.1,33.6,225.8,33.6z"/>
		<path class="st16" d="M230.5,33.6h1.2c0.6,0,1.2-0.5,1.2-1.2s-0.5-1.2-1.2-1.2h-1.2c-0.6,0-1.2,0.5-1.2,1.2
			C229.3,33,229.8,33.6,230.5,33.6z"/>
		<path class="st16" d="M269,33.6h1.2c0.6,0,1.2-0.5,1.2-1.2s-0.5-1.2-1.2-1.2H269c-0.6,0-1.2,0.5-1.2,1.2
			C267.8,33,268.3,33.6,269,33.6z"/>
		<path class="st16" d="M274.8,31.2h-1.2c-0.6,0-1.2,0.5-1.2,1.2s0.5,1.2,1.2,1.2h1.2c0.6,0,1.2-0.5,1.2-1.2S275.4,31.2,274.8,31.2z
			"/>
		<path class="st16" d="M236.3,33.6h28c0.6,0,1.2-0.5,1.2-1.2s-0.5-1.2-1.2-1.2h-28c-0.6,0-1.2,0.5-1.2,1.2
			C235.1,33,235.6,33.6,236.3,33.6z"/>
	</g>
	<path class="st13" d="M274.8,35.9h-30.3v7H276v-5.8C276,36.4,275.4,35.9,274.8,35.9z M252.6,40.6H248c-0.6,0-1.2-0.5-1.2-1.2
		c0-0.6,0.5-1.2,1.2-1.2h4.7c0.6,0,1.2,0.5,1.2,1.2C253.8,40,253.3,40.6,252.6,40.6z M262,40.6h-4.7c-0.6,0-1.2-0.5-1.2-1.2
		c0-0.6,0.5-1.2,1.2-1.2h4.7c0.6,0,1.2,0.5,1.2,1.2C263.1,40,262.6,40.6,262,40.6z M271.3,40.6h-4.7c-0.6,0-1.2-0.5-1.2-1.2
		c0-0.6,0.5-1.2,1.2-1.2h4.7c0.6,0,1.2,0.5,1.2,1.2C272.5,40,271.9,40.6,271.3,40.6z"/>
	<g>
		<path class="st17" d="M252.6,38.2H248c-0.6,0-1.2,0.5-1.2,1.2c0,0.6,0.5,1.2,1.2,1.2h4.7c0.6,0,1.2-0.5,1.2-1.2
			C253.8,38.8,253.3,38.2,252.6,38.2z"/>
		<path class="st17" d="M262,38.2h-4.7c-0.6,0-1.2,0.5-1.2,1.2c0,0.6,0.5,1.2,1.2,1.2h4.7c0.6,0,1.2-0.5,1.2-1.2
			C263.1,38.8,262.6,38.2,262,38.2z"/>
		<path class="st17" d="M271.3,38.2h-4.7c-0.6,0-1.2,0.5-1.2,1.2c0,0.6,0.5,1.2,1.2,1.2h4.7c0.6,0,1.2-0.5,1.2-1.2
			C272.5,38.8,271.9,38.2,271.3,38.2z"/>
	</g>
	<g>
		<path class="st18" d="M249.1,59.2h8.2c0.6,0,1.2-0.5,1.2-1.2v-9.3c0,0.6-0.5,1.2-1.2,1.2h-8.2c-0.6,0-1.2-0.5-1.2-1.2v9.3
			C248,58.7,248.5,59.2,249.1,59.2z"/>
		<path class="st18" d="M263.1,59.2h8.2c0.6,0,1.2-0.5,1.2-1.2v-9.3c0,0.6-0.5,1.2-1.2,1.2h-8.2c-0.6,0-1.2-0.5-1.2-1.2v9.3
			C262,58.7,262.5,59.2,263.1,59.2z"/>
	</g>
	<path class="st19" d="M249.1,49.9h8.2c0.6,0,1.2-0.5,1.2-1.2v-1.2c0-0.6-0.5-1.2-1.2-1.2h-8.2c-0.6,0-1.2,0.5-1.2,1.2v1.2
		C248,49.4,248.5,49.9,249.1,49.9z"/>
	<path class="st20" d="M263.1,49.9h8.2c0.6,0,1.2-0.5,1.2-1.2v-1.2c0-0.6-0.5-1.2-1.2-1.2h-8.2c-0.6,0-1.2,0.5-1.2,1.2v1.2
		C262,49.4,262.5,49.9,263.1,49.9z"/>
	<path class="st18" d="M251.5,63.9v9.3c0,0.6-0.5,1.2-1.2,1.2h21c0.6,0,1.2-0.5,1.2-1.2v-9.3c0-0.6-0.5-1.2-1.2-1.2h-21
		C250.9,62.7,251.5,63.3,251.5,63.9z"/>
	<path class="st21" d="M249.1,74.4h1.2c0.6,0,1.2-0.5,1.2-1.2v-9.3c0-0.6-0.5-1.2-1.2-1.2h-1.2c-0.6,0-1.2,0.5-1.2,1.2v9.3
		C248,73.9,248.5,74.4,249.1,74.4z"/>
	<path class="st22" d="M244.5,35.9h-30.3c-0.6,0-1.2,0.5-1.2,1.2v5.8v33.8c0,0.6,0.5,1.2,1.2,1.2h30.3v-35V35.9z M222.3,39.4H241
		c0.6,0,1.2,0.5,1.2,1.2c0,0.6-0.5,1.2-1.2,1.2h-18.7c-0.6,0-1.2-0.5-1.2-1.2C221.1,39.9,221.6,39.4,222.3,39.4z M216.5,39.4h1.2
		c0.6,0,1.2,0.5,1.2,1.2c0,0.6-0.5,1.2-1.2,1.2h-1.2c-0.6,0-1.2-0.5-1.2-1.2C215.3,39.9,215.8,39.4,216.5,39.4z M228.1,46.4h-3.5
		c-0.6,0-1.2-0.5-1.2-1.2s0.5-1.2,1.2-1.2h3.5c0.6,0,1.2,0.5,1.2,1.2C229.3,45.9,228.8,46.4,228.1,46.4z M229.3,49.9
		c0,0.6-0.5,1.2-1.2,1.2h-3.5c-0.6,0-1.2-0.5-1.2-1.2s0.5-1.2,1.2-1.2h3.5C228.8,48.7,229.3,49.3,229.3,49.9z M216.5,58.1h1.2
		c0.6,0,1.2,0.5,1.2,1.2c0,0.6-0.5,1.2-1.2,1.2h-1.2c-0.6,0-1.2-0.5-1.2-1.2C215.3,58.6,215.8,58.1,216.5,58.1z M215.3,54.6
		c0-0.6,0.5-1.2,1.2-1.2h1.2c0.6,0,1.2,0.5,1.2,1.2s-0.5,1.2-1.2,1.2h-1.2C215.8,55.7,215.3,55.2,215.3,54.6z M218.8,62.7h1.2
		c0.6,0,1.2,0.5,1.2,1.2c0,0.6-0.5,1.2-1.2,1.2h-1.2c-0.6,0-1.2-0.5-1.2-1.2C217.6,63.3,218.1,62.7,218.8,62.7z M220,51.1h-1.2
		c-0.6,0-1.2-0.5-1.2-1.2s0.5-1.2,1.2-1.2h1.2c0.6,0,1.2,0.5,1.2,1.2S220.6,51.1,220,51.1z M220,46.4h-1.2c-0.6,0-1.2-0.5-1.2-1.2
		s0.5-1.2,1.2-1.2h1.2c0.6,0,1.2,0.5,1.2,1.2C221.1,45.9,220.6,46.4,220,46.4z M217.6,74.4h-1.2c-0.6,0-1.2-0.5-1.2-1.2
		c0-0.6,0.5-1.2,1.2-1.2h1.2c0.6,0,1.2,0.5,1.2,1.2C218.8,73.9,218.3,74.4,217.6,74.4z M220,69.7h-1.2c-0.6,0-1.2-0.5-1.2-1.2
		c0-0.6,0.5-1.2,1.2-1.2h1.2c0.6,0,1.2,0.5,1.2,1.2C221.1,69.2,220.6,69.7,220,69.7z M241,74.4h-18.7c-0.6,0-1.2-0.5-1.2-1.2
		c0-0.6,0.5-1.2,1.2-1.2H241c0.6,0,1.2,0.5,1.2,1.2C242.1,73.9,241.6,74.4,241,74.4z M224.6,67.4h3.5c0.6,0,1.2,0.5,1.2,1.2
		c0,0.6-0.5,1.2-1.2,1.2h-3.5c-0.6,0-1.2-0.5-1.2-1.2C223.5,67.9,224,67.4,224.6,67.4z M223.5,63.9c0-0.6,0.5-1.2,1.2-1.2h3.5
		c0.6,0,1.2,0.5,1.2,1.2c0,0.6-0.5,1.2-1.2,1.2h-3.5C224,65.1,223.5,64.5,223.5,63.9z M241,69.7h-8.2c-0.6,0-1.2-0.5-1.2-1.2
		c0-0.6,0.5-1.2,1.2-1.2h8.2c0.6,0,1.2,0.5,1.2,1.2C242.1,69.2,241.6,69.7,241,69.7z M241,65.1h-8.2c-0.6,0-1.2-0.5-1.2-1.2
		c0-0.6,0.5-1.2,1.2-1.2h8.2c0.6,0,1.2,0.5,1.2,1.2C242.1,64.5,241.6,65.1,241,65.1z M241,60.4h-18.7c-0.6,0-1.2-0.5-1.2-1.2
		c0-0.6,0.5-1.2,1.2-1.2H241c0.6,0,1.2,0.5,1.2,1.2C242.1,59.9,241.6,60.4,241,60.4z M241,55.7h-18.7c-0.6,0-1.2-0.5-1.2-1.2
		s0.5-1.2,1.2-1.2H241c0.6,0,1.2,0.5,1.2,1.2S241.6,55.7,241,55.7z M241,51.1h-8.2c-0.6,0-1.2-0.5-1.2-1.2s0.5-1.2,1.2-1.2h8.2
		c0.6,0,1.2,0.5,1.2,1.2S241.6,51.1,241,51.1z M241,46.4h-8.2c-0.6,0-1.2-0.5-1.2-1.2s0.5-1.2,1.2-1.2h8.2c0.6,0,1.2,0.5,1.2,1.2
		S241.6,46.4,241,46.4z"/>
	<path class="st14" d="M222.3,41.7H241c0.6,0,1.2-0.5,1.2-1.2c0-0.6-0.5-1.2-1.2-1.2h-18.7c-0.6,0-1.2,0.5-1.2,1.2
		C221.1,41.2,221.6,41.7,222.3,41.7z"/>
	<g>
		<path class="st21" d="M228.1,44.1h-3.5c-0.6,0-1.2,0.5-1.2,1.2s0.5,1.2,1.2,1.2h3.5c0.6,0,1.2-0.5,1.2-1.2
			C229.3,44.6,228.8,44.1,228.1,44.1z"/>
		<path class="st21" d="M228.1,48.7h-3.5c-0.6,0-1.2,0.5-1.2,1.2s0.5,1.2,1.2,1.2h3.5c0.6,0,1.2-0.5,1.2-1.2S228.8,48.7,228.1,48.7z
			"/>
	</g>
	<path class="st14" d="M241,53.4h-18.7c-0.6,0-1.2,0.5-1.2,1.2s0.5,1.2,1.2,1.2H241c0.6,0,1.2-0.5,1.2-1.2S241.6,53.4,241,53.4z"/>
	<g>
		<path class="st10" d="M241,58.1h-18.7c-0.6,0-1.2,0.5-1.2,1.2c0,0.6,0.5,1.2,1.2,1.2H241c0.6,0,1.2-0.5,1.2-1.2
			C242.1,58.6,241.6,58.1,241,58.1z"/>
		<path class="st10" d="M241,44.1h-8.2c-0.6,0-1.2,0.5-1.2,1.2s0.5,1.2,1.2,1.2h8.2c0.6,0,1.2-0.5,1.2-1.2
			C242.1,44.6,241.6,44.1,241,44.1z"/>
		<path class="st10" d="M241,48.7h-8.2c-0.6,0-1.2,0.5-1.2,1.2s0.5,1.2,1.2,1.2h8.2c0.6,0,1.2-0.5,1.2-1.2S241.6,48.7,241,48.7z"/>
		<path class="st10" d="M241,62.7h-8.2c-0.6,0-1.2,0.5-1.2,1.2c0,0.6,0.5,1.2,1.2,1.2h8.2c0.6,0,1.2-0.5,1.2-1.2
			C242.1,63.3,241.6,62.7,241,62.7z"/>
		<path class="st10" d="M241,67.4h-8.2c-0.6,0-1.2,0.5-1.2,1.2c0,0.6,0.5,1.2,1.2,1.2h8.2c0.6,0,1.2-0.5,1.2-1.2
			C242.1,67.9,241.6,67.4,241,67.4z"/>
	</g>
	<g>
		<path class="st21" d="M224.6,65.1h3.5c0.6,0,1.2-0.5,1.2-1.2c0-0.6-0.5-1.2-1.2-1.2h-3.5c-0.6,0-1.2,0.5-1.2,1.2
			C223.5,64.5,224,65.1,224.6,65.1z"/>
		<path class="st21" d="M224.6,69.7h3.5c0.6,0,1.2-0.5,1.2-1.2c0-0.6-0.5-1.2-1.2-1.2h-3.5c-0.6,0-1.2,0.5-1.2,1.2
			C223.5,69.2,224,69.7,224.6,69.7z"/>
	</g>
	<path class="st14" d="M241,72.1h-18.7c-0.6,0-1.2,0.5-1.2,1.2s0.5,1.2,1.2,1.2H241c0.6,0,1.2-0.5,1.2-1.2
		C242.1,72.6,241.6,72.1,241,72.1z"/>
	<g>
		<path class="st13" d="M216.5,41.7h1.2c0.6,0,1.2-0.5,1.2-1.2c0-0.6-0.5-1.2-1.2-1.2h-1.2c-0.6,0-1.2,0.5-1.2,1.2
			C215.3,41.2,215.8,41.7,216.5,41.7z"/>
		<path class="st13" d="M220,44.1h-1.2c-0.6,0-1.2,0.5-1.2,1.2s0.5,1.2,1.2,1.2h1.2c0.6,0,1.2-0.5,1.2-1.2
			C221.1,44.6,220.6,44.1,220,44.1z"/>
		<path class="st13" d="M220,48.7h-1.2c-0.6,0-1.2,0.5-1.2,1.2s0.5,1.2,1.2,1.2h1.2c0.6,0,1.2-0.5,1.2-1.2S220.6,48.7,220,48.7z"/>
		<path class="st13" d="M216.5,55.7h1.2c0.6,0,1.2-0.5,1.2-1.2s-0.5-1.2-1.2-1.2h-1.2c-0.6,0-1.2,0.5-1.2,1.2S215.8,55.7,216.5,55.7
			z"/>
		<path class="st13" d="M216.5,60.4h1.2c0.6,0,1.2-0.5,1.2-1.2c0-0.6-0.5-1.2-1.2-1.2h-1.2c-0.6,0-1.2,0.5-1.2,1.2
			C215.3,59.9,215.8,60.4,216.5,60.4z"/>
		<path class="st13" d="M218.8,65.1h1.2c0.6,0,1.2-0.5,1.2-1.2c0-0.6-0.5-1.2-1.2-1.2h-1.2c-0.6,0-1.2,0.5-1.2,1.2
			C217.6,64.5,218.1,65.1,218.8,65.1z"/>
		<path class="st13" d="M220,67.4h-1.2c-0.6,0-1.2,0.5-1.2,1.2c0,0.6,0.5,1.2,1.2,1.2h1.2c0.6,0,1.2-0.5,1.2-1.2
			C221.1,67.9,220.6,67.4,220,67.4z"/>
		<path class="st13" d="M217.6,72.1h-1.2c-0.6,0-1.2,0.5-1.2,1.2s0.5,1.2,1.2,1.2h1.2c0.6,0,1.2-0.5,1.2-1.2
			C218.8,72.6,218.3,72.1,217.6,72.1z"/>
	</g>
</g>
<g>
	<g>
		<g>
			<circle class="st10" cx="645.2" cy="57.4" r="48.4"/>
		</g>
		<g>
			<path class="st11" d="M645.2,105.7c26.7,0,48.4-21.7,48.4-48.4S671.9,9,645.2,9V105.7z"/>
		</g>
	</g>
	<path class="st23" d="M663,77.6c7.2-5.1,11.4-13.1,11.4-21.6c0-15-13.1-27.1-29.2-27.1c-16.1,0-29.2,12.2-29.2,27.1
		s13.1,27.1,29.2,27.1c2.5,0,4.9-0.3,7.3-0.8l12.8,4.8c0.1,0.1,0.3,0.1,0.4,0.1c0.4,0,0.7-0.1,0.9-0.4c0.3-0.4,0.4-0.9,0.2-1.4
		L663,77.6z"/>
</g>
<g>
	<path class="st10" d="M669.2,57.3c-0.7,0-1.3-0.6-1.3-1.3c0-3.2-0.8-6.2-2.3-9.1c-0.4-0.7-0.1-1.5,0.6-1.8c0.7-0.4,1.5-0.1,1.8,0.6
		c1.7,3.2,2.6,6.7,2.6,10.4C670.6,56.7,670,57.3,669.2,57.3z"/>
	<path class="st10" d="M662.4,41.8c-0.3,0-0.7-0.1-0.9-0.4c-4.4-4.2-10.3-6.5-16.7-6.5c-0.7,0-1.3-0.6-1.3-1.3
		c0-0.7,0.6-1.3,1.3-1.3c7.1,0,13.7,2.6,18.6,7.2c0.5,0.5,0.6,1.4,0.1,1.9C663.1,41.7,662.7,41.8,662.4,41.8z"/>
	<path class="st10" d="M643.3,52.8c-2.9,0-5.3,2.4-5.3,5.3c0,2.9,2.4,5.3,5.3,5.3c2.9,0,5.3-2.4,5.3-5.3
		C648.6,55.1,646.2,52.8,643.3,52.8z"/>
	<path class="st10" d="M657.7,52.8c-2.9,0-5.3,2.4-5.3,5.3c0,2.9,2.4,5.3,5.3,5.3c2.9,0,5.3-2.4,5.3-5.3
		C663,55.1,660.6,52.8,657.7,52.8z"/>
	<path class="st10" d="M628.9,52.8c-2.9,0-5.3,2.4-5.3,5.3c0,2.9,2.4,5.3,5.3,5.3s5.3-2.4,5.3-5.3C634.2,55.1,631.8,52.8,628.9,52.8
		z"/>
</g>
<g>
	<path class="st24" d="M843.8,310.8h-51.3c-1.1,0-1.9-0.9-1.9-1.9v-30.4h55.1v30.4C845.7,309.9,844.9,310.8,843.8,310.8z"/>
	<path class="st25" d="M815.3,269.9v-5.7c0-1.1-0.9-1.9-1.9-1.9h-20.9c-1.1,0-1.9,0.9-1.9,1.9v4.7v9.5h55.1v-6.6
		c0-1.1-0.9-1.9-1.9-1.9H815.3z"/>
</g>
</svg>
