<?xml version="1.0" encoding="utf-8"?>
<!-- Generator: Adobe Illustrator 19.2.1, SVG Export Plug-In . SVG Version: 6.00 Build 0)  -->
<svg version="1.1" id="Layer_1" xmlns="http://www.w3.org/2000/svg" xmlns:xlink="http://www.w3.org/1999/xlink" x="0px" y="0px"
	 viewBox="0 0 280.1 280.1" style="enable-background:new 0 0 280.1 280.1;" xml:space="preserve">
<style type="text/css">
	.st0{fill:url(#SVGID_1_);}
	.st1{opacity:0.5;fill:#ECF0F1;enable-background:new    ;}
	.st2{fill:#EBEBEB;}
	.st3{fill:#D1D5D7;}
	.st4{fill:#ECF0F1;}
</style>
<g id="Strategy">
	<g id="paper_airplane">
		
			<radialGradient id="SVGID_1_" cx="140" cy="417.9517" r="136.1503" gradientTransform="matrix(1 0 0 1 0 -286)" gradientUnits="userSpaceOnUse">
			<stop  offset="0" style="stop-color:#2A93D8"/>
			<stop  offset="1" style="stop-color:#227FBB"/>
		</radialGradient>
		<path class="st0" d="M280.1,140c0,47.2-23.3,88.9-59.1,114.3c-22.9,16.3-53.3,7.2-83.5,7.2c-33.8,0-62.3,6.7-86.5-13.2
			C19.8,222.6-0.1,183.6-0.1,140C-0.1,62.6,62.6-0.1,140-0.1S280.1,62.6,280.1,140z"/>
		<path class="st1" d="M221.1,254.3c28.3-20.1,48.7-50.4,56.1-85.5c-18.1,2.6-34.3,14.9-40.9,33.4c-1.2,3.3-2,6.6-2.5,10
			c-15.2-3.4-30.9,5-36.2,20c-0.4,1.1-0.7,2.3-1,3.4c-1.9-1.2-3.9-2.3-6.2-3.1c-14.8-5.3-31.2,2.5-36.5,17.3
			c-1.4,4-1.9,8.2-1.5,12.2C177.6,263.8,202,267.9,221.1,254.3z"/>
		<path class="st1" d="M94.9,218.8c-8.7-11.9-25.2-14.6-37.3-6.4c-1.1-2.9-2.7-5.8-4.6-8.4c-10.1-13.7-28-18.3-43.1-12
			c8.8,22.1,23.1,41.4,41.2,56.3c9.1,7.5,18.8,11.2,29.2,12.9c3.1-0.9,6.1-2.3,8.9-4.3C101.2,248,103.8,230.9,94.9,218.8z"/>
		<polygon class="st2" points="38.2,94 235.2,53 80.2,132.8 		"/>
		<polygon class="st3" points="80.3,171 80.3,132.8 235.2,53 		"/>
		<polygon class="st2" points="152.8,192 106.6,151 235.2,53 		"/>
		<g>
			<path class="st4" d="M199.7,243.1c-3.1-18.6-19.3-32.9-38.8-32.9c-10.9,0-20.7,4.4-27.8,11.6c-7.7-7.7-18.3-12.4-30.1-12.4
				c-17.9,0-33.2,11-39.6,26.7c-5.9,1.5-10.5,7.5-11.4,13.6c24.1,19.7,54.9,30.4,88.5,30.4c30.2,0,58.2-9.6,81.1-25.8
				C216.2,248,208.5,243.8,199.7,243.1z"/>
		</g>
	</g>
</g>
</svg>
