<?xml version="1.0" encoding="utf-8"?>
<!-- Generator: Adobe Illustrator 19.2.1, SVG Export Plug-In . SVG Version: 6.00 Build 0)  -->
<svg version="1.1" id="Layer_1" xmlns="http://www.w3.org/2000/svg" xmlns:xlink="http://www.w3.org/1999/xlink" x="0px" y="0px"
	 viewBox="0 0 512 512" style="enable-background:new 0 0 512 512;" xml:space="preserve">
<style type="text/css">
	.st0{fill:#2E8DB7;}
	.st1{fill:#025E90;}
	.st2{fill:#37A9D1;}
	.st3{fill:#FFFFFF;}
	.st4{fill:#F7B239;}
	.st5{fill:#34495E;}
	.st6{fill:#283A4D;}
</style>
<polygon class="st0" points="126.6,13.4 126.6,207.5 385.4,207.5 385.4,62.2 336.6,13.4 "/>
<polygon class="st1" points="336.6,62.2 385.4,111 385.4,62.2 361,37.8 "/>
<g>
	<polygon class="st2" points="385.4,62.2 336.6,62.2 336.6,13.4 	"/>
	<rect x="163.1" y="64" class="st3" width="92.9" height="7.4"/>
	<rect x="163.1" y="92.5" class="st3" width="185.8" height="7.4"/>
	<rect x="163.1" y="121" class="st3" width="185.8" height="7.4"/>
	<rect x="163.1" y="149.5" class="st3" width="185.8" height="7.4"/>
	<rect x="191.3" y="401.6" class="st4" width="129.4" height="97.1"/>
	<rect x="3.7" y="401.6" class="st4" width="129.4" height="97.1"/>
	<rect x="378.9" y="401.6" class="st4" width="129.4" height="97.1"/>
</g>
<g>
	<rect x="250.1" y="207.5" class="st5" width="11.9" height="194.1"/>
	<rect x="62.4" y="298.1" class="st5" width="11.9" height="103.5"/>
	<rect x="437.7" y="298.1" class="st5" width="11.9" height="103.5"/>
	<rect x="61.9" y="298.6" class="st5" width="388.2" height="11.9"/>
</g>
<g>
	<rect x="243" y="291.6" class="st6" width="25.9" height="25.9"/>
	<rect x="55.4" y="291.6" class="st6" width="25.9" height="25.9"/>
	<rect x="430.7" y="291.6" class="st6" width="25.9" height="25.9"/>
</g>
</svg>
