<?xml version="1.0" encoding="utf-8"?>
<!-- Generator: Adobe Illustrator 19.2.1, SVG Export Plug-In . SVG Version: 6.00 Build 0)  -->
<svg version="1.1" id="Layer_1" xmlns="http://www.w3.org/2000/svg" xmlns:xlink="http://www.w3.org/1999/xlink" x="0px" y="0px"
	 viewBox="0 0 512 512" style="enable-background:new 0 0 512 512;" xml:space="preserve">
<style type="text/css">
	.st0{fill:#F7B239;}
	.st1{fill:#EF494F;}
	.st2{fill:#2E8DB7;}
</style>
<polygon class="st0" points="416.9,144.3 256,334.7 95.1,144.3 256,51.4 "/>
<polygon class="st1" points="416.9,144.3 416.9,333.9 256,426.9 256,426.8 194.9,334.7 256,237.2 "/>
<g>
	<polygon class="st2" points="256,237.2 256,426.8 95.1,333.9 95.1,144.3 	"/>
	<path class="st2" d="M499.9,96.6c-2.4-4.1-7.7-5.6-11.8-3.2l-30.9,17.9c-20.2-32.2-48-59.2-80.8-78.5C340,11.3,298.4,0,256,0
		c-42.4,0-84,11.3-120.4,32.7c-32.8,19.3-60.6,46.4-80.8,78.5L23.9,93.4c-4.1-2.4-9.4-1-11.8,3.2c-2.4,4.1-1,9.4,3.2,11.8l30.9,17.9
		c-18.1,34.1-27.6,72.3-27.6,111.1c0,128,101.8,232.6,228.7,237.2v28.7c0,4.8,3.9,8.6,8.6,8.6s8.6-3.9,8.6-8.6v-28.7
		c126.9-4.6,228.8-109.2,228.8-237.2c0-38.8-9.5-77.1-27.6-111.1l30.9-17.9C500.9,106,502.3,100.7,499.9,96.6z M256,457.5
		c-121.4,0-220.1-98.7-220.1-220.1c0-38.7,10.2-76.8,29.5-110.1v0c0,0,0,0,0,0s0,0,0,0c0,0,0,0,0,0c19-32.9,46.3-60.4,79.1-79.7
		c33.7-19.8,72.3-30.3,111.6-30.3c39.3,0,77.9,10.5,111.6,30.3c32.7,19.3,60,46.8,79.1,79.7c19.3,33.3,29.5,71.3,29.5,110.1
		C476.1,358.8,377.4,457.5,256,457.5z"/>
</g>
</svg>
