<?xml version="1.0" encoding="utf-8"?>
<!-- Generator: Adobe Illustrator 19.2.1, SVG Export Plug-In . SVG Version: 6.00 Build 0)  -->
<svg version="1.1" id="Layer_1" xmlns="http://www.w3.org/2000/svg" xmlns:xlink="http://www.w3.org/1999/xlink" x="0px" y="0px"
	 viewBox="0 0 508.2 429.4" style="enable-background:new 0 0 508.2 429.4;" xml:space="preserve">
<style type="text/css">
	.st0{fill:#464655;}
	.st1{fill:#FFFFFF;}
	.st2{fill:#BEC8DC;}
	.st3{fill:#AFBBD0;}
	.st4{fill:#96A5B9;}
	.st5{fill:#E4EAF6;}
	.st6{fill:#FF6469;}
	.st7{fill:#4ACFD9;}
</style>
<g>
	<path class="st0" d="M489.5,1.1h-472C7.8,1.1,0,8.9,0,18.5v279.7h507V18.5C507,8.9,499.2,1.1,489.5,1.1z M480.8,272H26.2V27.3
		h454.6V272z"/>
	<g>
		<path class="st1" d="M201.1,136.6c2.4,0,4.4,2,4.4,4.4h13.1v-13.1h-17.5c-2.4,0-4.4-2-4.4-4.4s2-4.4,4.4-4.4h17.5V62.3h-78.7v78.7
			h56.8C196.7,138.5,198.6,136.6,201.1,136.6z"/>
		<path class="st1" d="M26.2,272h454.6V27.3H26.2V272z M218.5,250.2h-17.5c-2.4,0-4.4-2-4.4-4.4s2-4.4,4.4-4.4h17.5
			c2.4,0,4.4,2,4.4,4.4S221,250.2,218.5,250.2z M201.1,206.5c2.4,0,4.4,2,4.4,4.4v17.5c0,2.4-2,4.4-4.4,4.4s-4.4-2-4.4-4.4v-17.5
			C196.7,208.4,198.6,206.5,201.1,206.5z M196.7,193.4v-17.5c0-2.4,2-4.4,4.4-4.4c2.4,0,4.4,2,4.4,4.4v17.5c0,2.4-2,4.4-4.4,4.4
			C198.6,197.7,196.7,195.8,196.7,193.4z M253.5,250.2H236c-2.4,0-4.4-2-4.4-4.4s2-4.4,4.4-4.4h17.5c2.4,0,4.4,2,4.4,4.4
			S255.9,250.2,253.5,250.2z M327.8,228.3c0,2.4-2,4.4-4.4,4.4c-2.4,0-4.4-2-4.4-4.4v-17.5c0-2.4,2-4.4,4.4-4.4c2.4,0,4.4,2,4.4,4.4
			V228.3z M327.8,193.4c0,2.4-2,4.4-4.4,4.4c-2.4,0-4.4-2-4.4-4.4v-17.5c0-2.4,2-4.4,4.4-4.4c2.4,0,4.4,2,4.4,4.4V193.4z
			 M327.8,158.4c0,2.4-2,4.4-4.4,4.4c-2.4,0-4.4-2-4.4-4.4v-17.5c0-2.4,2-4.4,4.4-4.4c2.4,0,4.4,2,4.4,4.4V158.4z M367.1,167.1V106
			V53.5c0-4.8,3.9-8.7,8.7-8.7h78.7c4.8,0,8.7,3.9,8.7,8.7V106v61.2v78.7c0,4.8-3.9,8.7-8.7,8.7h-78.7c-4.8,0-8.7-3.9-8.7-8.7V167.1
			z M306,119.1h17.5c2.4,0,4.4,2,4.4,4.4s-2,4.4-4.4,4.4H306c-2.4,0-4.4-2-4.4-4.4C301.6,121,303.5,119.1,306,119.1z M306,241.5
			h17.5c2.4,0,4.4,2,4.4,4.4s-2,4.4-4.4,4.4H306c-2.4,0-4.4-2-4.4-4.4S303.5,241.5,306,241.5z M271,119.1h17.5c2.4,0,4.4,2,4.4,4.4
			s-2,4.4-4.4,4.4H271c-2.4,0-4.4-2-4.4-4.4S268.6,119.1,271,119.1z M271,241.5h17.5c2.4,0,4.4,2,4.4,4.4s-2,4.4-4.4,4.4H271
			c-2.4,0-4.4-2-4.4-4.4S268.6,241.5,271,241.5z M122.4,53.5c0-4.8,3.9-8.7,8.7-8.7h96.2c4.8,0,8.7,3.9,8.7,8.7v65.6h17.5
			c2.4,0,4.4,2,4.4,4.4s-2,4.4-4.4,4.4H236v21.9c0,0.9-0.2,1.9-0.4,2.7l22.9,20.6c1.9,1.7,1.4,4.8-0.9,5.8l-8.7,3.8l7.8,17.7
			c1,2.2,0,4.8-2.2,5.8c-0.6,0.2-1.2,0.4-1.8,0.4c-1.7,0-3.3-1-4-2.6l-7.8-17.7l-8.7,3.8c-2.3,1-5-0.7-4.9-3.3l0.4-28.3
			c-0.1,0-0.2,0-0.4,0h-21.9c0,2.4-2,4.4-4.4,4.4s-4.4-2-4.4-4.4h-65.6c-4.8,0-8.7-3.9-8.7-8.7L122.4,53.5L122.4,53.5z M43.7,53.5
			c0-4.8,3.9-8.7,8.7-8.7h26.2c4.8,0,8.7,3.9,8.7,8.7v192.3c0,4.8-3.9,8.7-8.7,8.7H52.5c-4.8,0-8.7-3.9-8.7-8.7V53.5z"/>
	</g>
	<path class="st2" d="M0,333.2c0,9.7,7.8,17.5,17.5,17.5h166.1h139.9h166.1c9.7,0,17.5-7.8,17.5-17.5v-35H0V333.2z M253.5,311.4
		c7.2,0,13.1,5.9,13.1,13.1s-5.9,13.1-13.1,13.1c-7.2,0-13.1-5.9-13.1-13.1S246.3,311.4,253.5,311.4z"/>
	<polygon class="st3" points="175.9,411.9 331.1,411.9 325.6,368.2 181.4,368.2 	"/>
	<path class="st2" d="M174.8,411.9c-4.8,0-8.7,3.9-8.7,8.7c0,4.8,3.9,8.7,8.7,8.7h157.3c4.8,0,8.7-3.9,8.7-8.7
		c0-4.8-3.9-8.7-8.7-8.7h-1.1H175.9H174.8z"/>
	<g>
		<polygon class="st4" points="181.4,368.2 325.6,368.2 323.4,350.7 183.6,350.7 		"/>
		<circle class="st4" cx="253.5" cy="324.5" r="13.1"/>
	</g>
	<path class="st2" d="M52.5,254.6h26.2c4.8,0,8.7-3.9,8.7-8.7V53.5c0-4.8-3.9-8.7-8.7-8.7H52.5c-4.8,0-8.7,3.9-8.7,8.7v192.3
		C43.7,250.7,47.6,254.6,52.5,254.6z M61.2,62.2h8.7c4.8,0,8.7,3.9,8.7,8.7s-3.9,8.7-8.7,8.7h-8.7c-4.8,0-8.7-3.9-8.7-8.7
		C52.5,66.2,56.4,62.2,61.2,62.2z M61.2,88.5h8.7c4.8,0,8.7,3.9,8.7,8.7s-3.9,8.7-8.7,8.7h-8.7c-4.8,0-8.7-3.9-8.7-8.7
		C52.5,92.4,56.4,88.5,61.2,88.5z M61.2,114.7h8.7c4.8,0,8.7,3.9,8.7,8.7s-3.9,8.7-8.7,8.7h-8.7c-4.8,0-8.7-3.9-8.7-8.7
		S56.4,114.7,61.2,114.7z M61.2,140.9h8.7c4.8,0,8.7,3.9,8.7,8.7c0,4.8-3.9,8.7-8.7,8.7h-8.7c-4.8,0-8.7-3.9-8.7-8.7
		C52.4,144.8,56.4,140.9,61.2,140.9z M61.2,167.1h8.7c4.8,0,8.7,3.9,8.7,8.7c0,4.8-3.9,8.7-8.7,8.7h-8.7c-4.8,0-8.7-3.9-8.7-8.7
		C52.4,171.1,56.4,167.1,61.2,167.1z M52.5,210.9c0-4.8,3.9-8.7,8.7-8.7h8.7c4.8,0,8.7,3.9,8.7,8.7v17.5c0,4.8-3.9,8.7-8.7,8.7h-8.7
		c-4.8,0-8.7-3.9-8.7-8.7C52.5,228.3,52.5,210.9,52.5,210.9z"/>
	<path class="st5" d="M61.2,79.7h8.7c4.8,0,8.7-3.9,8.7-8.7s-3.9-8.7-8.7-8.7h-8.7c-4.8,0-8.7,3.9-8.7,8.7
		C52.5,75.8,56.4,79.7,61.2,79.7z"/>
	<path class="st4" d="M61.2,106h8.7c4.8,0,8.7-3.9,8.7-8.7s-3.9-8.7-8.7-8.7h-8.7c-4.8,0-8.7,3.9-8.7,8.7
		C52.5,102,56.4,106,61.2,106z"/>
	<g>
		<path class="st5" d="M61.2,132.2h8.7c4.8,0,8.7-3.9,8.7-8.7c0-4.8-3.9-8.7-8.7-8.7h-8.7c-4.8,0-8.7,3.9-8.7,8.7
			C52.4,128.3,56.4,132.2,61.2,132.2z"/>
		<path class="st5" d="M61.2,158.4h8.7c4.8,0,8.7-3.9,8.7-8.7c0-4.8-3.9-8.7-8.7-8.7h-8.7c-4.8,0-8.7,3.9-8.7,8.7
			C52.4,154.5,56.4,158.4,61.2,158.4z"/>
		<path class="st5" d="M61.2,184.6h8.7c4.8,0,8.7-3.9,8.7-8.7c0-4.8-3.9-8.7-8.7-8.7h-8.7c-4.8,0-8.7,3.9-8.7,8.7
			C52.4,180.7,56.4,184.6,61.2,184.6z"/>
	</g>
	<path class="st4" d="M61.2,237.1h8.7c4.8,0,8.7-3.9,8.7-8.7v-17.5c0-4.8-3.9-8.7-8.7-8.7h-8.7c-4.8,0-8.7,3.9-8.7,8.7v17.5
		C52.5,233.2,56.4,237.1,61.2,237.1z"/>
	<g>
		<path class="st2" d="M463.3,53.5c0-4.8-3.9-8.7-8.7-8.7h-78.7c-4.8,0-8.7,3.9-8.7,8.7V106h96.2L463.3,53.5L463.3,53.5z
			 M450.2,97.2h-35h-8.7h-26.2c-2.4,0-4.4-2-4.4-4.4c0-2.4,2-4.4,4.4-4.4h26.2h8.7h35c2.4,0,4.4,2,4.4,4.4
			C454.6,95.3,452.6,97.2,450.2,97.2z M450.2,79.7h-8.7h-8.7h-52.4c-2.4,0-4.4-2-4.4-4.4s2-4.4,4.4-4.4h52.5h8.7h8.7
			c2.4,0,4.4,2,4.4,4.4S452.6,79.7,450.2,79.7z M450.2,62.2h-52.5H389h-8.7c-2.4,0-4.4-2-4.4-4.4c0-2.4,2-4.4,4.4-4.4h8.7h8.7h52.5
			c2.4,0,4.4,2,4.4,4.4C454.6,60.3,452.6,62.2,450.2,62.2z"/>
		<path class="st2" d="M375.9,254.6h78.7c4.8,0,8.7-3.9,8.7-8.7v-78.7h-96.2v78.7C367.1,250.7,371.1,254.6,375.9,254.6z
			 M415.2,175.9h35c2.4,0,4.4,2,4.4,4.4c0,2.4-2,4.4-4.4,4.4h-35c-2.4,0-4.4-2-4.4-4.4C410.9,177.8,412.8,175.9,415.2,175.9z
			 M415.2,193.4h35c2.4,0,4.4,2,4.4,4.4c0,2.4-2,4.4-4.4,4.4h-35c-2.4,0-4.4-2-4.4-4.4C410.9,195.3,412.8,193.4,415.2,193.4z
			 M415.2,210.9h35c2.4,0,4.4,2,4.4,4.4c0,2.4-2,4.4-4.4,4.4h-35c-2.4,0-4.4-2-4.4-4.4C410.9,212.8,412.8,210.9,415.2,210.9z
			 M415.2,228.3h35c2.4,0,4.4,2,4.4,4.4c0,2.4-2,4.4-4.4,4.4h-35c-2.4,0-4.4-2-4.4-4.4C410.9,230.3,412.8,228.3,415.2,228.3z
			 M397.7,175.9L397.7,175.9c2.4,0,4.4,2,4.4,4.4c0,2.4-2,4.4-4.4,4.4l0,0c-2.4,0-4.4-2-4.4-4.4
			C393.4,177.8,395.3,175.9,397.7,175.9z M397.7,193.4L397.7,193.4c2.4,0,4.4,2,4.4,4.4c0,2.4-2,4.4-4.4,4.4l0,0
			c-2.4,0-4.4-2-4.4-4.4C393.4,195.3,395.3,193.4,397.7,193.4z M397.7,210.9L397.7,210.9c2.4,0,4.4,2,4.4,4.4c0,2.4-2,4.4-4.4,4.4
			l0,0c-2.4,0-4.4-2-4.4-4.4C393.4,212.8,395.3,210.9,397.7,210.9z M397.7,228.3L397.7,228.3c2.4,0,4.4,2,4.4,4.4
			c0,2.4-2,4.4-4.4,4.4l0,0c-2.4,0-4.4-2-4.4-4.4C393.4,230.3,395.3,228.3,397.7,228.3z M380.3,175.9L380.3,175.9
			c2.4,0,4.4,2,4.4,4.4c0,2.4-2,4.4-4.4,4.4l0,0c-2.4,0-4.4-2-4.4-4.4C375.9,177.8,377.8,175.9,380.3,175.9z M380.3,193.4
			L380.3,193.4c2.4,0,4.4,2,4.4,4.4c0,2.4-2,4.4-4.4,4.4l0,0c-2.4,0-4.4-2-4.4-4.4C375.9,195.3,377.8,193.4,380.3,193.4z
			 M380.3,210.9L380.3,210.9c2.4,0,4.4,2,4.4,4.4c0,2.4-2,4.4-4.4,4.4l0,0c-2.4,0-4.4-2-4.4-4.4
			C375.9,212.8,377.8,210.9,380.3,210.9z M380.3,228.3L380.3,228.3c2.4,0,4.4,2,4.4,4.4c0,2.4-2,4.4-4.4,4.4l0,0
			c-2.4,0-4.4-2-4.4-4.4C375.9,230.3,377.8,228.3,380.3,228.3z"/>
	</g>
	<g>
		<path class="st4" d="M463.3,106h-96.2v61.2h96.2V106z M389,158.4h-8.7c-2.4,0-4.4-2-4.4-4.4c0-2.4,2-4.4,4.4-4.4h8.7
			c2.4,0,4.4,2,4.4,4.4C393.4,156.5,391.4,158.4,389,158.4z M389,140.9h-8.7c-2.4,0-4.4-2-4.4-4.4c0-2.4,2-4.4,4.4-4.4h8.7
			c2.4,0,4.4,2,4.4,4.4C393.4,139,391.4,140.9,389,140.9z M389,123.4h-8.7c-2.4,0-4.4-2-4.4-4.4s2-4.4,4.4-4.4h8.7
			c2.4,0,4.4,2,4.4,4.4S391.4,123.4,389,123.4z M450.2,158.4h-43.7c-2.4,0-4.4-2-4.4-4.4c0-2.4,2-4.4,4.4-4.4h43.7
			c2.4,0,4.4,2,4.4,4.4C454.6,156.5,452.6,158.4,450.2,158.4z M450.2,140.9h-43.7c-2.4,0-4.4-2-4.4-4.4c0-2.4,2-4.4,4.4-4.4h43.7
			c2.4,0,4.4,2,4.4,4.4C454.6,139,452.6,140.9,450.2,140.9z M450.2,123.4h-43.7c-2.4,0-4.4-2-4.4-4.4s2-4.4,4.4-4.4h43.7
			c2.4,0,4.4,2,4.4,4.4S452.6,123.4,450.2,123.4z"/>
		<path class="st4" d="M450.2,53.5h-52.5c2.4,0,4.4,2,4.4,4.4c0,2.4-2,4.4-4.4,4.4h52.5c2.4,0,4.4-2,4.4-4.4
			C454.6,55.5,452.6,53.5,450.2,53.5z"/>
		<path class="st4" d="M384.6,57.9c0-2.4,2-4.4,4.4-4.4h-8.7c-2.4,0-4.4,2-4.4,4.4c0,2.4,2,4.4,4.4,4.4h8.7
			C386.6,62.2,384.6,60.3,384.6,57.9z"/>
		<path class="st4" d="M450.2,88.5h-35c2.4,0,4.4,2,4.4,4.4c0,2.4-2,4.4-4.4,4.4h35c2.4,0,4.4-2,4.4-4.4
			C454.6,90.4,452.6,88.5,450.2,88.5z"/>
		<path class="st4" d="M402.1,92.8c0-2.4,2-4.4,4.4-4.4h-26.2c-2.4,0-4.4,2-4.4,4.4c0,2.4,2,4.4,4.4,4.4h26.2
			C404.1,97.2,402.1,95.3,402.1,92.8z"/>
	</g>
	<path class="st2" d="M450.2,114.7h-43.7c-2.4,0-4.4,2-4.4,4.4s2,4.4,4.4,4.4h43.7c2.4,0,4.4-2,4.4-4.4S452.6,114.7,450.2,114.7z"/>
	<g>
		<path class="st4" d="M428.3,75.4c0-2.4,2-4.4,4.4-4.4h-52.5c-2.4,0-4.4,2-4.4,4.4s2,4.4,4.4,4.4h52.5
			C430.3,79.7,428.3,77.8,428.3,75.4z"/>
		<path class="st4" d="M450.2,71h-8.7c2.4,0,4.4,2,4.4,4.4s-2,4.4-4.4,4.4h8.7c2.4,0,4.4-2,4.4-4.4S452.6,71,450.2,71z"/>
	</g>
	<g>
		<path class="st5" d="M402.1,57.9c0-2.4-2-4.4-4.4-4.4H389c-2.4,0-4.4,2-4.4,4.4c0,2.4,2,4.4,4.4,4.4h8.7
			C400.2,62.2,402.1,60.3,402.1,57.9z"/>
		<path class="st5" d="M419.6,92.8c0-2.4-2-4.4-4.4-4.4h-8.7c-2.4,0-4.4,2-4.4,4.4c0,2.4,2,4.4,4.4,4.4h8.7
			C417.6,97.2,419.6,95.3,419.6,92.8z"/>
		<path class="st5" d="M389,114.7h-8.7c-2.4,0-4.4,2-4.4,4.4s2,4.4,4.4,4.4h8.7c2.4,0,4.4-2,4.4-4.4S391.4,114.7,389,114.7z"/>
	</g>
	<path class="st2" d="M450.2,132.2h-43.7c-2.4,0-4.4,2-4.4,4.4c0,2.4,2,4.4,4.4,4.4h43.7c2.4,0,4.4-2,4.4-4.4
		C454.6,134.1,452.6,132.2,450.2,132.2z"/>
	<path class="st5" d="M389,132.2h-8.7c-2.4,0-4.4,2-4.4,4.4c0,2.4,2,4.4,4.4,4.4h8.7c2.4,0,4.4-2,4.4-4.4
		C393.4,134.1,391.4,132.2,389,132.2z"/>
	<path class="st2" d="M450.2,149.7h-43.7c-2.4,0-4.4,2-4.4,4.4c0,2.4,2,4.4,4.4,4.4h43.7c2.4,0,4.4-2,4.4-4.4
		C454.6,151.6,452.6,149.7,450.2,149.7z"/>
	<g>
		<path class="st5" d="M389,149.7h-8.7c-2.4,0-4.4,2-4.4,4.4c0,2.4,2,4.4,4.4,4.4h8.7c2.4,0,4.4-2,4.4-4.4
			C393.4,151.6,391.4,149.7,389,149.7z"/>
		<path class="st5" d="M380.3,202.1L380.3,202.1c2.4,0,4.4-2,4.4-4.4c0-2.4-2-4.4-4.4-4.4l0,0c-2.4,0-4.4,2-4.4,4.4
			C375.9,200.2,377.8,202.1,380.3,202.1z"/>
		<path class="st5" d="M380.3,184.6L380.3,184.6c2.4,0,4.4-2,4.4-4.4c0-2.4-2-4.4-4.4-4.4l0,0c-2.4,0-4.4,2-4.4,4.4
			C375.9,182.7,377.8,184.6,380.3,184.6z"/>
		<path class="st5" d="M380.3,237.1L380.3,237.1c2.4,0,4.4-2,4.4-4.4c0-2.4-2-4.4-4.4-4.4l0,0c-2.4,0-4.4,2-4.4,4.4
			C375.9,235.1,377.8,237.1,380.3,237.1z"/>
		<path class="st5" d="M380.3,219.6L380.3,219.6c2.4,0,4.4-2,4.4-4.4c0-2.4-2-4.4-4.4-4.4l0,0c-2.4,0-4.4,2-4.4,4.4
			C375.9,217.6,377.8,219.6,380.3,219.6z"/>
	</g>
	<g>
		<path class="st4" d="M397.7,202.1L397.7,202.1c2.4,0,4.4-2,4.4-4.4c0-2.4-2-4.4-4.4-4.4l0,0c-2.4,0-4.4,2-4.4,4.4
			C393.4,200.2,395.3,202.1,397.7,202.1z"/>
		<path class="st4" d="M397.7,184.6L397.7,184.6c2.4,0,4.4-2,4.4-4.4c0-2.4-2-4.4-4.4-4.4l0,0c-2.4,0-4.4,2-4.4,4.4
			C393.4,182.7,395.3,184.6,397.7,184.6z"/>
		<path class="st4" d="M397.7,237.1L397.7,237.1c2.4,0,4.4-2,4.4-4.4c0-2.4-2-4.4-4.4-4.4l0,0c-2.4,0-4.4,2-4.4,4.4
			C393.4,235.1,395.3,237.1,397.7,237.1z"/>
		<path class="st4" d="M397.7,219.6L397.7,219.6c2.4,0,4.4-2,4.4-4.4c0-2.4-2-4.4-4.4-4.4l0,0c-2.4,0-4.4,2-4.4,4.4
			C393.4,217.6,395.3,219.6,397.7,219.6z"/>
		<path class="st4" d="M415.2,202.1h35c2.4,0,4.4-2,4.4-4.4c0-2.4-2-4.4-4.4-4.4h-35c-2.4,0-4.4,2-4.4,4.4
			C410.9,200.2,412.8,202.1,415.2,202.1z"/>
		<path class="st4" d="M415.2,184.6h35c2.4,0,4.4-2,4.4-4.4c0-2.4-2-4.4-4.4-4.4h-35c-2.4,0-4.4,2-4.4,4.4
			C410.9,182.7,412.8,184.6,415.2,184.6z"/>
		<path class="st4" d="M415.2,237.1h35c2.4,0,4.4-2,4.4-4.4c0-2.4-2-4.4-4.4-4.4h-35c-2.4,0-4.4,2-4.4,4.4
			C410.9,235.1,412.8,237.1,415.2,237.1z"/>
		<path class="st4" d="M415.2,219.6h35c2.4,0,4.4-2,4.4-4.4c0-2.4-2-4.4-4.4-4.4h-35c-2.4,0-4.4,2-4.4,4.4
			C410.9,217.6,412.8,219.6,415.2,219.6z"/>
	</g>
	<path class="st5" d="M445.8,75.4c0-2.4-2-4.4-4.4-4.4h-8.7c-2.4,0-4.4,2-4.4,4.4s2,4.4,4.4,4.4h8.7
		C443.9,79.7,445.8,77.8,445.8,75.4z"/>
	<path class="st6" d="M131.1,158.4h65.6v-17.5h-56.8V62.3h78.7v56.8c2.4,0,4.4,2,4.4,4.4s-2,4.4-4.4,4.4v13.1h-13.1v17.5h21.9
		c0.1,0,0.2,0,0.4,0l0.1-5.3c0-3,3.6-4.6,5.8-2.6l2,1.8c0.3-0.9,0.4-1.8,0.4-2.7v-21.9c-2.4,0-4.4-2-4.4-4.4s2-4.4,4.4-4.4V53.5
		c0-4.8-3.9-8.7-8.7-8.7h-96.2c-4.8,0-8.7,3.9-8.7,8.7v96.2C122.4,154.5,126.3,158.4,131.1,158.4z"/>
	<g>
		<path class="st4" d="M201.1,197.7c2.4,0,4.4-2,4.4-4.4v-17.5c0-2.4-2-4.4-4.4-4.4s-4.4,2-4.4,4.4v17.5
			C196.7,195.8,198.6,197.7,201.1,197.7z"/>
		<path class="st4" d="M306,250.2h17.5c2.4,0,4.4-2,4.4-4.4s-2-4.4-4.4-4.4H306c-2.4,0-4.4,2-4.4,4.4S303.5,250.2,306,250.2z"/>
		<path class="st4" d="M323.4,206.5c-2.4,0-4.4,2-4.4,4.4v17.5c0,2.4,2,4.4,4.4,4.4s4.4-2,4.4-4.4v-17.5
			C327.8,208.4,325.9,206.5,323.4,206.5z"/>
		<path class="st4" d="M306,127.8h17.5c2.4,0,4.4-2,4.4-4.4s-2-4.4-4.4-4.4H306c-2.4,0-4.4,2-4.4,4.4
			C301.6,125.9,303.5,127.8,306,127.8z"/>
		<path class="st4" d="M323.4,136.6c-2.4,0-4.4,2-4.4,4.4v17.5c0,2.4,2,4.4,4.4,4.4s4.4-2,4.4-4.4v-17.5
			C327.8,138.5,325.9,136.6,323.4,136.6z"/>
		<path class="st4" d="M253.5,241.5H236c-2.4,0-4.4,2-4.4,4.4s2,4.4,4.4,4.4h17.5c2.4,0,4.4-2,4.4-4.4S255.9,241.5,253.5,241.5z"/>
		<path class="st4" d="M201.1,136.6c-2.4,0-4.4,2-4.4,4.4v17.5c0,2.4,2,4.4,4.4,4.4s4.4-2,4.4-4.4v-17.5
			C205.4,138.5,203.5,136.6,201.1,136.6z"/>
		<path class="st4" d="M218.5,241.5h-17.5c-2.4,0-4.4,2-4.4,4.4s2,4.4,4.4,4.4h17.5c2.4,0,4.4-2,4.4-4.4S221,241.5,218.5,241.5z"/>
		<path class="st4" d="M196.7,228.3c0,2.4,2,4.4,4.4,4.4c2.4,0,4.4-2,4.4-4.4v-17.5c0-2.4-2-4.4-4.4-4.4c-2.4,0-4.4,2-4.4,4.4V228.3
			z"/>
		<path class="st4" d="M323.4,171.5c-2.4,0-4.4,2-4.4,4.4v17.5c0,2.4,2,4.4,4.4,4.4s4.4-2,4.4-4.4v-17.5
			C327.8,173.5,325.9,171.5,323.4,171.5z"/>
		<path class="st4" d="M271,127.8h17.5c2.4,0,4.4-2,4.4-4.4s-2-4.4-4.4-4.4H271c-2.4,0-4.4,2-4.4,4.4S268.6,127.8,271,127.8z"/>
		<path class="st4" d="M196.7,123.4c0,2.4,2,4.4,4.4,4.4h17.5c2.4,0,4.4-2,4.4-4.4s-2-4.4-4.4-4.4h-17.5
			C198.6,119.1,196.7,121,196.7,123.4z"/>
		<path class="st4" d="M271,250.2h17.5c2.4,0,4.4-2,4.4-4.4s-2-4.4-4.4-4.4H271c-2.4,0-4.4,2-4.4,4.4S268.6,250.2,271,250.2z"/>
		<path class="st4" d="M231.7,123.4c0,2.4,2,4.4,4.4,4.4h17.5c2.4,0,4.4-2,4.4-4.4s-2-4.4-4.4-4.4H236
			C233.6,119.1,231.7,121,231.7,123.4z"/>
	</g>
	<path class="st0" d="M227.7,153.1l-0.1,5.3l-0.4,28.3c0,2.6,2.6,4.3,4.9,3.3l8.7-3.8l7.8,17.7c0.7,1.6,2.3,2.6,4,2.6
		c0.6,0,1.2-0.1,1.8-0.4c2.2-1,3.2-3.6,2.2-5.8l-7.8-17.7l8.7-3.8c2.3-1,2.8-4.1,0.9-5.8l-22.9-20.6l-2-1.8
		C231.3,148.6,227.8,150.1,227.7,153.1z"/>
</g>
<g>
	<path class="st7" d="M322,205.3c-0.8,1.7-0.6,3.7,0.7,5.1c0.9,1,2.1,1.5,3.4,1.5c0.5,0,1.1-0.1,1.6-0.3l46.5-17.5
		c8.6,2,17.5,3.1,26.4,3.1c58.4,0,106-44.2,106-98.6S459,0,400.6,0c-58.4,0-106,44.2-106,98.6c0,30.7,15.5,59.7,41.5,78.3L322,205.3
		z"/>
	<g>
		<path class="st1" d="M312.9,98.6c0-12.3,3-24.1,8.8-35.1c1.2-2.2,4-3.1,6.2-1.9c2.2,1.2,3.1,4,1.9,6.2c-5.1,9.7-7.8,20-7.8,30.8
			c0,2.5-2,4.6-4.6,4.6S312.9,101.2,312.9,98.6z"/>
		<path class="st1" d="M337.4,49.3c-1.7-1.8-1.7-4.7,0.2-6.5c16.7-15.8,39.1-24.5,63-24.5c2.5,0,4.6,2.1,4.6,4.6s-2,4.6-4.6,4.6
			c-21.6,0-41.7,7.8-56.7,22c-0.9,0.8-2,1.3-3.2,1.3C339.5,50.8,338.3,50.3,337.4,49.3z"/>
		<path class="st1" d="M387.4,106c0,9.9,8.1,18,18,18c9.9,0,18-8.1,18-18s-8.1-18-18-18C395.5,87.9,387.4,96,387.4,106z"/>
		<path class="st1" d="M338.6,106c0,9.9,8.1,18,18,18s18-8.1,18-18s-8.1-18-18-18S338.6,96,338.6,106z"/>
		<path class="st1" d="M436.3,106c0,9.9,8.1,18,18,18s18-8.1,18-18s-8.1-18-18-18S436.3,96,436.3,106z"/>
	</g>
</g>
</svg>
