<?xml version="1.0" encoding="utf-8"?>
<!-- Generator: Adobe Illustrator 19.2.1, SVG Export Plug-In . SVG Version: 6.00 Build 0)  -->
<svg version="1.1" id="Layer_1" xmlns="http://www.w3.org/2000/svg" xmlns:xlink="http://www.w3.org/1999/xlink" x="0px" y="0px"
	 viewBox="0 0 508.2 429.4" style="enable-background:new 0 0 508.2 429.4;" xml:space="preserve">
<style type="text/css">
	.st0{fill:#FA6121;}
	.st1{fill:#BB4919;}
	.st2{fill:#FFFFFF;}
	.st3{fill:#8BC0FF;}
	.st4{fill:#466289;}
	.st5{fill:#233145;}
	.st6{fill:#DAE0E7;}
	.st7{fill:#3897FF;}
	.st8{fill:#FFB739;}
	.st9{fill:#F67A21;}
	.st10{fill:#FB992D;}
	.st11{fill:#464655;}
	.st12{fill:#BEC8DC;}
	.st13{fill:#AFBBD0;}
	.st14{fill:#96A5B9;}
</style>
<g id="XMLID_444_">
	<polygon id="XMLID_445_" class="st0" points="101.9,25.4 25.9,25.4 25.9,270.9 101.9,270.9 107,148.1 	"/>
	<ellipse id="XMLID_446_" class="st1" cx="63.9" cy="238.9" rx="15.2" ry="16"/>
	<polygon id="XMLID_447_" class="st2" points="41.1,180.2 86.7,180.2 86.7,73.4 63.9,68.1 41.1,73.4 	"/>
	<rect id="XMLID_448_" x="41.1" y="41.4" class="st3" width="45.6" height="32"/>
	<rect id="XMLID_449_" x="177.9" y="25.4" class="st4" width="76" height="245.5"/>
	<ellipse id="XMLID_450_" class="st5" cx="215.9" cy="238.9" rx="15.2" ry="16"/>
	<polygon id="XMLID_451_" class="st6" points="193.1,180.2 238.7,180.2 238.7,73.4 215.9,68.1 193.1,73.4 	"/>
	<rect id="XMLID_452_" x="193.1" y="41.4" class="st7" width="45.6" height="32"/>
	<polygon id="XMLID_453_" class="st8" points="101.9,25.4 101.9,270.9 139.9,270.9 145,148.1 139.9,25.4 	"/>
	<path id="XMLID_454_" class="st9" d="M124.7,238.9c0,8.8,6.8,16,15.2,16l5.1-16l-5.1-16C131.5,222.9,124.7,230,124.7,238.9z"/>
	<polygon id="XMLID_455_" class="st2" points="117.1,73.4 117.1,180.2 139.9,180.2 145,126.8 139.9,73.4 128.5,68.1 	"/>
	<rect id="XMLID_458_" x="139.9" y="25.4" class="st10" width="38" height="245.5"/>
	<path id="XMLID_459_" class="st1" d="M155.1,238.9c0-8.8-6.8-16-15.2-16v32C148.3,254.9,155.1,247.7,155.1,238.9z"/>
	<polygon id="XMLID_460_" class="st6" points="139.9,180.2 162.7,180.2 162.7,73.4 151.3,68.1 139.9,73.4 	"/>
	<polygon id="XMLID_461_" class="st3" points="139.9,41.4 117.1,41.4 117.1,73.4 139.9,73.4 145,57.4 	"/>
	<rect id="XMLID_462_" x="139.9" y="41.4" class="st7" width="22.8" height="32"/>
</g>
<g id="XMLID_1_">
	<polygon id="XMLID_17_" class="st0" points="329.9,25.4 253.9,25.4 253.9,270.9 329.9,270.9 335,148.1 	"/>
	<ellipse id="XMLID_16_" class="st1" cx="291.9" cy="238.9" rx="15.2" ry="16"/>
	<polygon id="XMLID_15_" class="st2" points="269.1,180.2 314.7,180.2 314.7,73.4 291.9,68.1 269.1,73.4 	"/>
	<rect id="XMLID_14_" x="269.1" y="41.4" class="st3" width="45.6" height="32"/>
	<rect id="XMLID_13_" x="405.9" y="25.4" class="st4" width="76" height="245.5"/>
	<ellipse id="XMLID_12_" class="st5" cx="443.9" cy="238.9" rx="15.2" ry="16"/>
	<polygon id="XMLID_11_" class="st6" points="421.1,180.2 466.7,180.2 466.7,73.4 443.9,68.1 421.1,73.4 	"/>
	<rect id="XMLID_10_" x="421.1" y="41.4" class="st7" width="45.6" height="32"/>
	<polygon id="XMLID_9_" class="st8" points="329.9,25.4 329.9,270.9 367.9,270.9 373,148.1 367.9,25.4 	"/>
	<path id="XMLID_8_" class="st9" d="M352.7,238.9c0,8.8,6.8,16,15.2,16l5.1-16l-5.1-16C359.5,222.9,352.7,230,352.7,238.9z"/>
	<polygon id="XMLID_7_" class="st2" points="345.1,73.4 345.1,180.2 367.9,180.2 373,126.8 367.9,73.4 356.5,68.1 	"/>
	<rect id="XMLID_6_" x="367.9" y="25.4" class="st10" width="38" height="245.5"/>
	<path id="XMLID_5_" class="st1" d="M383.1,238.9c0-8.8-6.8-16-15.2-16v32C376.3,254.9,383.1,247.7,383.1,238.9z"/>
	<polygon id="XMLID_4_" class="st6" points="367.9,180.2 390.7,180.2 390.7,73.4 379.3,68.1 367.9,73.4 	"/>
	<polygon id="XMLID_3_" class="st3" points="367.9,41.4 345.1,41.4 345.1,73.4 367.9,73.4 373,57.4 	"/>
	<rect id="XMLID_2_" x="367.9" y="41.4" class="st7" width="22.8" height="32"/>
</g>
<path class="st11" d="M490.7-0.9H17.1C7.5-0.9-0.4,6.9-0.4,16.6v280.6h508.6V16.6C508.2,6.9,500.3-0.9,490.7-0.9z M481.9,270.9h-456
	V25.4h456V270.9z"/>
<path class="st12" d="M-0.4,332.3c0,9.7,7.9,17.5,17.5,17.5h166.6h140.3h166.6c9.7,0,17.5-7.9,17.5-17.5v-35.1H-0.4V332.3z
	 M253.9,310.4c7.3,0,13.2,5.9,13.2,13.2s-5.9,13.2-13.2,13.2c-7.3,0-13.2-5.9-13.2-13.2S246.6,310.4,253.9,310.4z"/>
<polygon class="st13" points="176.1,411.2 331.7,411.2 326.2,367.4 181.6,367.4 "/>
<path class="st12" d="M175,411.2c-4.8,0-8.8,3.9-8.8,8.8s3.9,8.8,8.8,8.8h157.8c4.8,0,8.8-3.9,8.8-8.8s-3.9-8.8-8.8-8.8h-1.1H176.1
	H175z"/>
<g>
	<polygon class="st14" points="181.6,367.4 326.2,367.4 324.1,349.8 183.7,349.8 	"/>
	<circle class="st14" cx="253.9" cy="323.5" r="13.2"/>
</g>
</svg>
