<?xml version="1.0" encoding="utf-8"?>
<!-- Generator: Adobe Illustrator 19.2.1, SVG Export Plug-In . SVG Version: 6.00 Build 0)  -->
<svg version="1.1" id="Layer_1" xmlns="http://www.w3.org/2000/svg" xmlns:xlink="http://www.w3.org/1999/xlink" x="0px" y="0px"
	 viewBox="0 0 508.2 429.4" style="enable-background:new 0 0 508.2 429.4;" xml:space="preserve">
<style type="text/css">
	.st0{fill:#FFFFFF;}
	.st1{fill:#464655;}
	.st2{fill:#BEC8DC;}
	.st3{fill:#AFBBD0;}
	.st4{fill:#96A5B9;}
	.st5{fill:#4ACFD9;}
	.st6{fill:#FF9900;}
	.st7{fill:#FAD52A;}
	.st8{fill:#219B9E;}
	.st9{fill:#FFEA5E;}
</style>
<rect x="26.3" y="26.3" class="st0" width="455.6" height="245.3"/>
<path class="st1" d="M490.6,0H17.5C7.8,0,0,7.8,0,17.5v280.3h508.1V17.5C508.1,7.8,500.3,0,490.6,0z M481.8,271.6H26.3V26.3h455.6
	v245.3H481.8z"/>
<path class="st2" d="M0,332.9c0,9.7,7.8,17.5,17.5,17.5H184h140.2h166.5c9.7,0,17.5-7.8,17.5-17.5v-35H0V332.9z M254,311
	c7.3,0,13.1,5.9,13.1,13.1c0,7.3-5.9,13.1-13.1,13.1c-7.3,0-13.1-5.9-13.1-13.1S246.8,311,254,311z"/>
<polygon class="st3" points="176.3,411.8 331.8,411.8 326.3,368 181.8,368 "/>
<path class="st2" d="M175.2,411.8c-4.8,0-8.8,3.9-8.8,8.8s3.9,8.8,8.8,8.8h157.7c4.8,0,8.8-3.9,8.8-8.8s-3.9-8.8-8.8-8.8h-1.1H176.3
	H175.2z"/>
<g>
	<polygon class="st4" points="181.8,368 326.3,368 324.1,350.4 184,350.4 	"/>
	<circle class="st4" cx="254" cy="324.1" r="13.1"/>
</g>
<g>
	<g>
		<g>
			<path class="st5" d="M159,130.3H76.7c-4.1,0-7.4-3.3-7.4-7.4s3.3-7.4,7.4-7.4H159c4.1,0,7.4,3.3,7.4,7.4S163.1,130.3,159,130.3z"
				/>
			<path class="st5" d="M159,158.9h-41.2c-4.1,0-7.4-3.3-7.4-7.4c0-4.1,3.3-7.4,7.4-7.4H159c4.1,0,7.4,3.3,7.4,7.4
				S163.1,158.9,159,158.9z"/>
			<path class="st6" d="M332.3,74.9H182.1c-14.2,0-25.8,11.6-25.8,25.8v96.4c0,14.2,11.6,25.8,25.8,25.8h150.2
				c14.2,0,25.8-11.6,25.8-25.8v-96.4C358.1,86.5,346.5,74.9,332.3,74.9z"/>
			<path class="st7" d="M257.2,74.9h-75.1c-14.2,0-25.8,11.6-25.8,25.8v96.4c0,14.2,11.6,25.8,25.8,25.8h75.1V74.9L257.2,74.9z"/>
			<path class="st8" d="M198.9,187.5h-55c-4.1,0-7.4-3.3-7.4-7.4s3.3-7.4,7.4-7.4h55c4.1,0,7.4,3.3,7.4,7.4S203,187.5,198.9,187.5z"
				/>
			<path class="st5" d="M171.4,187.5H144c-4.1,0-7.4-3.3-7.4-7.4s3.3-7.4,7.4-7.4h27.5C171.4,172.7,171.4,187.5,171.4,187.5z"/>
		</g>
		<path class="st7" d="M274.6,155.5l82.8-60.8c-2.7-11.3-12.9-19.8-25.1-19.8H182.1c-12.1,0-22.4,8.4-25.1,19.8l82.8,60.8
			C250.1,163,264.3,163,274.6,155.5z"/>
	</g>
	<path class="st9" d="M257.2,74.9h-75.1c-12.1,0-22.4,8.4-25.1,19.8l82.8,60.8c5.1,3.8,11.3,5.7,17.4,5.7V74.9z"/>
</g>
</svg>
