<svg id="Layer_1" data-name="Layer 1" xmlns="http://www.w3.org/2000/svg" width="155.76mm" height="157.42mm" viewBox="0 0 441.53 446.23"><defs><style>.cls-1{fill:#c8cacc;}.cls-2{fill:#fff;}.cls-3{fill:#666;}.cls-4{fill:#15bdb1;}.cls-5{fill:#20d0c2;}.cls-6{fill:#807d7d;}.cls-7{fill:#fbb429;}.cls-8{fill:#f5a209;}.cls-9{fill:#0e7886;}.cls-10{fill:#ff5b61;}.cls-11{fill:#ecf0f1;}.cls-12{fill:#fcde76;}</style></defs><title>backoffice_icon</title><path class="cls-1" d="M223.74,367.33l-9.42,34.42-31.65,24.71v5.29H329.15v-5.29L297.5,401.74l-9.42-34.42-32.17-.44-32.18.44h0Z" transform="translate(-35.75 -10.35)"/><path class="cls-2" d="M182.67,429.18v2.57H329.15v-2.57H182.67Z" transform="translate(-35.75 -10.35)"/><path class="cls-3" d="M92.49,107H419.33a19.58,19.58,0,0,1,19.52,19.52V327.9H73V126.57A19.58,19.58,0,0,1,92.49,107h0Z" transform="translate(-35.75 -10.35)"/><path class="cls-4" d="M86.22,314.65H425.6V126.57a6.32,6.32,0,0,0-6.27-6.27H92.49a6.32,6.32,0,0,0-6.27,6.27V314.65Z" transform="translate(-35.75 -10.35)"/><path class="cls-5" d="M193.67,327.9H347.18l-116.06-108-54.81,54.41Z" transform="translate(-35.75 -10.35)"/><path class="cls-6" d="M193.67,327.9H347.18l-14.25-13.26H189.38Z" transform="translate(-35.75 -10.35)"/><path class="cls-2" d="M214.66,258.14a18.76,18.76,0,0,0-.19-26.53,19,19,0,0,0-18.33-5.07L190,220.37a1.87,1.87,0,0,0-2.64,0l-9.65,9.58a1.87,1.87,0,0,0,0,2.64l5.77,5.81a19,19,0,0,0,4.63,19.4,18.76,18.76,0,0,0,26.53.39h0Z" transform="translate(-35.75 -10.35)"/><path class="cls-7" d="M190.72,206.53l-14-14.06a12.37,12.37,0,0,0-17.44-.06l-10,9.93a12.37,12.37,0,0,0-.06,17.44l14,14.06c-3.23,12.42-.13,27.17,13.09,40.49l54.81-54.41c-13.22-13.32-28-16.53-40.4-13.39h0Z" transform="translate(-35.75 -10.35)"/><path class="cls-8" d="M149.58,202.07l-0.26.26a12.37,12.37,0,0,0-.06,17.44l14,14.06c-3.23,12.42-.13,27.17,13.09,40.49l1.67-1.65c-12.13-13.39-14.88-28-11.67-40.32l-14.66-14.76A13,13,0,0,1,149.58,202.07Z" transform="translate(-35.75 -10.35)"/><path class="cls-1" d="M438.85,327.9v21.35c0,10.74-9.68,19.53-21.52,19.53H94.49C82.65,368.78,73,360,73,349.26V327.9H438.85Z" transform="translate(-35.75 -10.35)"/><path class="cls-9" d="M160.92,209.24l-56.69,98.22V420.9h19.06l-8-113.44L168.2,213C170.16,208.75,163.47,205.47,160.92,209.24Z" transform="translate(-35.75 -10.35)"/><path class="cls-6" d="M35.75,450H476.07V431.75H35.75V450Z" transform="translate(-35.75 -10.35)"/><path class="cls-7" d="M180.58,420.9H81.34C74,420.9,65.16,432,72.49,432h114C193.81,432,187.91,420.9,180.58,420.9Z" transform="translate(-35.75 -10.35)"/><path class="cls-7" d="M109.75,299.78a7.9,7.9,0,1,0,7.9,7.9A7.9,7.9,0,0,0,109.75,299.78Z" transform="translate(-35.75 -10.35)"/><path class="cls-2" d="M109.75,303.78a3.9,3.9,0,1,0,3.9,3.9A3.9,3.9,0,0,0,109.75,303.78Z" transform="translate(-35.75 -10.35)"/><path class="cls-10" d="M168.36,417.51L148,414.12v6.78h20.4v-3.39Z" transform="translate(-35.75 -10.35)"/><path class="cls-2" d="M227.72,378.29H264.4a3.74,3.74,0,0,1,3.73,3.73v46a3.75,3.75,0,0,1-3.73,3.74H227.72A3.75,3.75,0,0,1,224,428V382A3.74,3.74,0,0,1,227.72,378.29Z" transform="translate(-35.75 -10.35)"/><path class="cls-11" d="M268.14,388.8h10.33c3.41,0,6.2,2.42,6.2,5.38v25.4c0,3-2.79,5.38-6.2,5.38H268.14v-4.28h10.33c0.58,0,1.86-.38,1.86-1.1v-25.4c0-.72-1.28-1.1-1.86-1.1H268.14V388.8Z" transform="translate(-35.75 -10.35)"/><path class="cls-11" d="M263.11,431.75V378.29h1.29a3.72,3.72,0,0,1,3.73,3.67v46.11a3.71,3.71,0,0,1-3.73,3.67h-1.29Z" transform="translate(-35.75 -10.35)"/><path class="cls-5" d="M238.58,403.33H249.7v9.88H238.58v-9.88Z" transform="translate(-35.75 -10.35)"/><path class="cls-4" d="M238.58,403.33H249.7l-0.62-2h-9.59Z" transform="translate(-35.75 -10.35)"/><path class="cls-7" d="M244.6,378.29v24c0,0.33-.77.34-0.78,0v-24h0.78Z" transform="translate(-35.75 -10.35)"/><path class="cls-3" d="M71,456.58h369.8V450H71v6.61Z" transform="translate(-35.75 -10.35)"/><path class="cls-2" d="M255.91,353.66a6.17,6.17,0,1,0-6.17-6.17A6.18,6.18,0,0,0,255.91,353.66Z" transform="translate(-35.75 -10.35)"/><path class="cls-5" d="M304.6,365.12H423.88v4c-5.65,7.2-4.71,15.21,0,21.2v4H304.6C286,394.38,286,365.12,304.6,365.12Z" transform="translate(-35.75 -10.35)"/><path class="cls-2" d="M423.88,390.35c-4.81-7.07-5.18-14.14,0-21.2H304.6a10.61,10.61,0,0,0,0,21.2H423.88Z" transform="translate(-35.75 -10.35)"/><path class="cls-11" d="M422.74,370.85q0.52-.85,1.14-1.71H304.6c-11.41,0-14.61,16.35-3.1,20.69-7.86-3.82-4.92-16.86,3.32-19H422.74Z" transform="translate(-35.75 -10.35)"/><path class="cls-11" d="M421.56,372.87H296.85a10.72,10.72,0,0,1,.73-0.8H422c-0.14.27-.28,0.53-0.4,0.8h0ZM295.8,374.38h0c-0.15.26-.29,0.53-0.41,0.8H420.67c0.08-.27.17-0.53,0.27-0.8H295.8Zm-1,2.31h0c-0.08.26-.15,0.53-0.2,0.8H420.15c0-.27.09-0.53,0.14-0.8H294.82ZM294.41,379h0c0,0.25,0,.5,0,0.75v0.05H420c0-.27,0-0.53,0-0.8H294.41Zm0.09,2.31h0c0,0.27.09,0.54,0.15,0.8H420.18c0-.27-0.08-0.53-0.1-0.8H294.5Zm0.6,2.31h0c0.1,0.27.22,0.54,0.34,0.8H420.72c-0.08-.26-0.16-0.53-0.23-0.8H295.1Zm1.22,2.31h0q0.29,0.42.61,0.8H421.62c-0.13-.26-0.25-0.53-0.36-0.8H296.32Zm2.19,2.31h0a10.23,10.23,0,0,0,1.2.8H422.94c-0.18-.26-0.34-0.53-0.51-0.8H298.51Z" transform="translate(-35.75 -10.35)"/><path class="cls-10" d="M434.11,394.38H295.74v5.14c6.55,9.2,5.47,19.43,0,27.09v5.14H434.11c21.62,0,21.62-37.37,0-37.37h0Z" transform="translate(-35.75 -10.35)"/><path class="cls-2" d="M295.74,426.61c5.59-9,6-18.06,0-27.09H434.11c6.51,0,11.85,6.11,11.85,13.55s-5.34,13.55-11.85,13.55H295.74Z" transform="translate(-35.75 -10.35)"/><path class="cls-11" d="M297.07,401.7q-0.6-1.09-1.33-2.18H434.11c13.24,0,16.95,20.89,3.6,26.44,9.11-4.89,5.71-21.54-3.85-24.26H297.07Z" transform="translate(-35.75 -10.35)"/><path class="cls-11" d="M298.44,404.28H443.1q-0.4-.54-0.85-1H298c0.17,0.34.32,0.68,0.47,1h0Zm145.87,1.93h0q0.26,0.5.48,1H299.47c-0.09-.34-0.2-0.68-0.31-1H444.31Zm1.14,3h0c0.09,0.34.17,0.68,0.23,1H300.07q-0.07-.51-0.16-1H445.45Zm0.48,3h0c0,0.31,0,.63,0,1v0.07H300.26q0-.51,0-1H445.93Zm-0.1,3h0q-0.07.52-.17,1H300c0-.34.09-0.68,0.12-1H445.83Zm-0.69,3h0c-0.12.35-.26,0.69-0.4,1H299.42c0.1-.34.18-0.68,0.26-1H445.13Zm-1.42,3h0q-0.34.53-.72,1H298.36q0.22-.51.41-1H443.71Zm-2.54,3h0a11.69,11.69,0,0,1-1.39,1H296.84c0.2-.34.4-0.68,0.59-1H441.18Z" transform="translate(-35.75 -10.35)"/><path class="cls-7" d="M413.09,335.82H321v4a20.2,20.2,0,0,1,0,21.2v4h92.1c14.39,0,14.39-29.25,0-29.25h0Z" transform="translate(-35.75 -10.35)"/><path class="cls-2" d="M321,361c3.72-7.07,4-14.14,0-21.2h92.11c4.33,0,7.88,4.78,7.88,10.6s-3.56,10.6-7.88,10.6H321Z" transform="translate(-35.75 -10.35)"/><path class="cls-11" d="M321.87,341.55q-0.4-.86-0.88-1.71h92.11c8.81,0,11.28,16.35,2.39,20.7,6.07-3.82,3.8-16.86-2.56-19H321.87Z" transform="translate(-35.75 -10.35)"/><path class="cls-11" d="M322.78,343.57h96.3c-0.18-.28-0.37-0.55-0.56-0.8h-96C322.58,343,322.68,343.3,322.78,343.57Zm97.1,1.51h0c0.12,0.26.22,0.53,0.32,0.8H323.47c-0.06-.27-0.13-0.53-0.2-0.8h96.62Zm0.76,2.31h0c0.06,0.26.11,0.53,0.15,0.8H323.87c0-.27-0.06-0.53-0.11-0.8h96.88ZM421,349.7h0c0,0.25,0,.5,0,0.75v0.05H324c0-.27,0-0.53,0-0.8h97ZM420.89,352h0c0,0.27-.07.54-0.11,0.8H323.85c0-.27.06-0.53,0.08-0.8h97Zm-0.46,2.31h0c-0.08.27-.17,0.54-0.26,0.8H323.43c0.06-.27.12-0.53,0.18-0.8h96.82Zm-0.94,2.31h0c-0.15.28-.31,0.55-0.47,0.8H322.73c0.1-.26.19-0.53,0.28-0.8h96.47Zm-1.69,2.31h0a8,8,0,0,1-.92.8H321.72c0.14-.26.26-0.53,0.39-0.8h95.69Z" transform="translate(-35.75 -10.35)"/><path class="cls-2" d="M164.14,209.55a2.38,2.38,0,1,0,2.38,2.38A2.38,2.38,0,0,0,164.14,209.55Z" transform="translate(-35.75 -10.35)"/><path class="cls-12" d="M470.59,124a20.07,20.07,0,0,1-20.05-20.05,6.68,6.68,0,1,0-13.37,0A20.07,20.07,0,0,1,417.12,124a6.68,6.68,0,1,0,0,13.37,20.07,20.07,0,0,1,20.05,20.05,6.68,6.68,0,1,0,13.37,0,20.07,20.07,0,0,1,20.05-20.05A6.68,6.68,0,1,0,470.59,124Z" transform="translate(-35.75 -10.35)"/><path class="cls-12" d="M109.68,124a20.07,20.07,0,0,1-20.05-20.05,6.68,6.68,0,0,0-13.37,0A20.07,20.07,0,0,1,56.21,124a6.68,6.68,0,1,0,0,13.37,20.07,20.07,0,0,1,20.05,20.05,6.68,6.68,0,1,0,13.37,0,20.07,20.07,0,0,1,20.05-20.05A6.68,6.68,0,1,0,109.68,124Z" transform="translate(-35.75 -10.35)"/><path class="cls-12" d="M296.82,43.77A26.76,26.76,0,0,1,270.08,17a6.68,6.68,0,0,0-13.37,0A26.76,26.76,0,0,1,230,43.77a6.68,6.68,0,1,0,0,13.37,26.76,26.76,0,0,1,26.73,26.73,6.68,6.68,0,0,0,13.37,0,26.76,26.76,0,0,1,26.73-26.73A6.68,6.68,0,1,0,296.82,43.77Z" transform="translate(-35.75 -10.35)"/></svg>