<svg id="Layer_1" data-name="Layer 1" xmlns="http://www.w3.org/2000/svg" width="482.44" height="386.11" viewBox="0 0 482.44 386.11"><defs><style>.cls-1,.cls-7{fill:#fff;}.cls-1{stroke:#000;stroke-miterlimit:10;}.cls-2{fill:#3a556a;}.cls-3{fill:#2f4859;}.cls-4{fill:#64798a;}.cls-5{fill:#fa6121;}.cls-6{fill:#bb4919;}.cls-8{fill:#8bc0ff;}.cls-9{fill:#466289;}.cls-10{fill:#233145;}.cls-11{fill:#dae0e7;}.cls-12{fill:#3897ff;}.cls-13{fill:#ffb739;}.cls-14{fill:#f67a21;}.cls-15{fill:#fb992d;}</style></defs><title>conservazione-ico</title><rect class="cls-1" x="26.5" y="6.88" width="428.86" height="265.39"/><path class="cls-2" d="M469.83,0H415l-2.41,24.09h42.77V272.27H26.5V24.1H436L435,0H12C5.37,0,0,4.83,0,10.85V312.63c0,6,5.42,10.84,12,10.84H470.44c6.63,0,12-4.82,12-10.84V10.85C481.88,5.43,476.46,0,469.83,0Z"/><ellipse class="cls-3" cx="240.94" cy="296.96" rx="18.67" ry="16.87"/><rect class="cls-3" x="148.18" y="324.07" width="184.92" height="35.54"/><polygon class="cls-4" points="333.7 359.61 148.18 359.61 333.7 324.07 333.7 359.61"/><path class="cls-2" d="M371,359H110.83c-4.82,0-9,3.61-9,8.43v18.67H380.69V367.44C380.69,362.62,376.47,359,371,359Z"/><g id="_Gruppo_" data-name="&lt;Gruppo&gt;"><polygon id="_Tracciato_" data-name="&lt;Tracciato&gt;" class="cls-5" points="97.98 24.1 26.5 24.1 26.5 272.21 97.98 272.21 102.77 156.72 97.98 24.1"/><ellipse id="_Tracciato_2" data-name="&lt;Tracciato&gt;" class="cls-6" cx="62.24" cy="242.11" rx="14.3" ry="15.05"/><polygon id="_Tracciato_3" data-name="&lt;Tracciato&gt;" class="cls-7" points="40.8 186.91 83.68 186.91 83.68 86.47 62.24 81.48 40.8 86.47 40.8 186.91"/><rect id="_Tracciato_4" data-name="&lt;Tracciato&gt;" class="cls-8" x="40.8" y="56.37" width="42.89" height="30.1"/><rect id="_Tracciato_5" data-name="&lt;Tracciato&gt;" class="cls-9" x="169.45" y="24.1" width="71.48" height="248.11"/><ellipse id="_Tracciato_6" data-name="&lt;Tracciato&gt;" class="cls-10" cx="205.19" cy="242.11" rx="14.3" ry="15.05"/><polygon id="_Tracciato_7" data-name="&lt;Tracciato&gt;" class="cls-11" points="183.75 186.91 226.63 186.91 226.63 86.47 205.19 81.48 183.75 86.47 183.75 186.91"/><rect id="_Tracciato_8" data-name="&lt;Tracciato&gt;" class="cls-12" x="183.75" y="56.37" width="42.89" height="30.1"/><polygon id="_Tracciato_9" data-name="&lt;Tracciato&gt;" class="cls-13" points="97.98 24.1 97.98 272.21 133.72 272.21 138.51 156.72 133.72 24.1 97.98 24.1"/><path id="_Tracciato_10" data-name="&lt;Tracciato&gt;" class="cls-14" d="M119.42,242.11c0,8.28,6.4,15,14.3,15l4.8-15-4.8-15C125.81,227.07,119.42,233.74,119.42,242.11Z"/><polygon id="_Tracciato_11" data-name="&lt;Tracciato&gt;" class="cls-7" points="112.27 86.47 112.27 186.91 133.72 186.91 138.51 136.69 133.72 86.47 122.99 81.48 112.27 86.47"/><rect id="_Tracciato_12" data-name="&lt;Tracciato&gt;" class="cls-15" x="133.71" y="24.1" width="35.74" height="248.11"/><path id="_Tracciato_13" data-name="&lt;Tracciato&gt;" class="cls-6" d="M148,242.11c0-8.28-6.4-15-14.3-15v30.1C141.62,257.16,148,250.39,148,242.11Z"/><polygon id="_Tracciato_14" data-name="&lt;Tracciato&gt;" class="cls-11" points="133.72 186.91 155.16 186.91 155.16 86.47 144.44 81.48 133.72 86.47 133.72 186.91"/><polygon id="_Tracciato_15" data-name="&lt;Tracciato&gt;" class="cls-8" points="133.72 56.37 112.27 56.37 112.27 86.47 133.72 86.47 138.51 71.42 133.72 56.37"/><rect id="_Tracciato_16" data-name="&lt;Tracciato&gt;" class="cls-12" x="133.71" y="56.37" width="21.44" height="30.1"/></g><g id="_Gruppo_2" data-name="&lt;Gruppo&gt;"><polygon id="_Tracciato_17" data-name="&lt;Tracciato&gt;" class="cls-5" points="312.41 24.1 240.93 24.1 240.93 272.21 312.41 272.21 317.2 156.72 312.41 24.1"/><ellipse id="_Tracciato_18" data-name="&lt;Tracciato&gt;" class="cls-6" cx="276.67" cy="242.11" rx="14.3" ry="15.05"/><polygon id="_Tracciato_19" data-name="&lt;Tracciato&gt;" class="cls-7" points="255.22 186.91 298.11 186.91 298.11 86.47 276.67 81.48 255.22 86.47 255.22 186.91"/><rect id="_Tracciato_20" data-name="&lt;Tracciato&gt;" class="cls-8" x="255.23" y="56.37" width="42.89" height="30.1"/><rect id="_Tracciato_21" data-name="&lt;Tracciato&gt;" class="cls-9" x="383.88" y="24.1" width="71.48" height="248.11"/><ellipse id="_Tracciato_22" data-name="&lt;Tracciato&gt;" class="cls-10" cx="419.62" cy="242.11" rx="14.3" ry="15.05"/><polygon id="_Tracciato_23" data-name="&lt;Tracciato&gt;" class="cls-11" points="398.18 186.91 441.06 186.91 441.06 86.47 419.62 81.48 398.18 86.47 398.18 186.91"/><rect id="_Tracciato_24" data-name="&lt;Tracciato&gt;" class="cls-12" x="398.18" y="56.37" width="42.89" height="30.1"/><polygon id="_Tracciato_25" data-name="&lt;Tracciato&gt;" class="cls-13" points="312.41 24.1 312.41 272.21 348.14 272.21 352.94 156.72 348.14 24.1 312.41 24.1"/><path id="_Tracciato_26" data-name="&lt;Tracciato&gt;" class="cls-14" d="M333.85,242.11c0,8.28,6.4,15,14.3,15l4.8-15-4.8-15C340.24,227.07,333.85,233.74,333.85,242.11Z"/><polygon id="_Tracciato_27" data-name="&lt;Tracciato&gt;" class="cls-7" points="326.7 86.47 326.7 186.91 348.14 186.91 352.94 136.69 348.14 86.47 337.42 81.48 326.7 86.47"/><rect id="_Tracciato_28" data-name="&lt;Tracciato&gt;" class="cls-15" x="348.14" y="24.1" width="35.74" height="248.11"/><path id="_Tracciato_29" data-name="&lt;Tracciato&gt;" class="cls-6" d="M362.44,242.11c0-8.28-6.4-15-14.3-15v30.1C356,257.16,362.44,250.39,362.44,242.11Z"/><polygon id="_Tracciato_30" data-name="&lt;Tracciato&gt;" class="cls-11" points="348.14 186.91 369.59 186.91 369.59 86.47 358.87 81.48 348.14 86.47 348.14 186.91"/><polygon id="_Tracciato_31" data-name="&lt;Tracciato&gt;" class="cls-8" points="348.14 56.37 326.7 56.37 326.7 86.47 348.14 86.47 352.94 71.42 348.14 56.37"/><rect id="_Tracciato_32" data-name="&lt;Tracciato&gt;" class="cls-12" x="348.14" y="56.37" width="21.44" height="30.1"/></g></svg>