<?xml version="1.0" encoding="utf-8"?>
<!-- Generator: Adobe Illustrator 19.2.1, SVG Export Plug-In . SVG Version: 6.00 Build 0)  -->
<svg version="1.1" id="Layer_1" xmlns="http://www.w3.org/2000/svg" xmlns:xlink="http://www.w3.org/1999/xlink" x="0px" y="0px"
	 viewBox="0 0 482.5 386.1" style="enable-background:new 0 0 482.5 386.1;" xml:space="preserve">
<style type="text/css">
	.st0{fill:#FFFFFF;stroke:#000000;stroke-miterlimit:10;}
	.st1{fill:#3A556A;}
	.st2{fill:#2F4859;}
	.st3{fill:#64798A;}
	.st4{fill:#4ACFD9;}
	.st5{fill:#FF9900;}
	.st6{fill:#FAD52A;}
	.st7{fill:#219B9E;}
	.st8{fill:#FFEA5E;}
</style>
<rect x="26.5" y="24.1" class="st0" width="428.9" height="248.2"/>
<title>fatturazione-ico</title>
<path class="st1" d="M469.8,0H415l-2.4,24.1h42.8v248.2H26.5V24.1H436L435,0H12C5.4,0,0,4.8,0,10.8v301.8c0,6,5.4,10.8,12,10.8
	h458.4c6.6,0,12-4.8,12-10.8V10.8C481.9,5.4,476.5,0,469.8,0z"/>
<ellipse class="st2" cx="240.9" cy="297" rx="18.7" ry="16.9"/>
<rect x="148.2" y="324.1" class="st2" width="184.9" height="35.5"/>
<polygon class="st3" points="333.7,359.6 148.2,359.6 333.7,324.1 "/>
<path class="st1" d="M371,359H110.8c-4.8,0-9,3.6-9,8.4v18.7h278.9v-18.7C380.7,362.6,376.5,359,371,359z"/>
<path class="st4" d="M185,125.2h-82.3c-4.1,0-7.4-3.3-7.4-7.4c0-4.1,3.3-7.4,7.4-7.4H185c4.1,0,7.4,3.3,7.4,7.4
	C192.4,121.9,189.1,125.2,185,125.2L185,125.2z"/>
<path class="st4" d="M185,153.8h-41.2c-4.1,0-7.4-3.3-7.4-7.4s3.3-7.4,7.4-7.4H185c4.1,0,7.4,3.3,7.4,7.4S189.1,153.8,185,153.8
	L185,153.8z"/>
<path class="st5" d="M358.3,69.8H208.1c-14.2,0-25.8,11.6-25.8,25.8V192c0,14.2,11.6,25.8,25.8,25.8h150.2
	c14.2,0,25.8-11.6,25.8-25.8V95.6C384.1,81.4,372.5,69.9,358.3,69.8z"/>
<path class="st6" d="M283.2,69.8h-75.1c-14.2,0-25.8,11.6-25.8,25.8V192c0,14.2,11.6,25.8,25.8,25.8h75.1V69.8L283.2,69.8z"/>
<path class="st7" d="M224.9,182.4h-55c-4.1,0-7.4-3.3-7.4-7.4c0-4.1,3.3-7.4,7.4-7.4h55c4.1,0,7.4,3.3,7.4,7.4
	S229,182.4,224.9,182.4C224.9,182.4,224.9,182.4,224.9,182.4z"/>
<path class="st4" d="M197.4,182.4H170c-4.1,0-7.4-3.3-7.4-7.4s3.3-7.4,7.4-7.4c0,0,0,0,0,0h27.5
	C197.4,167.6,197.4,182.4,197.4,182.4z"/>
<path class="st6" d="M300.6,150.4l82.8-60.8c-2.8-11.6-13.2-19.8-25.1-19.8H208.1c-11.9,0-22.3,8.2-25.1,19.8l82.8,60.8
	C276.2,157.9,290.2,157.9,300.6,150.4z"/>
<path class="st8" d="M283.2,69.8h-75.1c-11.9,0-22.3,8.2-25.1,19.8l82.8,60.8c5,3.7,11.1,5.7,17.4,5.7L283.2,69.8L283.2,69.8z"/>
</svg>
