<?xml version="1.0" encoding="utf-8"?>
<!-- Generator: Adobe Illustrator 19.2.1, SVG Export Plug-In . SVG Version: 6.00 Build 0)  -->
<svg version="1.1" id="Livello_1" xmlns="http://www.w3.org/2000/svg" xmlns:xlink="http://www.w3.org/1999/xlink" x="0px" y="0px"
	 viewBox="0 0 783.4 277.1" style="enable-background:new 0 0 783.4 277.1;" xml:space="preserve">
<style type="text/css">
	.st0{fill:#E94D58;}
	.st1{fill:#F5B527;}
	.st2{fill:#84BD57;}
	.st3{fill:#3A89B0;}
	.st4{opacity:0.35;fill:#1D1D1B;}
	.st5{opacity:0.8;fill:url(#SVGID_1_);}
	.st6{opacity:0.8;fill:url(#SVGID_2_);}
	.st7{opacity:0.8;fill:url(#SVGID_3_);}
	.st8{opacity:0.62;fill:url(#SVGID_4_);}
	.st9{opacity:0.62;fill:url(#SVGID_5_);}
	.st10{opacity:0.62;fill:url(#SVGID_6_);}
</style>
<g>
	<g>
		<circle class="st0" cx="239.9" cy="19.4" r="11.8"/>
		<circle class="st1" cx="274" cy="19.4" r="11.8"/>
		<circle class="st2" cx="308.1" cy="19.4" r="11.8"/>
		<path class="st3" d="M251.8,87.7h-87.9c-0.2,0-0.5-0.2-0.5-0.5v-7.7c0-0.2,0.2-0.5,0.5-0.5h87.9c0.2,0,0.5,0.2,0.5,0.5v7.7
			C252.3,87.5,252.1,87.7,251.8,87.7z"/>
		<path class="st3" d="M251.8,113.4H75.1c-0.2,0-0.5-0.2-0.5-0.5v-7.7c0-0.2,0.2-0.5,0.5-0.5h176.7c0.2,0,0.5,0.2,0.5,0.5v7.7
			C252.3,113.2,252.1,113.4,251.8,113.4z"/>
		<path class="st3" d="M251.8,139.1H75.1c-0.2,0-0.5-0.2-0.5-0.5V131c0-0.2,0.2-0.5,0.5-0.5h176.7c0.2,0,0.5,0.2,0.5,0.5v7.7
			C252.3,138.9,252.1,139.1,251.8,139.1z"/>
		<path class="st3" d="M162.7,164.5H75.1c-0.2,0-0.5-0.2-0.5-0.5v-7.7c0-0.2,0.2-0.5,0.5-0.5h87.7c0.2,0,0.5,0.2,0.5,0.5v7.7
			C163.2,164.3,163,164.5,162.7,164.5z"/>
		<rect x="1.1" y="58.8" class="st4" width="25.6" height="7.9"/>
		
			<rect x="43.4" y="16.5" transform="matrix(4.476223e-011 1 -1 4.476223e-011 76.6943 -35.7618)" class="st4" width="25.6" height="7.9"/>
		<path class="st3" d="M52.3,33.3h119.4l34.1-25.6H36.4c-0.7,0-1.4,0.3-1.9,0.8L1.9,41c-0.5,0.5-0.8,1.2-0.8,1.9l0,168.4
			c0,10,8.1,18.1,18.1,18.1h118.4v43l68.2-43h101.3c10,0,18.1-8.1,18.1-18.1V71.6c0-7.1-5.7-12.8-12.8-12.8h0
			c-7.1,0-12.8,5.7-12.8,12.8l0,132.2H26.7v-145h25.6L52.3,33.3"/>
		<linearGradient id="SVGID_1_" gradientUnits="userSpaceOnUse" x1="68.8275" y1="20.4662" x2="51.8589" y2="20.4662">
			<stop  offset="0" style="stop-color:#3A89B0;stop-opacity:0"/>
			<stop  offset="1" style="stop-color:#166A90"/>
		</linearGradient>
		<rect x="52.3" y="7.7" class="st5" width="12" height="25.6"/>
		<linearGradient id="SVGID_2_" gradientUnits="userSpaceOnUse" x1="13.9128" y1="73.8532" x2="13.9128" y2="59.3251">
			<stop  offset="0" style="stop-color:#3A89B0;stop-opacity:0"/>
			<stop  offset="1" style="stop-color:#166A90"/>
		</linearGradient>
		<polygon class="st6" points="26.7,70.8 26.7,58.8 1.1,58.8 1.1,70.8 		"/>
		<linearGradient id="SVGID_3_" gradientUnits="userSpaceOnUse" x1="171.6568" y1="241.163" x2="171.6568" y2="229.4461">
			<stop  offset="0" style="stop-color:#3A89B0;stop-opacity:0"/>
			<stop  offset="1" style="stop-color:#166A90"/>
		</linearGradient>
		<polygon class="st7" points="137.6,241.3 186.8,241.3 205.8,229.4 137.6,229.4 		"/>
		
			<linearGradient id="SVGID_4_" gradientUnits="userSpaceOnUse" x1="226.6621" y1="77.3549" x2="226.2418" y2="72.1012" gradientTransform="matrix(0.7559 0.6547 -0.6547 0.7559 122.2916 -191.3176)">
			<stop  offset="0" style="stop-color:#D7E1EF;stop-opacity:0"/>
			<stop  offset="1" style="stop-color:#D7E1EF"/>
		</linearGradient>
		<path class="st8" d="M248.1,16.5c-1,1.1-3.4,0.7-5.3-1s-2.7-4-1.8-5.1c1-1.1,3.4-0.7,5.3,1S249,15.4,248.1,16.5z"/>
		
			<linearGradient id="SVGID_5_" gradientUnits="userSpaceOnUse" x1="252.2517" y1="55.1932" x2="251.8314" y2="49.9394" gradientTransform="matrix(0.7559 0.6547 -0.6547 0.7559 122.2916 -191.3176)">
			<stop  offset="0" style="stop-color:#D7E1EF;stop-opacity:0"/>
			<stop  offset="1" style="stop-color:#D7E1EF"/>
		</linearGradient>
		<path class="st9" d="M281.9,16.5c-1,1.1-3.4,0.7-5.3-1s-2.7-4-1.8-5.1s3.4-0.7,5.3,1S282.9,15.4,281.9,16.5z"/>
		
			<linearGradient id="SVGID_6_" gradientUnits="userSpaceOnUse" x1="277.8414" y1="33.0314" x2="277.4211" y2="27.7777" gradientTransform="matrix(0.7559 0.6547 -0.6547 0.7559 122.2916 -191.3176)">
			<stop  offset="0" style="stop-color:#D7E1EF;stop-opacity:0"/>
			<stop  offset="1" style="stop-color:#D7E1EF"/>
		</linearGradient>
		<path class="st10" d="M315.8,16.5c-1,1.1-3.4,0.7-5.3-1s-2.7-4-1.8-5.1c1-1.1,3.4-0.7,5.3,1S316.7,15.4,315.8,16.5z"/>
	</g>
	<g>
		<path class="st3" d="M385.5,67.9V8.1h15.2c5.1,0,11.2,0.2,15.8,2.8c5.4,3.2,6.3,9,6.3,14.8v26.6c-0.1,6-1.9,10.4-6,12.9
			c-3.7,2.4-8.1,2.8-12.4,2.8H385.5z M399.5,57.1c9.4,0.6,9.5-3.2,9.3-11.2V26.4c-0.1-7-2.4-7.4-9.3-7.6V57.1z"/>
		<path class="st3" d="M430.2,67.9V8.1h14v59.8H430.2z"/>
		<path class="st3" d="M479.6,68l-0.6-5.3h-0.2c-2.9,5.1-6.1,6.7-12.1,6.7c-11.9,0-15.7-8.2-15.7-19.1V25.7c0-13,6-19.1,18.8-19.1
			c12,0,19.1,5.1,19.1,17.3v4.5h-14v-3.3c0-5.1-0.6-7.7-4.4-7.7c-4.4-0.1-5.4,2.3-5.4,6.2v29.6c0,3.4,1.5,5.3,5.2,5.3
			c4.8,0,4.9-3.8,4.9-7.7v-4.7h-5V35.4h19.1V68H479.6z"/>
		<path class="st3" d="M496.7,67.9V8.1h14v59.8H496.7z"/>
		<path class="st3" d="M516.6,8.1H553v12h-11.3v47.9h-14V20.1h-11V8.1z"/>
		<path class="st3" d="M551.1,67.9l13.1-59.8H581l13,59.8h-14.2l-2-11.6h-11l-1.7,11.6H551.1z M572.6,18.9h-0.2l-4.1,26.8h8.1
			L572.6,18.9z"/>
		<path class="st3" d="M597.6,67.9V8.1h14v47.9h17.2v12H597.6z"/>
		<path class="st3" d="M385.5,147.7V87.8h15.2c5.1,0,11.2,0.2,15.8,2.8c5.4,3.2,6.3,9,6.3,14.8V132c-0.1,6-1.9,10.4-6,12.9
			c-3.7,2.4-8.1,2.8-12.4,2.8H385.5z M399.5,136.9c9.4,0.6,9.5-3.2,9.3-11.2v-19.5c-0.1-7-2.4-7.4-9.3-7.6V136.9z"/>
		<path class="st3" d="M467.4,128.6c0,13.5-4.7,20.5-18.9,20.5c-14.2,0-19.1-7-19.1-20.5v-24.3c0-11.5,6.9-17.9,19.1-17.9
			s18.9,6.4,18.9,17.9V128.6z M453.4,105.2c0-3.7-0.3-8.1-4.9-8.1c-4.5,0-5,4.4-5,8.1v24.6c0,3.4,0.6,8.5,5.1,8.5s4.9-5.1,4.9-8.5
			V105.2z"/>
		<path class="st3" d="M497.5,108.7v-3.8c0-5.1-1.8-7.7-4.5-7.7c-4.4-0.1-5.4,2.3-5.4,6.2l-0.1,29.6c0,3.4,1.4,5.3,5,5.3
			c4.8,0,5.2-4.9,5.2-8.6v-5.4h14v7.3c0,10.3-5.9,17.5-20.3,17.5c-12.9,0-17.9-6.9-17.9-19.1v-24.6c0-13,6-19.1,18.8-19.1
			c12,0,19.1,5.1,19.1,17.3v5H497.5z"/>
		<path class="st3" d="M518.2,87.8h14V133c0,2.9,0.9,5.3,4.9,5.3c3.7,0,4.8-3.2,4.8-5.7V87.8h14v43.3c0,10.1-4.5,17.9-18.9,17.9
			c-11.9,0-18.8-5.7-18.8-17.9V87.8z"/>
		<path class="st3" d="M563.1,147.7V87.8h19.8l7.3,35.3h0.2l7.5-35.3h19.6v59.8H604l1.4-46.9h-0.2l-9.9,46.9H585l-9.7-46.9h-0.2
			l1.3,46.9H563.1z"/>
		<path class="st3" d="M624.9,147.7V87.8h32.1v12H639v11h17.5v12H639v12.9H658v12H624.9z"/>
		<path class="st3" d="M676.8,114.2l-0.2,0.2l1.3,33.3h-13.3V87.8H679l10.8,33.4h0.2l-1.4-33.4H702v59.8h-14.4L676.8,114.2z"/>
		<path class="st3" d="M707.2,87.8h36.4v12h-11.3v47.9h-14V99.8h-11V87.8z"/>
		<path class="st3" d="M759.6,127.6v4.2c0,3.4,1.1,6.5,5.6,6.5c3.3,0,4.7-3,4.7-6c0-5-4.1-6.9-7.8-9.2c-4.3-2.5-8-4.8-10.6-7.8
			c-2.6-3-4.1-6.7-4.1-12c0-11.2,6.8-17,17.6-17c12.2,0,18.4,8.1,17.8,19.4h-12.9c-0.2-3.5,0-8.3-4.6-8.6c-2.9-0.2-4.5,1.4-4.9,4
			c-0.4,3.6,1.4,5.4,4.2,7.3c5.3,3.4,9.8,5.4,13.1,8.5c3.3,3,5.2,7,5.2,14.3c0,11.5-6.4,17.9-18,17.9c-12.8,0-18.3-7.2-18.3-15.1
			v-6.4H759.6z"/>
		<path class="st3" d="M396.1,207.4v4.2c0,3.4,1.1,6.5,5.6,6.5c3.3,0,4.7-3,4.7-6c0-5-4.1-6.9-7.8-9.2c-4.3-2.5-8-4.8-10.6-7.8
			c-2.6-3-4.1-6.7-4.1-12c0-11.2,6.8-17,17.6-17c12.2,0,18.4,8.1,17.8,19.4h-12.9c-0.2-3.5,0-8.3-4.6-8.6c-2.9-0.2-4.5,1.4-4.9,4
			c-0.4,3.6,1.4,5.4,4.2,7.3c5.3,3.4,9.8,5.4,13.1,8.5c3.3,3,5.2,7,5.2,14.3c0,11.5-6.4,17.9-18,17.9c-12.8,0-18.3-7.2-18.3-15.1
			v-6.4H396.1z"/>
		<path class="st3" d="M462.9,208.4c0,13.5-4.7,20.5-18.9,20.5s-19.1-7-19.1-20.5V184c0-11.5,6.9-17.9,19.1-17.9
			c12.3,0,18.9,6.4,18.9,17.9V208.4z M448.9,185c0-3.7-0.3-8.1-4.9-8.1c-4.5,0-5,4.4-5,8.1v24.6c0,3.4,0.6,8.5,5.1,8.5
			c4.5,0,4.9-5.1,4.9-8.5V185z"/>
		<path class="st3" d="M469,227.4v-59.8h14v47.9h17.2v12H469z"/>
		<path class="st3" d="M504.8,167.6h14v45.1c0,2.9,0.9,5.3,4.9,5.3c3.7,0,4.8-3.2,4.8-5.7v-44.7h14v43.3c0,10.1-4.5,17.9-18.9,17.9
			c-11.9,0-18.8-5.7-18.8-17.9V167.6z"/>
		<path class="st3" d="M547.5,167.6h36.4v12h-11.3v47.9h-14v-47.9h-11V167.6z"/>
		<path class="st3" d="M589.7,227.4v-59.8h14v59.8H589.7z"/>
		<path class="st3" d="M649.1,208.4c0,13.5-4.7,20.5-18.9,20.5s-19.1-7-19.1-20.5V184c0-11.5,6.9-17.9,19.1-17.9s18.9,6.4,18.9,17.9
			V208.4z M635,185c0-3.7-0.3-8.1-4.9-8.1c-4.5,0-5,4.4-5,8.1v24.6c0,3.4,0.6,8.5,5.1,8.5s4.9-5.1,4.9-8.5V185z"/>
		<path class="st3" d="M667.8,193.9l-0.2,0.2l1.3,33.3h-13.3v-59.8h14.4l10.8,33.4h0.2l-1.4-33.4h13.3v59.8h-14.4L667.8,193.9z"/>
	</g>
</g>
</svg>
