<?xml version="1.0" encoding="iso-8859-1"?>
<!-- Generator: Adobe Illustrator 19.0.0, SVG Export Plug-In . SVG Version: 6.00 Build 0)  -->
<svg version="1.1" id="Layer_1" xmlns="http://www.w3.org/2000/svg" xmlns:xlink="http://www.w3.org/1999/xlink" x="0px" y="0px"
	 viewBox="0 0 512 512" style="enable-background:new 0 0 512 512;" xml:space="preserve">
<path style="fill:#FFDE33;" d="M330.937,391.997H180.933c-8.291,0-15-6.709-15-15v-34.11c0-4.424-2.52-8.555-6.885-11.367
	c-62.082-39.64-93.43-112.649-79.865-186.04C92.308,75.516,147.768,18.649,217.145,3.913C271.493-7.308,327.07,5.846,369.376,40.271
	c42.306,34.396,66.565,85.315,66.565,139.721c0,60.998-30.587,117.396-81.799,150.883c-5.273,3.34-8.203,8.115-8.203,13.213v32.909
	C345.937,385.288,339.228,391.997,330.937,391.997z"/>
<path style="fill:#FFBC33;" d="M369.376,40.271C337.134,14.049,297.172,0.25,255.935,0.104v391.893h75.002c8.291,0,15-6.709,15-15
	v-32.909c0-5.098,2.93-9.873,8.203-13.213c51.212-33.487,81.799-89.885,81.799-150.883
	C435.94,125.586,411.681,74.667,369.376,40.271z"/>
<path style="fill:#C4CAD9;" d="M255.935,512c-33.077,0-60.002-26.925-60.002-60.002v-15c0-8.291,6.709-15,15-15h90.002
	c8.291,0,15,6.709,15,15v15C315.937,485.075,289.012,512,255.935,512z"/>
<path style="fill:#B8BFCC;" d="M300.936,421.998h-45.001V512c33.077,0,60.002-26.925,60.002-60.002v-15
	C315.937,428.707,309.228,421.998,300.936,421.998z"/>
<path style="fill:#995D5C;" d="M311.543,214.386c-5.859-5.859-15.352-5.859-21.212,0l-34.396,34.396l-34.396-34.396
	c-5.859-5.859-15.352-5.859-21.212,0c-5.859,5.859-5.859,15.352,0,21.212l40.606,40.606v100.792c0,8.291,6.709,15,15,15
	c8.291,0,15-6.709,15-15V276.205l40.606-40.606C317.402,229.739,317.402,220.246,311.543,214.386z"/>
<path style="fill:#994D4D;" d="M270.936,376.996V276.205l40.606-40.606c5.859-5.859,5.859-15.352,0-21.212
	c-5.859-5.859-15.352-5.859-21.212,0l-34.396,34.396v143.215C264.226,391.997,270.936,385.288,270.936,376.996z"/>
<g>
	<path style="fill:#DAE2F2;" d="M300.936,451.998h-90.002c-24.854,0-45.001-20.148-45.001-45.001v-45.001h180.005v45.001
		C345.937,431.851,325.79,451.998,300.936,451.998z"/>
	<path style="fill:#DAE2F2;" d="M255.935,451.998h45.001c24.852,0,45.001-20.157,45.001-45.001v-45.001h-90.002L255.935,451.998
		L255.935,451.998z"/>
</g>
<g>
</g>
<g>
</g>
<g>
</g>
<g>
</g>
<g>
</g>
<g>
</g>
<g>
</g>
<g>
</g>
<g>
</g>
<g>
</g>
<g>
</g>
<g>
</g>
<g>
</g>
<g>
</g>
<g>
</g>
</svg>
