<?xml version="1.0" encoding="utf-8"?>
<!-- Generator: Adobe Illustrator 19.2.1, SVG Export Plug-In . SVG Version: 6.00 Build 0)  -->
<svg version="1.1" id="Layer_1" xmlns="http://www.w3.org/2000/svg" xmlns:xlink="http://www.w3.org/1999/xlink" x="0px" y="0px"
	 viewBox="0 0 495 495" style="enable-background:new 0 0 495 495;" xml:space="preserve">
<style type="text/css">
	.st0{fill:#3F8299;}
	.st1{fill:#539AB9;}
	.st2{fill:#EF494F;}
</style>
<path class="st0" d="M89.8,366.9V257.1c-30.3,0-54.9,24.6-54.9,54.9S59.5,366.9,89.8,366.9z"/>
<path class="st1" d="M89.8,385C40.3,385,0,425.3,0,474.8v20h179.6v-20C179.6,425.3,139.3,385,89.8,385z"/>
<path class="st0" d="M405.2,366.9V257.1c-30.3,0-54.9,24.6-54.9,54.9S374.9,366.9,405.2,366.9z"/>
<path class="st1" d="M405.2,385c-49.5,0-89.8,40.3-89.8,89.8v20H495v-20C495,425.3,454.7,385,405.2,385z"/>
<path class="st0" d="M247.5,110V0.2c-30.3,0-54.9,24.6-54.9,54.9S217.2,110,247.5,110z"/>
<path class="st1" d="M144.7,312c0-30.3-24.6-54.9-54.9-54.9v109.8C120.1,366.9,144.7,342.2,144.7,312z"/>
<path class="st1" d="M460.1,312c0-30.3-24.6-54.9-54.9-54.9v109.8C435.5,366.9,460.1,342.2,460.1,312z"/>
<path class="st1" d="M302.4,55.1c0-30.3-24.6-54.9-54.9-54.9V110C277.8,110,302.4,85.3,302.4,55.1z"/>
<path class="st1" d="M337.3,217.9c0-49.5-40.3-89.8-89.8-89.8s-89.8,40.3-89.8,89.8v20h179.6L337.3,217.9L337.3,217.9z"/>
<polygon class="st2" points="267.5,333.1 267.5,267.8 227.5,267.8 227.5,333.1 171,365.7 191,400.3 247.5,367.7 304,400.3 
	324,365.7 "/>
</svg>
