<svg xmlns="http://www.w3.org/2000/svg" xmlns:xlink="http://www.w3.org/1999/xlink" width="426.14" height="479.07" viewBox="0 0 426.14 479.07"><defs><style>.cls-1{fill:none;}.cls-2{isolation:isolate;}.cls-3{mix-blend-mode:multiply;}.cls-4{fill:#85c6da;}.cls-5{mix-blend-mode:overlay;}.cls-6{fill:url(#radial-gradient);}.cls-7{fill:url(#radial-gradient-2);}.cls-8{fill:url(#radial-gradient-3);}.cls-10,.cls-9{opacity:0.26;}.cls-10,.cls-14,.cls-18,.cls-22,.cls-26,.cls-30,.cls-34,.cls-38,.cls-42,.cls-9{mix-blend-mode:color-dodge;}.cls-9{fill:url(#linear-gradient);}.cls-10{fill:url(#linear-gradient-2);}.cls-11{fill:url(#radial-gradient-4);}.cls-12{fill:url(#radial-gradient-5);}.cls-13{fill:url(#radial-gradient-6);}.cls-14,.cls-18,.cls-22,.cls-26,.cls-30,.cls-34,.cls-38,.cls-42{opacity:0.33;}.cls-14{fill:url(#linear-gradient-3);}.cls-15{fill:url(#radial-gradient-7);}.cls-16{fill:url(#radial-gradient-8);}.cls-17{fill:url(#radial-gradient-9);}.cls-18{fill:url(#linear-gradient-4);}.cls-19{fill:url(#radial-gradient-10);}.cls-20{fill:url(#radial-gradient-11);}.cls-21{fill:url(#radial-gradient-12);}.cls-22{fill:url(#linear-gradient-5);}.cls-23{fill:url(#radial-gradient-13);}.cls-24{fill:url(#radial-gradient-14);}.cls-25{fill:url(#radial-gradient-15);}.cls-26{fill:url(#linear-gradient-6);}.cls-27{fill:url(#radial-gradient-16);}.cls-28{fill:url(#radial-gradient-17);}.cls-29{fill:url(#radial-gradient-18);}.cls-30{fill:url(#linear-gradient-7);}.cls-31{fill:url(#radial-gradient-19);}.cls-32{fill:url(#radial-gradient-20);}.cls-33{fill:url(#radial-gradient-21);}.cls-34{fill:url(#linear-gradient-8);}.cls-35{fill:url(#radial-gradient-22);}.cls-36{fill:url(#radial-gradient-23);}.cls-37{fill:url(#radial-gradient-24);}.cls-38{fill:url(#linear-gradient-9);}.cls-39{fill:url(#radial-gradient-25);}.cls-40{fill:url(#radial-gradient-26);}.cls-41{fill:url(#radial-gradient-27);}.cls-42{fill:url(#linear-gradient-10);}.cls-43{opacity:0.55;}.cls-44{clip-path:url(#clip-path);}.cls-45{fill:#fff;}.cls-46{clip-path:url(#clip-path-2);}.cls-47{clip-path:url(#clip-path-3);}.cls-48{clip-path:url(#clip-path-4);}.cls-49{clip-path:url(#clip-path-5);}.cls-50{clip-path:url(#clip-path-6);}.cls-51{clip-path:url(#clip-path-7);}.cls-52{clip-path:url(#clip-path-8);}.cls-53{clip-path:url(#clip-path-9);}.cls-54{clip-path:url(#clip-path-10);}.cls-55{clip-path:url(#clip-path-11);}.cls-56{clip-path:url(#clip-path-13);}.cls-57{clip-path:url(#clip-path-14);}</style><radialGradient id="radial-gradient" cx="327.58" cy="433.18" r="49.81" gradientTransform="translate(-157.97 155.75) scale(1.13 0.47)" gradientUnits="userSpaceOnUse"><stop offset="0" stop-color="#e9fdfe"/><stop offset="1" stop-color="#e9fdfe" stop-opacity="0"/></radialGradient><radialGradient id="radial-gradient-2" cx="327.58" cy="433.18" r="29.3" xlink:href="#radial-gradient"/><radialGradient id="radial-gradient-3" cx="327.58" cy="433.18" r="17.83" xlink:href="#radial-gradient"/><linearGradient id="linear-gradient" x1="247.7" y1="37.56" x2="247.7" y2="364.43" gradientUnits="userSpaceOnUse"><stop offset="0" stop-color="#85c6da" stop-opacity="0"/><stop offset="0.02" stop-color="#85c6da" stop-opacity="0.02"/><stop offset="0.51" stop-color="#85c6da" stop-opacity="0.54"/><stop offset="0.84" stop-color="#85c6da" stop-opacity="0.87"/><stop offset="1" stop-color="#85c6da"/></linearGradient><linearGradient id="linear-gradient-2" x1="247.7" y1="22.04" x2="247.7" y2="371.7" gradientUnits="userSpaceOnUse"><stop offset="0" stop-color="#85c6da" stop-opacity="0"/><stop offset="0.21" stop-color="#85c6da" stop-opacity="0.26"/><stop offset="0.49" stop-color="#85c6da" stop-opacity="0.57"/><stop offset="0.72" stop-color="#85c6da" stop-opacity="0.8"/><stop offset="0.9" stop-color="#85c6da" stop-opacity="0.95"/><stop offset="1" stop-color="#85c6da"/></linearGradient><radialGradient id="radial-gradient-4" cx="333.96" cy="488.58" r="4.68" gradientTransform="translate(-150.03 155.75) scale(1.13 0.47)" xlink:href="#radial-gradient"/><radialGradient id="radial-gradient-5" cx="333.96" cy="488.58" r="2.75" gradientTransform="translate(-150.03 155.75) scale(1.13 0.47)" xlink:href="#radial-gradient"/><radialGradient id="radial-gradient-6" cx="333.96" cy="488.58" r="1.67" gradientTransform="translate(-150.03 155.75) scale(1.13 0.47)" xlink:href="#radial-gradient"/><linearGradient id="linear-gradient-3" x1="260.6" y1="157.05" x2="260.6" y2="403.09" gradientUnits="userSpaceOnUse"><stop offset="0" stop-color="#85c6da" stop-opacity="0"/><stop offset="0.65" stop-color="#9191b7"/><stop offset="0.96" stop-color="#85c6da"/></linearGradient><radialGradient id="radial-gradient-7" cx="283.64" cy="471.82" r="4.68" gradientTransform="matrix(1.13, 0, 0.05, 0.46, -137.64, 167.64)" xlink:href="#radial-gradient"/><radialGradient id="radial-gradient-8" cx="283.64" cy="471.82" r="2.75" gradientTransform="matrix(1.13, 0, 0.05, 0.46, -137.64, 167.64)" xlink:href="#radial-gradient"/><radialGradient id="radial-gradient-9" cx="283.64" cy="471.82" r="1.67" gradientTransform="matrix(1.13, 0, 0.05, 0.46, -137.64, 167.64)" xlink:href="#radial-gradient"/><linearGradient id="linear-gradient-4" x1="203.99" y1="149.49" x2="203.99" y2="395.54" gradientTransform="matrix(1, 0, 0.1, 0.99, -39.01, 4.96)" gradientUnits="userSpaceOnUse"><stop offset="0" stop-color="#85c6da" stop-opacity="0"/><stop offset="0.96" stop-color="#85c6da"/></linearGradient><radialGradient id="radial-gradient-10" cx="361.54" cy="470.66" r="4.68" gradientTransform="matrix(1.13, 0, -0.06, 0.47, -87.41, 165.28)" xlink:href="#radial-gradient"/><radialGradient id="radial-gradient-11" cx="361.54" cy="470.66" r="2.75" gradientTransform="matrix(1.13, 0, -0.06, 0.47, -87.41, 165.28)" xlink:href="#radial-gradient"/><radialGradient id="radial-gradient-12" cx="361.54" cy="470.66" r="1.67" gradientTransform="matrix(1.13, 0, -0.06, 0.47, -87.41, 165.28)" xlink:href="#radial-gradient"/><linearGradient id="linear-gradient-5" x1="291.7" y1="149.42" x2="291.7" y2="395.47" gradientTransform="matrix(1, 0, -0.13, 1, 48.83, 0.02)" xlink:href="#linear-gradient-3"/><radialGradient id="radial-gradient-13" cx="295.78" cy="405.1" r="4.68" gradientTransform="matrix(1.13, 0, 0.05, 0.46, -137.64, 167.64)" xlink:href="#radial-gradient"/><radialGradient id="radial-gradient-14" cx="295.78" cy="405.1" r="2.75" gradientTransform="matrix(1.13, 0, 0.05, 0.46, -137.64, 167.64)" xlink:href="#radial-gradient"/><radialGradient id="radial-gradient-15" cx="295.78" cy="405.1" r="1.67" gradientTransform="matrix(1.13, 0, 0.05, 0.46, -137.64, 167.64)" xlink:href="#radial-gradient"/><linearGradient id="linear-gradient-6" x1="217.66" y1="118.25" x2="217.66" y2="364.3" xlink:href="#linear-gradient-4"/><radialGradient id="radial-gradient-16" cx="349.4" cy="403.95" r="4.68" gradientTransform="matrix(1.13, 0, -0.06, 0.47, -87.41, 165.28)" xlink:href="#radial-gradient"/><radialGradient id="radial-gradient-17" cx="349.4" cy="403.95" r="2.75" gradientTransform="matrix(1.13, 0, -0.06, 0.47, -87.41, 165.28)" xlink:href="#radial-gradient"/><radialGradient id="radial-gradient-18" cx="349.4" cy="403.95" r="1.67" gradientTransform="matrix(1.13, 0, -0.06, 0.47, -87.41, 165.28)" xlink:href="#radial-gradient"/><linearGradient id="linear-gradient-7" x1="278.03" y1="118.18" x2="278.03" y2="364.23" gradientTransform="matrix(1, 0, -0.13, 1, 48.83, 0.02)" xlink:href="#linear-gradient-4"/><radialGradient id="radial-gradient-19" cx="320.48" cy="395.41" r="4.68" gradientTransform="translate(-150.03 155.75) scale(1.13 0.47)" xlink:href="#radial-gradient"/><radialGradient id="radial-gradient-20" cx="320.48" cy="395.41" r="2.75" gradientTransform="translate(-150.03 155.75) scale(1.13 0.47)" xlink:href="#radial-gradient"/><radialGradient id="radial-gradient-21" cx="320.48" cy="395.41" r="1.67" gradientTransform="translate(-150.03 155.75) scale(1.13 0.47)" xlink:href="#radial-gradient"/><linearGradient id="linear-gradient-8" x1="245.43" y1="113.42" x2="245.43" y2="359.46" gradientTransform="matrix(1, 0, 0, 1, 0, 0)" xlink:href="#linear-gradient-4"/><radialGradient id="radial-gradient-22" cx="263.74" cy="433.31" r="4.68" gradientTransform="matrix(1.13, 0, 0.11, 0.46, -163.84, 169.62)" xlink:href="#radial-gradient"/><radialGradient id="radial-gradient-23" cx="263.74" cy="433.31" r="2.75" gradientTransform="matrix(1.13, 0, 0.11, 0.46, -163.84, 169.62)" xlink:href="#radial-gradient"/><radialGradient id="radial-gradient-24" cx="263.74" cy="433.31" r="1.67" gradientTransform="matrix(1.13, 0, 0.11, 0.46, -163.84, 169.62)" xlink:href="#radial-gradient"/><linearGradient id="linear-gradient-9" x1="181.15" y1="131.48" x2="181.15" y2="377.51" gradientTransform="matrix(1, 0, 0.24, 0.98, -87.2, 8.33)" xlink:href="#linear-gradient-4"/><radialGradient id="radial-gradient-25" cx="381.51" cy="434.11" r="4.68" gradientTransform="matrix(1.13, 0, -0.13, 0.44, -60.04, 178.88)" xlink:href="#radial-gradient"/><radialGradient id="radial-gradient-26" cx="381.51" cy="434.11" r="2.75" gradientTransform="matrix(1.13, 0, -0.13, 0.44, -60.04, 178.88)" xlink:href="#radial-gradient"/><radialGradient id="radial-gradient-27" cx="381.51" cy="434.11" r="1.67" gradientTransform="matrix(1.13, 0, -0.13, 0.44, -60.04, 178.88)" xlink:href="#radial-gradient"/><linearGradient id="linear-gradient-10" x1="313.98" y1="131.61" x2="313.98" y2="377.64" gradientTransform="matrix(1, 0, -0.27, 0.93, 100.24, 25.5)" xlink:href="#linear-gradient-4"/><clipPath id="clip-path" transform="translate(-34.63 -8.93)"><path class="cls-1" d="M314.75,202.49c0,0.64.32,1,.32,1.59h1.27l-0.64-1.59h-1Zm-6.69,10.19,4.46,4.78h0a2.75,2.75,0,0,0-1-1.91Zm2.23-4.78-0.32.64,1.27,1,0.64-1Zm10.51-4.78-1,1-0.32.64h1c0.64-1.59.64-2.23,0.32-1.59h0Zm-8.6,1.59-0.64.64a4.39,4.39,0,0,0,1.27,1,3.36,3.36,0,0,1-.64-1.59h0ZM313.48,219a4.39,4.39,0,0,1-1-1.27c-1.27,1.59-3.5,5.09-4.78,6.69l-6.69-3.18-0.32.64a79.48,79.48,0,0,1-7.32,7.32l-0.32.32,3.18,6.69c-1.59,1.27-5.09,3.82-6.69,5.09l-5.41-5.09-0.32.32a84,84,0,0,1-9.23,4.78l-0.64.32,1,7.32c-1.91.64-6,1.91-8,2.55l-3.82-6.37h-0.64a97.48,97.48,0,0,1-10.19,1.59h-0.64l-1.27,7h-8.28l-1.59-7.32h-0.64c-3.5-.32-6.69-1-10.19-1.59h-0.64l-3.5,6.37c-1.91-.64-6-1.91-8-2.55l1-7.32H218c-3.18-1.27-6-2.87-9.23-4.46l-0.32-.32L203,241.65c-1.59-1-5.09-3.82-6.69-4.78l3.18-6.69-0.32-.32a79.48,79.48,0,0,1-7.32-7.32l-0.32-.32-6.69,3.18-1.59-2.55-0.32.64v-1.27L181,220v1.59l-1.59-1.91c-0.32-1-.32-2.23-0.64-3.18l-1.27,1.27,0.32,0.32,5.73,7.64L183.9,226l6.69-3.18c2.23,2.23,4.14,4.46,6.69,6.69l-3.18,7,0.32,0.32c1.27,1,6.37,4.78,8,5.73l0.32,0.32,5.41-5.09a66.91,66.91,0,0,0,8.28,4.14l-0.32,7.64,0.64,0.32c1.59,0.64,7.64,2.55,9.23,2.87h0.64l3.5-6.69a46,46,0,0,0,9.23,1.27l1.59,7.32h10.82l1.59-7.32a46.74,46.74,0,0,0,9.23-1.59l3.82,6.69H267c1.59-.32,7.64-2.55,9.23-2.87l0.64-.32-1-7.32a66.91,66.91,0,0,0,8.28-4.14l5.73,5.09,0.32-.32c1.27-1,6.69-4.78,8-5.73l0.32-.32-3.18-6.69a66.18,66.18,0,0,0,6.69-6.69l7,3.18,0.32-.32c0-1.27,2.87-5.09,4.14-7h0Zm10.82-67.5-0.32-.32c-0.64.64-1,1.27-1.59,1.91l0.32,1c0.64-1.27,1.27-1.91,1.59-2.55h0Zm0.32,3.18-0.32.64,0.32-.32v-0.32ZM323,148.37c0,0.64-.32,1-0.32,1.59l0.64-.64Zm-10.19-1.59,0.32,0.64h0.32Zm14,22.29-7.32-1.59a46.74,46.74,0,0,0-1.59-9.23l4.14-2.55v-0.64l0.32-1.59-1,.64c-0.32.64-.32,1-0.64,1.59v-0.64l-4.46,2.55v0.64a52.37,52.37,0,0,1,1.59,10.19v0.64l7.32,1.59v8.28l-7.32,1.27v1c0,0.64-.32,1.27-0.32,2.23s0.32,1.91.32,3.18a5.53,5.53,0,0,1-1,4.46c-0.32.32-.32,0.64-0.64,1l6.37,3.5c-0.32,1-.64,2.55-1.27,4.14a8.81,8.81,0,0,1,.32,2.87v0.64c1-2.55,2.23-6.37,2.55-7.64v-0.64L317.93,191a46,46,0,0,0,1.27-9.23l7.32-1.59V169.06h0.32Zm-16.24-32.79,0.32-.64a4.8,4.8,0,0,1-1.27-1.27l-0.32.64Zm1.27-1.91,1.27-1-0.64-1.59-1.27,1a3.92,3.92,0,0,0,.64,1.59h0Zm8.6,10.19h-1c-0.32.64-.32,1-0.64,1.59h1c-0.32-.32.32-1,0.64-1.59h0Zm-3.5.32-2.23.32a4.8,4.8,0,0,1,1.27,1.27l1.59-.32ZM312.84,143l-1.91-1,0.32,0.64c0.64,0.32,1.59,1,2.23,1.27Zm-3.5-18.47,0.64,1.27c0,0.32.32,1,.32,1.27l1.59,2.23c-0.32-1.59-1-2.87-1.27-4.14l-0.32-.32ZM251.71,94.56l1.27,6.69a46.74,46.74,0,0,1,9.23,1.59l3.5-6.69h0.64C268,96.47,274,98.7,275.59,99l0.64,0.32-1,7.32a66.91,66.91,0,0,1,8.28,4.14L289,105.7l0.32,0.32c1.27,1,6.69,4.78,8,5.73l0.32,0.32-3.18,6.69a66.19,66.19,0,0,1,6.69,6.69l4.14-1.91v1.59L300.74,127l-0.32-.32a79.48,79.48,0,0,0-7.32-7.32l-0.32-.32,3.18-6.69c-1.59-1.27-5.09-3.82-6.69-5.09l-5.41,5.09-0.32-.32a82.49,82.49,0,0,0-9.23-4.46l-0.32-.32,1-7.32a76.82,76.82,0,0,0-8-2.55l-3.5,6.37h-0.64a81.44,81.44,0,0,0-8.6-1.59h0l-1.27-.32h-1l-1.59-7.32h-8.28l-1.59,7.32h-1.91a43.72,43.72,0,0,0-8.91,1.59h-0.64l-3.82-6.37c-1.91.64-6,1.91-8,2.55l1,7.32-0.64.32c-3.18,1.27-6,2.87-9.23,4.46l-0.32.32L203,107.29c-1.27,1-4.46,3.18-6.37,4.46l1.59-2.87c1.91-1.27,3.5-2.55,4.46-3.18l0.32-.32,5.73,5.09a66.91,66.91,0,0,1,8.28-4.14l-1-7.64,0.64-.32c1.59-.64,7.64-2.55,9.23-2.87h0.64l3.82,6.69c2.87-.64,5.73-1,8.28-1.27h0.64l1.59-7.32h10.82v1Z"/></clipPath><clipPath id="clip-path-2" transform="translate(-34.63 -8.93)"><path class="cls-1" d="M298.51,146.45l-0.64-1a59.5,59.5,0,0,0-39.8-29.29l-1.27-.32,1.27,41.71Zm-2.55-1-35.66,9.87-1-36.93A57.43,57.43,0,0,1,296,145.5h0Z"/></clipPath><clipPath id="clip-path-3" transform="translate(-34.63 -8.93)"><path class="cls-1" d="M220.19,228l1,0.32A60.08,60.08,0,0,0,246,233.69a65,65,0,0,0,24.51-5.09l1-.32L246,195.17ZM246,232.1a55.8,55.8,0,0,1-22.92-4.78l23.24-29,22.6,29.29A62.5,62.5,0,0,1,246,232.1Z"/></clipPath><clipPath id="clip-path-4" transform="translate(-34.63 -8.93)"><path class="cls-1" d="M305.2,168.1v-1.27l-39.48,14,22.92,35,0.64-1a57.81,57.81,0,0,0,15.92-46.8m-15.92,44.57-20.69-30.88,34.7-12.42a56.39,56.39,0,0,1-14,43.3"/></clipPath><clipPath id="clip-path-5" transform="translate(-34.63 -8.93)"><path class="cls-1" d="M235.79,115.89l-1.27.32a59,59,0,0,0-40.11,28.65l-0.64,1,39.8,11.78Zm-3.5,39.48L197,144.86a58.39,58.39,0,0,1,36.93-26.74Z"/></clipPath><clipPath id="clip-path-6" transform="translate(-34.63 -8.93)"><path class="cls-1" d="M179.76,131.81l-0.32-.32a52.86,52.86,0,0,1,5.09-6.69l0.64,0.32a4.39,4.39,0,0,1,1.27-1l-2.55-1h-0.32c-1,1.27-4.78,6.37-5.73,8l-0.32.32,1.59,1.59Zm-8,13.69,0.32-.64h-1.27l-0.32.64c-0.64,1.59-2.55,7.64-2.87,9.23v0.32h0Zm19.74-20.38a1.91,1.91,0,0,1-.32,1.27,1.54,1.54,0,0,0-.32,1.27h0.32l0.32-.32a48.54,48.54,0,0,1,7-7l0.32-.32L196,113.66l-1,1.59,1.91,4.46a43.12,43.12,0,0,0-5.41,5.41h0Zm-13.05,21.65,2.55-4.14,3.18-6-0.64-.64-1.27,2.23c-1.27,2.23-2.55,4.78-3.82,7.32h-1l-1,1.27h1.91Zm8.6,19.74v1.27A57.26,57.26,0,0,0,189,191l1.27-3.18h0c0-.32,0-0.64-0.32-0.64a0.64,0.64,0,0,0-.32.64L189,189.12v-2.55l1-1.27a55.63,55.63,0,0,1-.64-16.24L224,182.11l-21,30.25a59.83,59.83,0,0,1-11.46-20.06c-0.32,1.27-.32,2.23-0.64,3.5a57.41,57.41,0,0,0,11.46,18.78l0.64,1,23.56-34.38Z"/></clipPath><clipPath id="clip-path-7" transform="translate(-34.63 -8.93)"><path class="cls-1" d="M173.39,275.08a1.2,1.2,0,0,0,.64.64,2,2,0,0,0,2.87-.32,0.64,0.64,0,0,0,.32-0.64c1-1,1-2.23,0-2.87a1.11,1.11,0,0,0-.64-0.32c-0.64-.64-0.64-0.64-1.27.32Zm-16.87-11.46c1.59,1,2.55,1.91,4.14-.32a2.42,2.42,0,0,0,0-3.18h0c-0.32-.32-0.64-0.32-1-0.64-0.32,0-.32.32-0.64,0.32Zm24.2,11.78a3.09,3.09,0,0,0-.32-2.87l0.32-.32,1.91,1,1.91,1-0.32.64a1,1,0,0,0-1.27,0h0c-0.32.64-1,3.5-1.27,4.46l-1,5.09,3.5-3.18a28.7,28.7,0,0,0,2.87-3.18,1,1,0,0,0,0-1.27h-0.32V276a10.22,10.22,0,0,0,1.59,1c0.64,0.32,1,.32,1.59.64v0.32c-1.27-.64-2.23.64-3.5,1.59l-7,6.69-0.64-.32Zm-9.23,1.91c-0.32.64-.64,1.59-1,2.23s0.32,1,1,1.27l-0.32.32a5.13,5.13,0,0,0-2.23-1.27,2.71,2.71,0,0,1-1.59-1v-0.64c0.64,0.32,1.27,1,1.59.32a5.71,5.71,0,0,0,1.59-2.23l2.55-4.46c0.32-.64,1-1.59,1.27-2.23a0.88,0.88,0,0,0-1-1.27l0.32-.32c0.64,0.64,1.59.64,2.23,1.27a5.38,5.38,0,0,0,1.91,1,3.25,3.25,0,0,1,1.91,3.82c0,0.32-.32.32-0.32,0.64a3.16,3.16,0,0,1-4.14,1.59c-0.32-.32-0.64-0.32-1-0.64a1.69,1.69,0,0,1-1-.64Zm-6.37-10.19c0.32-.64,1-1.59,1.27-2.23a0.88,0.88,0,0,0-1-1.27l0.64-.32,6.37,4.14-1.59,2.23-0.32-.32c1-1.91.32-2.23-1-3.5l-1-.64c-0.32-.32-0.32-0.32-1,0.32l-2.23,4.14a1.79,1.79,0,0,0,2.87,0,0.64,0.64,0,0,0,.32-0.64h0.32a18.26,18.26,0,0,0-1.27,2.23c-0.32.64-1,1.27-1.27,1.91l-0.32-.32c1-1.91.32-2.23-1-3.18l-1.59,2.55a4.53,4.53,0,0,0-.64,1.91,2.12,2.12,0,0,0,1.27,1.59,2.27,2.27,0,0,0,3.5-.32,0.31,0.31,0,0,1,.32-0.32h0.32l-1.59,2.55-7.32-4.78,0.32-.32a2.39,2.39,0,0,0,1.59.32,12.44,12.44,0,0,1,1.27-1.59Zm-7,3.82a2.43,2.43,0,0,0,.64,1.59v0.64l-1-1c-0.32-.32-1-0.32-1.27-0.64l0.32-1.59v-4.46a1.24,1.24,0,0,0-.64-1.27l-1.27,1.91a13.84,13.84,0,0,1-1.27,2.23,1.33,1.33,0,0,0,1,1.27l-0.32.64a19.5,19.5,0,0,0-1.91-1.27,5.13,5.13,0,0,0-2.23-1.27l0.32-.32a2.39,2.39,0,0,0,1.59.32,5.71,5.71,0,0,0,1.59-2.23l2.87-4.46a6.66,6.66,0,0,0,1.27-1.91c0.32-.64-0.32-1-0.64-1.27v-0.64c1,0.64,1.59,1,2.55,1.59,0.64,0.32,1,.64,1.59,1a3.16,3.16,0,0,1,1.59,4.14v0.32c-0.64,1.59-2.55,1.91-4.14,1.27h-0.32l-0.32,5.41h0Zm82.78,3.82-2.55-4.46-0.64,4.78ZM204,283.36c0.32,0.64.32,1.27,0.64,1.91a2.41,2.41,0,0,0,1.27.64,1.94,1.94,0,0,0,1.27-2.87h0a3.22,3.22,0,0,0-1.27-2.23h-2.55Zm-0.32-3.5h0a8.17,8.17,0,0,0,1.59-.64,5.9,5.9,0,0,0,.64-2.23,2.05,2.05,0,0,0-1.91-1.91h0a1.17,1.17,0,0,1-1,.32v1Zm-8.91,4.78a5.9,5.9,0,0,0,.64,2.23,1,1,0,0,0,1.27.32h0c1.27,0,1.91-1.27,1.59-2.87a2,2,0,0,0-1.59-1.91,2.72,2.72,0,0,0-2.23,0h-0.32Zm-0.64-3.18,0.64-.32a1.08,1.08,0,0,0,1.27-.64,4.53,4.53,0,0,0,.64-1.91c-0.32-1.27-1-2.23-2.23-1.91a1.17,1.17,0,0,0-1,.32v0.64Zm43.3-4.78a8.81,8.81,0,0,0-.32,2.87c0,1,1,.64,1.27.64v0.64h-1.59a2.87,2.87,0,0,1-1.59.32v-0.32a1.71,1.71,0,0,0,1.27-1.59,15.5,15.5,0,0,0,.32-3.82l1.27-7.64h0.64l4.46,8.6c0.32,0.64,1,1.27,1.27,1.91a1.91,1.91,0,0,0,1.27.32v0.64a4,4,0,0,0-1.91.32c-1,0-1.59.32-2.23,0.32v-0.32c0.32-.32,1.27-0.32.64-1.27,0-.32-0.32-1-0.32-1.27l-1.27-1.91-3.18,1v0.64h0ZM232,269.35h0l1,3.5h-0.32a3.29,3.29,0,0,0-3.82-2.87c-2.87.32-2.87,3.82-2.55,6.69s1.91,5.73,4.78,5.09a3.9,3.9,0,0,0,2.55-4.46l0.32-.32,0.64,4.14-0.64-1a6.61,6.61,0,0,1-3.18,1.91c-2.87.64-5.73-1.59-6.37-4.46V277a5.45,5.45,0,0,1,4.14-7h0a6.62,6.62,0,0,1,3.5.32v-1h0Zm-11.46,5.41c0-.64-0.32-1.59-0.32-2.23a2.41,2.41,0,0,0-1.27-.64l-0.32-.32a5.42,5.42,0,0,1,2.23-.32c1,0,1.59-.32,2.23-0.32v0.32a1.33,1.33,0,0,0-1.27,1,5.42,5.42,0,0,0,.32,2.23l0.64,5.41a5.9,5.9,0,0,0,.64,2.23,2.41,2.41,0,0,0,1.27.64v0.64h-2.23a5.42,5.42,0,0,1-2.23.32v-0.32c0.64,0,1.27,0,1.27-1v-2.23Zm-9.87,1.91c0-.64-0.32-1.91-0.32-2.55a1,1,0,0,0-1.27-.32h0l-0.32-.64a5.42,5.42,0,0,0,2.23-.32,5.42,5.42,0,0,0,2.23-.32l0.32,0.64a1.08,1.08,0,0,0-1.27.64c0,0.64.32,1.91,0.32,2.55l0.64,5.41c0.32,2.23,1,2.87,2.87,2.55a5.38,5.38,0,0,0,1.91-1,5.9,5.9,0,0,0,.64-2.23l0.64-.32,0.32,3.5h-1c-2.55.32-5.41,1-8,1.27v-0.32c0.64-.32,1.27-0.32,1.27-1v-2.55Zm-8.91,1.59a5.9,5.9,0,0,0-.64-2.23,2.41,2.41,0,0,0-1.27-.64v-0.32a5.42,5.42,0,0,1,2.23-.32,13.79,13.79,0,0,0,1.59-.32,2.81,2.81,0,0,1,3.82,1.59,0.64,0.64,0,0,0,.32.64,2.82,2.82,0,0,1-1.91,3.18,2.69,2.69,0,0,1,2.23.64,6.48,6.48,0,0,1,1.91,2.23,3.38,3.38,0,0,1-3.82,3.82,2.87,2.87,0,0,1-1.59.32,7.49,7.49,0,0,0-2.55.64v-0.64a0.8,0.8,0,0,0,1-.64h0c0-.64-0.32-1.59-0.32-2.23Zm-9.55,1.59c0-.64-0.32-1.91-0.32-2.55a1,1,0,0,0-1.27-.32h0v-0.32a38020952.41,38020952.41,0,0,1,3.82-.64,2.83,2.83,0,0,1,3.82,2.23v0.32a2.79,2.79,0,0,1-1.59,3.18,5.42,5.42,0,0,1,2.23.32,3.25,3.25,0,0,1,1.59,2.55,3.21,3.21,0,0,1-1,2.87,3.62,3.62,0,0,1-2.55,1,4,4,0,0,0-1.91.32c-1.27,0-1.59.32-2.87,0.32v-0.32a1.33,1.33,0,0,0,1.27-1c0-.64-0.32-1.91-0.32-2.55Zm95.51,1.59-1-5.09-2.23,4.46Zm19.1-1.27c0-.64-0.32-1.91-0.32-2.23a0.93,0.93,0,0,0-1.27-.64v-0.64h2.23c0.64,0,1.27-.32,2.23-0.32V277c-0.64,0-1.27,0-1.27.64v2.55l0.64,5.09a7,7,0,0,0,.32,2.55,2.41,2.41,0,0,0,1.27.64v0.32h-2.23a5.42,5.42,0,0,1-2.23.32v-0.32a1.65,1.65,0,0,0,1.27-.64h0V285.9Zm-11.14-1c0-.64.32-1.91,0.32-2.55a1.71,1.71,0,0,0-1.27-1l0.32-.32c0.64,0,1.27.32,1.91,0.32a7,7,0,0,0,2.55.32l-0.32.64a1,1,0,0,0-1.27.32c-0.32.64-.32,1.91-0.64,2.55l-1,5.41c-0.32,2.23,0,2.87,1.59,3.18h2.23a1.81,1.81,0,0,0,1.27-2.23H302l-0.64,3.5c0-.32-0.64-0.32-0.64-0.32a74.36,74.36,0,0,0-8.28-1.27v-0.32a1.51,1.51,0,0,0,1.59-.64,5.9,5.9,0,0,1,.64-2.23Zm-11.78,2.87-1.27,2.55a1.72,1.72,0,0,0,1.27,1.27v0.32a13.79,13.79,0,0,1-1.59-.32c-0.32,0-1.27-.32-1.91-0.32l0.32-.32a1.42,1.42,0,0,0,1.59-1.27l1.59-3.5,3.5-7L288,273.8l1.59,9.87c0.32,0.64.32,1.59,0.64,2.23a4.4,4.4,0,0,0,1.27,1v0.32c-0.64,0-1.27-.32-2.23-0.32a5.42,5.42,0,0,0-2.23-.32l0.32-.64c0.32,0,1.27.32,1.27-.32V284l-0.32-1.91-3.82-.64Zm-1.27-5.73h0a3.1,3.1,0,0,0-1.27-2.87h-0.64c-1,0-1.59-.32-1.59.32l-1.59,8.6a1.81,1.81,0,0,0,1.27,2.23h0.32v0.32a7.49,7.49,0,0,1-2.55-.64A7,7,0,0,1,274,284v-0.32c1.59,0,1.91-.32,2.23-1.59l1.27-8.91c0.32-.32-0.64-0.64-1.27-0.64-1.59-.32-2.23-0.32-2.55,1.91l-0.64-.32,0.64-2.87,9.87,1.59Zm-14.33-1.91v-2.23a1,1,0,0,0-1-1h0v-0.64a5.9,5.9,0,0,0,2.23.64c1,0,1.59.32,2.55,0.32l-0.32.32a1.08,1.08,0,0,0-1.27.64c-0.32.64-.32,1.59-0.64,2.23l-0.64,5.41a5.42,5.42,0,0,0-.32,2.23c0,1,.64,1,1.27,1V284c-1-.32-1.27-0.32-2.23-0.64a6.22,6.22,0,0,1-2.23-.32h0a1.08,1.08,0,0,0,1.27-.64,5.9,5.9,0,0,0,.64-2.23Zm68.77-8.6L332.9,263l1.59,4.78Zm-19.1,13.69-3.82-3.5,1,4.78ZM334.81,269a5.14,5.14,0,0,0,1,2.87,1,1,0,0,0,1.27,0h0l0.32,0.64c-0.32.32-1,.64-1.27,1a4.8,4.8,0,0,0-1.27,1.27l-0.32-.64a1.51,1.51,0,0,0,.64-1.59c-0.32-1.27-1-2.55-1.27-3.82l-2.23-7.64,0.32-.32,8.28,5.73a5.59,5.59,0,0,0,1.59,1.27,1.4,1.4,0,0,0,1.59-.32v0.64a3.18,3.18,0,0,0-1.59,1.27c-0.64.64-1.27,1-1.59,1.27v-1a2.41,2.41,0,0,0,.64-1.27c-0.32-.32-1-0.64-1.27-1L338,266.16l-3.18,2.23V269Zm-14.33,1.91a1.44,1.44,0,0,0-1.91.32l-0.32-.64a1.33,1.33,0,0,0,1.27-1,2.41,2.41,0,0,0,1.27-.64l11.14,3.82-3.18-4.46a9.67,9.67,0,0,1-1.59-2.23,2,2,0,0,0-1.91,0l-0.32-.32,1.59-1a2.49,2.49,0,0,1,1.27-1.27l0.32,0.32c-0.32.64-1,.64-0.64,1.27s1.27,1.91,1.91,2.87l4.46,6.37-0.32.32a2.43,2.43,0,0,1-1.59-.64l-10.19-3.5,3.82,5.09c0.64,0.64,1,1.27,1.59,1.91a1.4,1.4,0,0,0,1.59-.32v0.32a4.8,4.8,0,0,1-1.27,1.27,2.49,2.49,0,0,0-1.27,1.27l-0.32-.32a1.16,1.16,0,0,0,.64-1.59c-0.32-.64-1-1.27-1.27-1.91Zm-5.09,11.46a9.3,9.3,0,0,0,.64,2.87,0.73,0.73,0,0,0,1.27,0l0.32,0.32a42234185.77,42234185.77,0,0,0-2.55,1.91l-0.32-.32a1.53,1.53,0,0,0,.64-1.91,16,16,0,0,0-.64-3.82l-1.27-7.64h0.64l7.32,6.69a5.59,5.59,0,0,0,1.59,1.27h1.27l0.32,0.32a262522543063664,262522543063664,0,0,1-3.82,2.55l-0.32-.64a1,1,0,0,0,1-1v-0.32a4.8,4.8,0,0,0-1.27-1.27l-1.27-1.27-3.5,1.59v0.64Z"/></clipPath><clipPath id="clip-path-8" transform="translate(-34.63 -8.93)"><path class="cls-1" d="M157.47,181.16h0Zm18.47,54.12h0Z"/></clipPath><clipPath id="clip-path-9" transform="translate(-34.63 -8.93)"><rect class="cls-1" x="141.24" y="69.09" width="213.63" height="240.37"/></clipPath><clipPath id="clip-path-10" transform="translate(-34.63 -8.93)"><rect class="cls-1" x="141.24" y="69.09" width="216.49" height="241.96"/></clipPath><clipPath id="clip-path-11" transform="translate(-34.63 -8.93)"><path class="cls-1" d="M353.91,181.48c0.64-4.46.32-7.32-1.27-8.6a4.94,4.94,0,0,0-6.37,1.27c-1.59-.64-3.5,0-5.73,2.23a4.42,4.42,0,0,0,0-2.87,8.8,8.8,0,0,0,4.14-3.5,18,18,0,0,0,1-5.73,27.6,27.6,0,0,1,4.46-8.6c1.91-4.14.64-5.73-3.82-4.46a10.25,10.25,0,0,0,3.82-5.73,8.89,8.89,0,0,0-1.91-5.73,1.75,1.75,0,0,0-1.91-1.27c-0.32,0-.64.32-1,0.32a11.31,11.31,0,0,0,.64-3.18,34.65,34.65,0,0,0-2.23-7.64c-0.32-5.09-1.59-7-3.5-6.37a24,24,0,0,0-2.55-7.64c-2.23-3.18-3.82-3.82-4.78-2.55-3.18-4.78-6.37-7-9.23-6a9.15,9.15,0,0,0-2.23-5.73A12.67,12.67,0,0,0,318.57,93c-1.59-.64-2.55.32-3.18,2.55a17.39,17.39,0,0,0-1.91-5.73A4.79,4.79,0,0,0,309,86.6a5.42,5.42,0,0,0-2.23.32,6.68,6.68,0,0,0-3.5-1.27c-2.87-3.18-5.41-3.18-8-.64L295,82.46c-1-3.18-2.55-3.82-5.09-1.91A40.32,40.32,0,0,0,279.09,72c-2.55-1-4.14-1-4.78.32A8.69,8.69,0,0,0,270.18,70,15.76,15.76,0,0,1,266,68.77c-1.91,0-2.87,1-2.55,3.18a11.19,11.19,0,0,0-6.37,1.59,3.49,3.49,0,0,0-1,3.82A5.74,5.74,0,0,0,260,81.19a4.73,4.73,0,0,0-.64,2.87c0,1.27,1.27,2.23,4.14,3.18a17.31,17.31,0,0,0,5.73,0,2.58,2.58,0,0,0,1.59,3.5h0.64a8.27,8.27,0,0,0,9.23,1.91l-0.32,2.55,5.09,1.91a5.67,5.67,0,0,0,3.18,5.09l1.91,1a4.28,4.28,0,0,0-2.23,1.91,2,2,0,0,0,.32,2.87,1.17,1.17,0,0,0,1,.32,42.67,42.67,0,0,0,6.37.32,2.89,2.89,0,0,0,1,2.23,10,10,0,0,0,2.87,3.5,24.22,24.22,0,0,0,6,3.82,13.31,13.31,0,0,0-1.27,3.18,7.46,7.46,0,0,0,.32,6.37,2.92,2.92,0,0,0-1.91,1.27c-1.59,2.55,1.91,6,2.55,7a2.43,2.43,0,0,0-1.59.64A4.06,4.06,0,0,0,305.2,142a1.54,1.54,0,0,0,1.27.32,34.9,34.9,0,0,1,6.69,4.46c0.32,0.32,1.59,2.55,2.87,4.46a4.59,4.59,0,0,0,3.82,2.87,62.15,62.15,0,0,0,8.6,17.19,32.58,32.58,0,0,1,4.46,7,15.5,15.5,0,0,0-.32,3.82,62.79,62.79,0,0,1-2.23,11.14c-3.5-1.91-4.14.64-4.78,2.87a2,2,0,0,0-1.91.32c-0.32-1.27-1.27-2.23-2.55-1.91h-0.64l-1.91,1.27a4.6,4.6,0,0,1-.64-2.23,15.5,15.5,0,0,1,.32-3.82s1-1.27,1.59-2.23c1-1.91.32-8-1-12.1A3.37,3.37,0,0,0,317,173.2a2.09,2.09,0,0,0-2.55,1.59,2.84,2.84,0,0,0-2.55-1.59c-2.87-.64-5.73,4.78-5.41,9.55-1.91-1.59-4.78-1-4.46,1.59,0.32,3.82,6.37,10.82,6.37,14a3.2,3.2,0,0,0-5.73,2.23,13.48,13.48,0,0,0,1.27,3.82c-0.64,4.14,3.82,7,7.64,10.82a2.9,2.9,0,0,0,1.27,2.55c-0.64,1-5.09,7.64-5.09,8s-3.18-1.59-4.14-.64a17.5,17.5,0,0,0-2.23,2.87l0.64,4.78a9,9,0,0,1-3.18,6.69,19.83,19.83,0,0,0-4.78,6.69A11.27,11.27,0,0,1,289,251.2a17.66,17.66,0,0,0-1.91-2.55c-0.32-.32-0.64-0.64-1-0.32a173.48,173.48,0,0,0-17.51,8c-1.59.64-3.82,1.59-6.37,7h-5.09c-1.27-3.18-2.87-2.23-4.46-3.5a5.35,5.35,0,0,0-5.73.64,9.94,9.94,0,0,0-8,1.59,4.38,4.38,0,0,1-3.5.32l-6.37-6.69c-13.05-5.41-20.06-8-21-7.32a7,7,0,0,0-2.87,3.18,20.85,20.85,0,0,1-5.73-4.78l-3.82-4.46a11,11,0,0,1-3.5-9.23l0.64-3.82a1.54,1.54,0,0,0-.32-1.27A7.59,7.59,0,0,0,189,226c-0.32,0-.64-0.32-1.27,1.91a64.56,64.56,0,0,1-4.14-5.73A31,31,0,0,0,188,213a73.8,73.8,0,0,0,1.91-12.1,1.11,1.11,0,0,1,.32-0.64c1.91-1.59,4.46-15.6,3.82-19.1a2.89,2.89,0,0,0-1-2.23,1.17,1.17,0,0,0-1,.32l0.64-1.59a2.72,2.72,0,0,0,0-2.23,7,7,0,0,0-4.46.64,26.43,26.43,0,0,0-1.91-6.69,0.44,0.44,0,0,0-.64,0c-3.5,2.23-5.09,7-6.37,12.73l-1,1a48.15,48.15,0,0,0-9.87,19.74,16.64,16.64,0,0,1-1.91-5.09,7,7,0,0,1-.64-4.46,2.47,2.47,0,0,0-.64-3.18,36.19,36.19,0,0,1-3.18-11.46,22.83,22.83,0,0,1,2.23-8,100.85,100.85,0,0,1,6.69-13.05l1.91-1.91c4.46-1,23.88-26.42,22-38.2a111.3,111.3,0,0,0,9.23-17.19l1-.32,1.27-.64c4.14-1.59,8-3.5,11.14-5.09l5.09-2.87A42.15,42.15,0,0,0,232.93,85a14,14,0,0,0,5.41-9.23,7.66,7.66,0,0,0-5.09-1.27,10.71,10.71,0,0,0,2.55-5.41c-1-1.59-4.46-1.91-9.87-.64a46.62,46.62,0,0,0-15.28,6.69,52.26,52.26,0,0,0-11.78,10.19,59.09,59.09,0,0,0-8,13.69l2.55-5.73c1.27-2.87,2.55-6,4.14-9.87a7.76,7.76,0,0,0,0-3.82A2,2,0,0,0,195,79a20.94,20.94,0,0,0-7.32,5.41A68.34,68.34,0,0,0,177.21,99a77.56,77.56,0,0,0-6,14,20.73,20.73,0,0,0-.32-9.87,1.76,1.76,0,0,0-2.55-1,0.31,0.31,0,0,0-.32.32,25.45,25.45,0,0,0-4.14,4.14L160,112.07a56.07,56.07,0,0,0-4.46,7.32,50.32,50.32,0,0,0-4.46,11.46,83.73,83.73,0,0,0-2.87,17.51,58.27,58.27,0,0,0,1,15,51.81,51.81,0,0,0,4.14,11.78,8.78,8.78,0,0,0,3.82,4.46c0.64,1.91,1.91,5.09,3.18,9.23a12.77,12.77,0,0,1,1,4.78,1.75,1.75,0,0,0,1,2.23,6.93,6.93,0,0,1,1.59,2.55,56.77,56.77,0,0,0,4.46,11.46,35.08,35.08,0,0,0-.64,5.73c-4.14-11.78-7.32-20.69-9.87-26.74-4.78-10.82-8.91-15.92-11.46-15a4.14,4.14,0,0,0-2.55,3.82v5.73a51.83,51.83,0,0,0,1,9.87,72,72,0,0,0,13.05,28.34l7,13.05a22.26,22.26,0,0,0,5.41,4.14,6.17,6.17,0,0,0,4.78.64c2.55,3.82,5.09,7.32,8,10.82a7.87,7.87,0,0,0,6.37,4.46,4.4,4.4,0,0,0,4.14,3.18l1.91-.32a63.66,63.66,0,0,0,7,6L199.82,270a70.61,70.61,0,0,1-11.78,1c-3.18-2.23-8-5.41-14-9.55v-7.64a12,12,0,0,1,1.27-6.69,4.14,4.14,0,0,0-2.55-3.82,13.17,13.17,0,0,0-6-1.59,1.33,1.33,0,0,0-1,1.27v4.46H154a3.89,3.89,0,0,0-2.87,1.27,7,7,0,0,0,0,5.09v2.55a28.41,28.41,0,0,1-4.78,9.87,3.38,3.38,0,0,0,.32,2.55,38,38,0,0,0,4.78,5.73,32.15,32.15,0,0,0,5.09,4.14c2.23,1.59,6.37,4.14,11.78,7.32a135.29,135.29,0,0,0,19.1,9.87c1.27,0,9.87-1.27,25.47-3.5v1.27c-4.46,3.5-7.32,4.78-8.6,4.14-1.91.32-2.23,1.59-1.59,3.82a4.05,4.05,0,0,0,2.87,2.23l1.59,1.91,4.78,2.87a7,7,0,0,0,5.09,0,5.48,5.48,0,0,0,3.18-3.82l0.64-.64,5.09-5.09,3.82-2.87a7.11,7.11,0,0,0,5.73-3.18,2.9,2.9,0,0,1,1.27-2.55l4.46-3.18c0.32-.32,1.91.32,5.41,2.23a7,7,0,0,0,4.46-.32l3.18-1.91c2.87,0.64,8.28,4.46,15.6,11.14a3.93,3.93,0,0,0,1.27,2.55,9,9,0,0,0,4.78,1.91l1.91,3.18,1.91,0.64a10.09,10.09,0,0,0,7.32-2.87l2.87-1a3.5,3.5,0,0,0,1.91-3.18l-1.27-1.27-2.55-.64a55.66,55.66,0,0,1-9.23-5.73l-2.23-.64a315.44,315.44,0,0,0,34.38,3.82,9.67,9.67,0,0,0,6.69-2.55c2.87-2.23,11.46-8.28,25.79-18.47a26.15,26.15,0,0,0,5.09-8,18.2,18.2,0,0,1-3.5-5.09,20.24,20.24,0,0,1-1.91-5.73,7.76,7.76,0,0,1,0-3.82,3,3,0,0,0-1.27-3.18,4.74,4.74,0,0,0-2.87-1.27,44.75,44.75,0,0,0-9.23,0,3.46,3.46,0,0,1-2.87-1.27V242.6c0.32-1.27,0-1.91-1.27-1.91a12.67,12.67,0,0,0-6.69,2.87,2.52,2.52,0,0,0-.32,3.5l0.32,0.32a3.46,3.46,0,0,1,1.27,2.87c-0.32,3.82-.64,7.64-1.27,11.46a83.63,83.63,0,0,1-12.73,8.91,31.07,31.07,0,0,1-12.1-.64,10.76,10.76,0,0,1-2.87-6c2.23-1.27,4.46-2.87,6.69-4.46,1.27-.32,2.87-0.64,4.14-1a2.79,2.79,0,0,0,1.59-3.18,4.52,4.52,0,0,0,2.55-2.87l7.32-8.91a14.07,14.07,0,0,1,7.64-3.5A35.72,35.72,0,0,0,334.81,235a2.9,2.9,0,0,0,0-3.82,37.72,37.72,0,0,0,8-8,7.18,7.18,0,0,0,1-6.69,26.41,26.41,0,0,0,5.73-9.55,25.77,25.77,0,0,0,0-7,24.3,24.3,0,0,0,3.5-2.55,5.14,5.14,0,0,0,1-2.87,5.66,5.66,0,0,0-1.27-3.18A7.8,7.8,0,0,0,353.91,181.48Zm-31.52-70a11.31,11.31,0,0,0,1.27-2.87c0.32-.64,1-1,2.23-0.32a24.07,24.07,0,0,1,6,6.69c1.27-1.59,2.55-1,3.82,1.59a13.28,13.28,0,0,1,1.91,8.6c3.18-1.59,4.14-.64,3.18,3.5a41.59,41.59,0,0,1,2.55,6.69,7,7,0,0,1-.64,4.46,9.53,9.53,0,0,0-1.27,3.18q0,1,1,0A7.59,7.59,0,0,1,346,141a8.29,8.29,0,0,1,1.27,4.78,3.92,3.92,0,0,1-1.59,3.18,6.29,6.29,0,0,0-1.91,3.82,1.33,1.33,0,0,0,1,1.27H345l2.23-.64q1.91-.48,0,2.87a45.1,45.1,0,0,0-2.55,5.73l-1,3.82a4.56,4.56,0,0,1-1,3.5,30.76,30.76,0,0,0-.32-7.64,87.27,87.27,0,0,0-1.59-8.91,21.12,21.12,0,0,0,2.87-6c0.64-1.59.32-1.91-.32-0.64a9.23,9.23,0,0,1-2.87,4.78c-1-3.18-1.91-7-3.18-11.46a23.31,23.31,0,0,0,2.55-8c0-2.87-.32-2.87-0.64-0.64a17.26,17.26,0,0,1-2.87,7.64,95.68,95.68,0,0,0-3.5-10.19,43.15,43.15,0,0,0,.64-6.37c0-2.23-.32-2.55-0.64-0.32a18.79,18.79,0,0,1-.64,4.46l-2.87-7-1.91-4.78c-0.64-1.27-1-1.27-.64,0l1.59,5.41a16.69,16.69,0,0,0-3.5-3.18c-1-.64-1.27-0.64-0.64,0a23.94,23.94,0,0,1,4.78,5.09c1,2.87,2.23,5.41,3.18,8.28a19,19,0,0,0-6.69-4.46q-2.39-1,0,1a47.18,47.18,0,0,1,8.28,7.64l2.87,8.6A24.48,24.48,0,0,1,331,136.9c-1-1-1-1,0,.64a35.11,35.11,0,0,0,6.37,7.32l1.91,7.64a49.19,49.19,0,0,0-7.64-6c-1.27-1-1.59-.64-0.32.64a54.87,54.87,0,0,1,8.6,8.6,44.4,44.4,0,0,1,1.27,13.05,4.4,4.4,0,0,1-3.82,3.5l-0.32.64h0l-0.32,2.87c-1.59,0-2.55-1-2.55-3.18a15.45,15.45,0,0,0,0-5.41,3.3,3.3,0,0,0-1.91-2.55c-0.64-.32-2.23-4.46-4.78-12.73H330q2.87,10.51,4.78,11.46a2,2,0,0,1,1.59,1.91A24.58,24.58,0,0,0,337,170a3.86,3.86,0,0,0,2.55-4.14,4.53,4.53,0,0,0-1.91-5.09,7,7,0,0,1-3.18-2.87,2.48,2.48,0,0,1,.64-2.55c0.32,0,.64-0.32,1-0.32,1-.64-1.27-2.55-6.69-6-2.87-1.91-3.5-3.82-2.55-5.09,0.32-.64,1.27-0.64,2.23,0s1.91,1,2.23.64c0.64-1.27,0-1.91-1.27-2.55-1.59-.32-2.23-1-2.23-1.59V135a10.83,10.83,0,0,0-.32-3.18c-1-1.27-2.87-1.27-5.41.32a6.21,6.21,0,0,0,.32-4.14,7.26,7.26,0,0,0-1.91-3.82l-1-4.14c-0.32-1.27.32-2.23,2.23-2.87a11.85,11.85,0,0,1,.64-5.73h0Zm-36-16.24L282,93.92l0.32-2.87-2.55.32a7.19,7.19,0,0,1-7-1.91q-2.39.48-1.91-1.91c0.64-1.27.32-1.91-.64-1.91l-3.82.32a6.48,6.48,0,0,1-4.78-1.91,2.88,2.88,0,0,1,1-3.18,8.15,8.15,0,0,1-4.14-3.18,1.72,1.72,0,0,1,.64-2.55h0.32a12,12,0,0,1,6.69-.32A3.05,3.05,0,0,1,265.4,72c0-1,2.23-.32,6.69,1.59l2.55,1.59a2.68,2.68,0,0,1,3.5-1.27,19.71,19.71,0,0,1,5.41,3.5,24.93,24.93,0,0,1,6.37,5.09c1.91-1.27,3.18-1,3.82.64l0.32,3.18a5.32,5.32,0,0,0-7-.32l-1.91-.64a19,19,0,0,1-4.46-6.69C280,76.73,280,76.41,280,78a13.41,13.41,0,0,0,3.18,6.37A23,23,0,0,1,275,79.91c-1.27-1.59-2.87-3.18-4.14-4.78-1-1.59-1.27-1.59-1.27,0a16.2,16.2,0,0,0,4.14,5.09l-3.82-1.91a19.19,19.19,0,0,0-7.32-1.91c-1,0-1,.32,0,0.64a64.17,64.17,0,0,1,7.32,2.23,9,9,0,0,1,2.87,1.91,14.31,14.31,0,0,1-7.32,1.27,2.72,2.72,0,0,0-2.23,0,8.17,8.17,0,0,0,1.59.64,22.34,22.34,0,0,0,9.23-1,86.54,86.54,0,0,0,8,3.5,12.11,12.11,0,0,0-5.41,2.55q-1,1.43,1,0a10.48,10.48,0,0,1,6-1.91l2.23,1a12.81,12.81,0,0,0,1.59,7.64Zm10.19,12.1c-4.78,0-5.73,0-6-.64s-0.32-1,1.27-1.91l1-1.27a7.12,7.12,0,0,1-5.41-6l2.23-1c1-1.27,1-2.23,0-2.55A5.26,5.26,0,0,1,288,89.15c1-2.23,3.18-2.23,7,0q2.39-4.78,5.73-2.87a4.17,4.17,0,0,0-4.46,3.18,13.67,13.67,0,0,0,0,5.09,15.09,15.09,0,0,0-3.18-3.18c-2.23-1.27-2.87-1-1.27.32a55.43,55.43,0,0,1,3.82,4.46,7,7,0,0,1-6,1.91c-0.64.32-.64,0.64,0.32,0.64a6.32,6.32,0,0,0,3.5-.32,14.42,14.42,0,0,0,1,5.09,15.09,15.09,0,0,0,3.18,3.18,0.66,0.66,0,0,0-1,.64h0Zm2.55,2.55c0-1,.64-1.59,2.55-1.59s2.23-.64,1-1.59a12.12,12.12,0,0,1-6-4.46c-1-1.59-1-2.55,0-3.18l1.91-.64,1-1.27-1.27-4.46a4.09,4.09,0,0,1,1.91-4.78,8.39,8.39,0,0,1,6.69,1.91c0-1.27.64-1.59,2.23-1s2.87,3.5,4.14,9.55L315.07,99a4.37,4.37,0,0,1,1.59-2.55c0.64,0,1.27,1.27,1.91,4.14a9.4,9.4,0,0,1,2.55,7.64,8.65,8.65,0,0,0-1.91,5.41l-1-2.23a58.85,58.85,0,0,1-.32-7.64c0-1.27,0-1.27-.32,0a21.34,21.34,0,0,0,0,6.37,58.7,58.7,0,0,0-7.32-8,21.66,21.66,0,0,1-.64-6.37c-0.32-1.91-.32-2.55-0.64-1.27a25.88,25.88,0,0,0,.32,7,63.24,63.24,0,0,1-7-8.6c-0.64-1.27-1-1.59-1-.64a32,32,0,0,0,5.09,7.64,34.47,34.47,0,0,0,4.46,4.78,37,37,0,0,0-5.73-1.27,18.25,18.25,0,0,1-4.46-1.27q-1.91-.48,0,1a13.34,13.34,0,0,0,4.78,1.27,27.51,27.51,0,0,1,6.69,2.23,22.29,22.29,0,0,1,4.46,5.09l1.59,3.5a23.31,23.31,0,0,0-8-2.55,23.85,23.85,0,0,1-5.09-1.27c-2.23-1-2.23-1-.64.32a10.73,10.73,0,0,0,5.41,1.59,27.46,27.46,0,0,1,8.91,3.5l0.32,0.64a3.05,3.05,0,0,0-.64,2.87l1,2.55c-0.64-1-1.91-.64-3.18,1.27A2.93,2.93,0,0,0,316,121a22.68,22.68,0,0,0-8.6-5.73l-0.64,1.27c-4.14-1-6.69-3.5-7.64-6.69h0ZM330,173.2a53.1,53.1,0,0,1-3.82-6,67.37,67.37,0,0,1-3.5-6.69,7.07,7.07,0,0,1-.32-5.09c0.64-1.91,1-3.18,1.27-4.14s0.32-1,0-.64a35.37,35.37,0,0,0-2.23,5.09l-2.55-7a28.32,28.32,0,0,1,4.46-11.14c1-1.59.64-1.59-.32-0.32a34,34,0,0,0-5.09,10.19l-3.82-8.91a24.56,24.56,0,0,1,3.18-9.23c1-2.23,1-2.23-.64.32a32.48,32.48,0,0,0-2.87,7,111.12,111.12,0,0,0-3.82-12.1l-1-.32,0.64,1.27a63.53,63.53,0,0,0,2.87,11.14,19.71,19.71,0,0,0-5.41-3.5c-1-.64-1-0.32,0,0.32a25.29,25.29,0,0,1,5.73,4.46l2.87,6.37a42.79,42.79,0,0,0-7.64-3.82c-1.27-.32-1.27,0,0,0.64a18.88,18.88,0,0,1,8.6,5.41l2.55,6.69c-1,0-2.23-1.27-3.82-4.14a19.31,19.31,0,0,0-9.55-7,2.17,2.17,0,0,1-1.27-2.55c0.32-1,1.27-1.27,2.87-1.27a7.59,7.59,0,0,0-1.91-3.5l-1-1.59c-1.27-2.87-.64-4.14,2.55-4.14a5.56,5.56,0,0,1-1.27-3.82,9,9,0,0,1,1.27-4.78,13.31,13.31,0,0,0,1.27-3.18c1.59,1,3.18,1.59,4.46,2.23a3.91,3.91,0,0,1,2.23,3.5l-0.64,3.82c0.32,0.64,1,.64,1.91-0.64a9.69,9.69,0,0,1,2.55-2.55,8.58,8.58,0,0,1,2.55,2.23c1,1.59.64,4.46-1,8.91l-1.27,3.5c2.87-3.82,5.09-5.73,7-5.41a2.48,2.48,0,0,1,.64,2.55,9.09,9.09,0,0,0,0,4.14,3.88,3.88,0,0,1-1.59,3.82,9.7,9.7,0,0,0-2.55,5.09c2.87-2.23,3.82-1.59,3.18,1.27l-1.59,5.73c-0.32,2.55,0,3.82,1.27,3.82a2,2,0,0,1,2.23.64,7.91,7.91,0,0,1,.32,2.55,6.42,6.42,0,0,0-1,3.5,2.05,2.05,0,0,0,1.91,1.91,1.65,1.65,0,0,0,1.27-.64c1.27-.64,1.91-0.32,1.91,1.27v3.82a6.68,6.68,0,0,0,1.27,3.5,5.71,5.71,0,0,0,2.23,1.59l1.27-1.27v2.87h-3.18q-2.39-3.34-3.82-5.73h0Zm4.14,6H337c-1.27,6.37-2.55,13.37-3.5,17.83l-1.91-1a98,98,0,0,0,2.55-16.87h0Zm-22.6,36.29-4.14-3.5c-2.23-1.91-2.87-3.5-1.91-5.09a11.17,11.17,0,0,1-1.59-2.55,3,3,0,0,1,.32-2.87c0.64-1,2.23-.64,4.78,1.27a9.09,9.09,0,0,0,0-4.14,19.47,19.47,0,0,0-1.59-3.82,27.49,27.49,0,0,0-3.18-5.09c-1-1.91-1.27-2.87-.64-3.18a3.62,3.62,0,0,1,2.55,1c2.23-2.23,3.5-2.87,4.14-1.91a14.08,14.08,0,0,1,1.59,4.78,25.8,25.8,0,0,1,0,7l-0.64.64,0.64,0.64a35.08,35.08,0,0,1-.64,5.73,4.52,4.52,0,0,0,.64,1.91v-2.23a13.3,13.3,0,0,1,1-2.87,9.84,9.84,0,0,0,.64-2.55c0-.32,0-0.32-0.64-0.32a2,2,0,0,0,1.27-1,1,1,0,0,0,0-1.27,16.82,16.82,0,0,1-.32-4.14,27.86,27.86,0,0,0-.64-5.09,9.84,9.84,0,0,1-.64-2.55,1.22,1.22,0,0,0-1.59-1,5.07,5.07,0,0,0-3.82,2.87,28,28,0,0,1,2.23-7.32c1-1.27,1.59-1.59,2.55-1a3.84,3.84,0,0,1,1.59,1.59c0.32,0.64.64,0.64,1.27-.32s1-1,1.27-1a2.71,2.71,0,0,1,1,1.59,21.94,21.94,0,0,1,1,2.55,24.1,24.1,0,0,1,.32,4.78,5.53,5.53,0,0,1-1,4.46,4.44,4.44,0,0,0-1,2.87q0.48,6.69,1,6.69a5.38,5.38,0,0,0,1.91-1,1.53,1.53,0,0,1,1.91-.64,4,4,0,0,1,1,3.82c0,2.23.32,2.55,0.64,0.64s1-2.87,1.91-2.87,1,2.55.64,7.32a50.43,50.43,0,0,0-7,7.32,5.44,5.44,0,0,1,0-4.46,11.31,11.31,0,0,0,1.27-2.87l1-2.87c0.64-2.23.64-2.23-.32-0.64l-1.27,2.55c-0.32.64-1,1.59-1.27,2.23a60.22,60.22,0,0,0-1.59-7.32c-0.64-2.23-1-2.23-.64,0a70.16,70.16,0,0,1,1.27,11.46,24,24,0,0,0-4.46-3.5,20,20,0,0,1-3.82-3.5c-1-.64-1-0.64-0.64.32A61.12,61.12,0,0,0,312.2,212a36.32,36.32,0,0,1,3.5,3.5,2.43,2.43,0,0,1,.64,1.59c-1,1-1.59,2.23-2.55,3.18a1.75,1.75,0,0,1-1-1.59c-0.32-1.91-.64-2.55-1.27-3.18h0Zm-7,12.73c1,0,2.55.64,2.23,1.59a4.37,4.37,0,0,1-1.59,2.55,2.7,2.7,0,0,1-2.55-2.23c0.32-1,1-1.91,1.91-1.91h0ZM266,262a33.72,33.72,0,0,1,3.82-3.18,82,82,0,0,1,14.33-6.37,1,1,0,0,1,1.27.32l1,1.27-1.27,1a5.38,5.38,0,0,1-3.18,1,10.17,10.17,0,0,0-4.46,1,4.08,4.08,0,0,0-3.18,3.5,2.92,2.92,0,0,1-1.27,1.91c-1.91,1-3.5,1.91-5.09,2.55l-4.14-.32Zm10.19,1.27a3.2,3.2,0,0,1,1.59-3.5,5.71,5.71,0,0,1,4.46-1.27c0.64,0,.64,1.27,0,3.5a14.38,14.38,0,0,1-5.41,3.5Zm0.32,2.23a4.52,4.52,0,0,0-1.91.64l-4.14-.64L275,263.3l1.27,1.91,0.32,0.32h0ZM208.1,252.47a3.09,3.09,0,0,1,2.87.32l6,2.87,10.51,3.82a45.47,45.47,0,0,1,4.78,5.73c-2.23.32-4.46,0.32-7,.64L219.88,262l-4.78-5.73a20.6,20.6,0,0,0-2.87-2.55,3.7,3.7,0,0,0-3.18-.64,5,5,0,0,0-1.91,2.55l-0.32-.32A4,4,0,0,1,208.1,252.47Zm6,5.41a3.44,3.44,0,0,1-3.5,0l-1.91-1.59c0.64-1.59,1.59-2.23,2.55-1.59l1.91,1.91Zm-22.29-71.63a75.23,75.23,0,0,1-2.55,14.33c0-3.18-.32-6.37-0.64-9.55l1.27-3.18c0-1.27,0-1.27-.64,0l-0.64,1.27v-2.55l1.91-2.55c1-1.27,1.59-.64,1.27,2.23h0Zm-1.91-7c1-.32,1.27.32,0.64,1.59l-2.55,3.5a16,16,0,0,0-.64-3.82,18.9,18.9,0,0,0,2.55-1.27h0Zm-10.19,6c1.91-7,3.5-10.82,5.09-11.14a64.71,64.71,0,0,1,2.23,13.69,86.44,86.44,0,0,1,0,18.15,33.51,33.51,0,0,1-3.5,13.69l-1.59,3.5c0-5.41,0-9.55.32-12.73,0-3.18.32-7.64,0.32-13.05s0.64-11.78,1-18.78c0.32-1.59.32-2.23-.32-1.27a194.48,194.48,0,0,0-2.55,27.06v7.32l0.32,9.87-1.59-1.91a91.65,91.65,0,0,1-1.59-18.78,130.39,130.39,0,0,1,1.91-15.6h0Zm-11.14,21.33a55.36,55.36,0,0,1,9.55-19.42,32,32,0,0,0-1.27,7.64,103.08,103.08,0,0,0-8.6,19.1,54,54,0,0,0-1.27,7c-0.32-4.78.64-9.55,1.59-14.33h0Zm8.28,10.51-2.87-3.5,1.91-5.09,1,8.6h0ZM234.84,79.91A8.24,8.24,0,0,1,232,85.33,54.81,54.81,0,0,1,221.15,93c-4.46,2.23-11.14,5.09-16.87,8.28v-0.64a169.79,169.79,0,0,1,23.56-15.92c1.91-1.27,1.59-1.59-.64-1q-3.82,1.91-8.6,4.78c-5.09,3.18-10.19,6.69-15,9.87V96.79a96.92,96.92,0,0,1,23.88-16.56,9.79,9.79,0,0,1,7.32-.32h0ZM206.19,83.1a46.41,46.41,0,0,1,16.56-8.91A34.61,34.61,0,0,1,231,72.91a1.37,1.37,0,0,1,1.27,1.27c0,0.32,0,.64-0.32.64l-2.87,3.82a31.25,31.25,0,0,0-10.19,4.14,83,83,0,0,0-13.69,9.87l-1.91,1.27a5,5,0,0,0-5.09,1,159.8,159.8,0,0,1,20.38-15A26,26,0,0,0,225,76.09a35.58,35.58,0,0,0-8,3.5,196.69,196.69,0,0,0-16.87,11.46l-7.64,6.69A86.53,86.53,0,0,1,206.19,83.1h0Zm-7.64,14a5.14,5.14,0,0,1,2.87-1,13.06,13.06,0,0,1,.32,3.5,45.18,45.18,0,0,1-3.18,9.23l-4.78,9.23a20.4,20.4,0,0,0-9.55,4.46c1.59-2.55,3.5-5.73,5.41-8.91,2.23-3.5,5.41-8.6,10.19-15.28q1-1.91,0-1a41.44,41.44,0,0,0-5.73,7.32c-3.18,4.14-7.32,10.82-12.73,19.74L179.76,127l-8.91,13.69a5.48,5.48,0,0,1-3.82.64l-4.14,12.42c0.32,0.64,1.27.32,3.18-.64-1,1.91-2.23,3.18-4.14,3.18l-1-.64-0.64-1.91V152.5h1L165.75,141l-2.55-3.18,0.64-1.91a6.36,6.36,0,0,0,2.55,3.18c1.27-2.23,2.87-5.41,5.09-9.23,2.55-4.14,5.09-8.28,8-12.1v-1q0-1,1,0l6.37-9.23-5.09,8.91c1,1,.32,1.59-1.27,1.91A91.07,91.07,0,0,0,168,140.09l1.27,0.32a1.64,1.64,0,0,0,2.23-1l7.64-13.69,7.32-13.69A51,51,0,0,1,198.54,97.11Zm-27.7,45.53a76.22,76.22,0,0,0-4.14,8.91h-1l2.55-8.28Zm-5.73,14-2.55,7-1.91,6,0.64-5.09,1-3.82,0.64-3.82Zm-4.14-6a63.06,63.06,0,0,1,2.55-10.51l1,1.27Zm18.47-45.85a68,68,0,0,1,6.37-10.19c1-1.91.32-1.91-1.27,0a146.77,146.77,0,0,0-14.65,24.51l2.55-6a81.17,81.17,0,0,1,4.14-9.23,67.54,67.54,0,0,1,6.69-11.46c2.23-2.87,3.5-4.78,4.46-5.41a16.65,16.65,0,0,1,5.41-3.82c0.64,1,.64,1.59.32,1.91l-6.37,15.92a172.55,172.55,0,0,1-15.92,24.83c-2.87,3.18-4.46,5.09-5.09,5.73a6.93,6.93,0,0,0-1.59,2.55l0.64-2.23,2.55-3.82C171.8,120.67,175.94,112.71,179.44,104.75Zm-17.19,93a5.74,5.74,0,0,0-.64-3.18,8,8,0,0,1-1.27-2.23l-1.59-5.09a42.41,42.41,0,0,1-1.59-6h0a0.64,0.64,0,0,1-.64-0.32,10.79,10.79,0,0,1-4.46-4.78,54.45,54.45,0,0,1-2.87-9.55,51.09,51.09,0,0,1-1-14,92.33,92.33,0,0,1,2.87-18.78,56.23,56.23,0,0,1,13.05-24.2c1.59-1.59,2.23-1.91,2.55-1.27a51.11,51.11,0,0,1,0,9.87,56.27,56.27,0,0,1-2.55,10.51c-3.18,11.14-5.41,18.47-6,22.29-1,4.46-2.55,10.51-3.82,17.83a85,85,0,0,1,1.27-22,77.06,77.06,0,0,1,5.73-23.88c1-2.55,1-2.87,0-1.27-5.09,8.91-8.28,22-8.91,39.16a44.38,44.38,0,0,0,1,13.05,7.55,7.55,0,0,0,2.87,4.78,1.59,1.59,0,0,0,1.91,0,41,41,0,0,0,1-8c0.32-1.91.32-4.46,0.64-7A25.53,25.53,0,0,1,161.3,157l0.64,0.64a64.43,64.43,0,0,0-1.27,8.28,19.58,19.58,0,0,1-.32,4.46c-0.32,1.27-.32,4.46-0.64,8.91,1-3.5,2.23-6.69,3.18-9.87l3.82-11.46,5.09-12.1a139.55,139.55,0,0,1,11.78-18.47,14.4,14.4,0,0,1,8-5.73,7,7,0,0,1,0,5.09,24.56,24.56,0,0,1-2.23,8.28h1c-3.82,1-1.91,1.91-2.55,2.87a1.07,1.07,0,0,1-1,.64l-1.91,2.87a1.2,1.2,0,0,1-.64.64,11.17,11.17,0,0,0-1.59,2.55l-0.32.64c-0.64.64-1,1.59-1.59,2.23l-0.64.64L178.81,150l-0.64.64-1.27,1.59-0.64,1L175,154.41l-0.64,1-1.91,1.91,8.6-15,4.14-7.64c1.59-2.87,1.91-3.82,1-3.18-8.6,13.05-13.69,21-15.28,24.2s-3.5,6.37-5.09,9.23a63.63,63.63,0,0,0-3.18,6.69c-0.64,1.59-1.59,4.46-3.18,8.6a50.89,50.89,0,0,0,1.59,6.69,15.79,15.79,0,0,0,2.55,6.37,1.44,1.44,0,0,1,.32,1.91l-0.32.32a5.48,5.48,0,0,0,.64,3.82,36.36,36.36,0,0,0,2.87,8.28l-0.32,1.91c-1.59-3.82-3.18-7.64-4.46-11.78h0Zm-4.14-37.57c-1,6.69-1.59,12.1-2.23,15.92l-0.32-1.27c-0.64-.64.32-5.73,2.55-14.65h0Zm40.43,95.51L197,253.43a1.89,1.89,0,0,0-2.23-.32c-1,.32-1.59-0.32-2.23-1.59a5.5,5.5,0,0,1-7-1.59l-4.14-5.09-3.82-6.69-1.27-1a4.73,4.73,0,0,1-2.87.64,7.81,7.81,0,0,1-5.41-3.5,107.48,107.48,0,0,1-7.64-13.05c-3.82-7.32-7.32-14.65-10.51-22.29-1.27-4.14-2.23-7-2.55-8s-0.64-1-.64,0a25.29,25.29,0,0,0,1.91,7,174.65,174.65,0,0,0,6.69,16.24c2.87,5.73,5.41,11.14,8.28,15.92a80.67,80.67,0,0,1-13.69-19.1,70.21,70.21,0,0,1-5.73-16.24,36.31,36.31,0,0,1-.64-8.28,19.27,19.27,0,0,1,0-6c0.32-1.27,1-1.91,1.91-1.59a12.22,12.22,0,0,1,3.5,3.5,62.06,62.06,0,0,1,7.32,16.24c3.18,8.6,5.09,14,5.73,16.56s1.59,4.78,2.23,6.69a62,62,0,0,0,2.87,6.37,15.38,15.38,0,0,0,4.46,6.37c1.91,1.27,3.5,1.59,4.46.64L171.16,227a1.42,1.42,0,0,0-1.59,0H168l-0.32-.32-0.32-.32A0.31,0.31,0,0,0,167,226a0.64,0.64,0,0,0-.32-0.64v-1.59a70.4,70.4,0,0,1,1.59-8,107.22,107.22,0,0,1,8-18.78,47.69,47.69,0,0,0-.64,7c-3.18,7-5.41,12.73-7,17.19-0.64,3.18-.64,4.78,0,4.46l1-.64-0.64-1.91,0.64-1.27,1.59,2.55,1-.64,0.64,1.27-0.64,1.27,5.73,8.28,1.27-1.27,1,1.27c-1.59,1.59-2.23,2.87-1.91,3.18a76.17,76.17,0,0,0,4.14,6.69c2.55,3.82,4.78,4.78,6.37,3.18a1.44,1.44,0,0,1,1.91.32,11.45,11.45,0,0,1,2.55,3.82V249l-4.78-4.46-2.55-5.41c-1.59-2.23-3.18-4.78-4.78-7.32-1-1.59-2.23-3.82-3.5-6s-3.18-5.09-5.09-8l0.32-1.27,4.14,5.09a109.29,109.29,0,0,1,7.64,10.51c1.59,2.55,2.23,2.87,2.55,1.59l0.64-2.55,1.27,0.64-0.64,5.09L188,238.46a2.11,2.11,0,0,0,.64,2.23,5.71,5.71,0,0,1,1.59,2.23,22.26,22.26,0,0,0,4.14,5.41A38.41,38.41,0,0,0,202,255l6.69,4.46a4.93,4.93,0,0,1,2.55,3.5l2.55,0.64-0.64-3.18,1.59-.32a4.64,4.64,0,0,1,1.91,2.87c2.23,1.59,4.14,3.18,5.73,4.14l-5.73,1-9.55-5.73ZM175,225.73l0.64-.64,3.5,6-0.32.64Zm6,12.1,1.27-1.91,3.18,4.78,1.91,3.5,0.64,1.91a12.47,12.47,0,0,1-3.18-2.55L182.94,241Zm29.61,30.56L203,269.67l1.91-5.09Zm18.15,23.88a117.1,117.1,0,0,1-12.1,9.87l-1.59-.64a117.24,117.24,0,0,0,11.14-8l2.23-2.55H227.2a66.69,66.69,0,0,1-5.41,4.46,33.3,33.3,0,0,1-7.32,4.14l-3.82,1.91,0.64,0.64,2.87,0.32a3,3,0,0,1,1.91,3.18,2.64,2.64,0,0,1-3.82.64h0l-3.18-1.59a7.28,7.28,0,0,0-3.18-2.23l-1.27-1,0.64-1.59,3.82,1.27h1.27l-0.64-1.91,4.46-2.55a1.78,1.78,0,0,0,1.59-1.91h0l0.32-2.23a10.82,10.82,0,0,0,6.37-1,21.13,21.13,0,0,1,6.37-1.91c1.27,0.32,1.27,1.59,0,2.55h0Zm-3.18-5.41-12.1,2.55c-8.91,1.59-17.83,2.87-26.42,3.82a135.29,135.29,0,0,1-19.1-9.87,104.93,104.93,0,0,1-15.6-10.82c-3.5-3.5-4.78-5.73-4.14-6.69a32.84,32.84,0,0,0,4.46-9.55,8.81,8.81,0,0,0,.32-2.87c-1-2.87-.32-4.46,1.91-4.46,3.82-.32,7.64-0.32,11.46-0.32A1.16,1.16,0,0,0,168,248l1.91-3.82-1.27-.64L167,246.11v-2.87c0-.32.32-0.64,0.64-0.32,3.5,1,5.09,2.23,5.09,3.5a11.19,11.19,0,0,0-1.59,6.37v6.69a81.22,81.22,0,0,0-14.65-8l1.91-.32a1.75,1.75,0,0,0,1.59-1c0.32-.64-0.32-0.64-1.27-1a14,14,0,0,0-5.09.64,1.44,1.44,0,0,0,0,1.91,0.31,0.31,0,0,1,.32.32c5.41,2.87,10.82,5.73,16.24,9.23q11,7.16,17.19,11.46a151.16,151.16,0,0,0,16.87-1.59l10.82-1.91c4.46-1,9.23-1.59,14-2.23,2.23-.32,4.46-0.32,6.69-0.64a61.82,61.82,0,0,0,7.64-.64,44.7,44.7,0,0,1,4.14,10.82c0.32,1.59,0,2.55-.64,2.55-6.69,3.5-14,5.73-21.33,7.64h0Zm32.47-4.14-0.64-1.91-3.5,4.46-2.87,1.91a4.37,4.37,0,0,1-3.82,1.27l-4.46-2.23,2.23-1.27,0.64,0.64c-0.32,1.27,0,1,1.59-.64l3.82-3.82a21.12,21.12,0,0,0-1.59-8.91,43.15,43.15,0,0,0-3.18-6.69c-0.32-.64-2.23-1-5.73-0.64a9.17,9.17,0,0,1,7.64-.32l3.18,1.27,1.59-.64-0.32-.32-2.87-1.27h1.59l1.27,1.27,0.32,0.32h0l1,1a42.37,42.37,0,0,1,7.32,9.55,9.09,9.09,0,0,1,.32,5.09c-1.59,1.91-2.87,2.55-3.5,1.91h0Zm14,18.15a1.42,1.42,0,0,1-.64-1.91h0l2.55,2.23a1.5,1.5,0,0,1-1.91-.32h0Zm16.56,0.32,1.27,0.32-0.64.64-3.18,1a11,11,0,0,1-5.09,2.55l-2.23-.32-0.64-1.59a8.44,8.44,0,0,1,1.91-1.59c1-.32,2.23-0.64,3.18-1l3.18,0.64Zm-4.78-1.27c-1.59,0-2.87.64-4.46,1H277.5a26.89,26.89,0,0,0-5.73-4.78l-6-4.78a10.51,10.51,0,0,1,7,.64ZM302,273.8a17.39,17.39,0,0,0,5.73-.32,64.5,64.5,0,0,0,14-10.51,89.4,89.4,0,0,1,17.51-10.82c1.59-1,1.59-1.59.32-1.91a35.26,35.26,0,0,0-6-.64c-1,.64-0.64,1.27.32,1.59a7,7,0,0,1,2.55.32,82.94,82.94,0,0,0-14.33,8.91c0.32-3.18.64-6.69,1-10.19a6.71,6.71,0,0,0-1.59-4.14c-0.64-1,0-1.59,2.23-2.23l1.59-.64v2.87l-2.23-.64,0.32,1.27a4.64,4.64,0,0,0,2.87,1.91l7,0.32h3.18c3.5,0,5.41,1,5.09,2.55a24.1,24.1,0,0,0,.32,4.78,25.65,25.65,0,0,0,4.46,10.51,18.64,18.64,0,0,1-3.18,5.41l-6.69,4.46c-5.73,4.14-13.37,9.23-23.24,15.92A166.81,166.81,0,0,1,288,291a156.4,156.4,0,0,1-24.2-5.41l-1.91-.64,1-1a7.64,7.64,0,0,0,2.23-3.82,11.24,11.24,0,0,0-1-4.46,26.15,26.15,0,0,0-5.09-8v-0.64l2.23-.32a110.45,110.45,0,0,1,14.33,1.91c4.14,1,9.23,1.91,14.65,2.87s9.55,2.23,11.78,2.23h0Zm-9.55-3.5c-2.23-.32-5.73-1-10.82-1.91l4.46-1.59c2.23,0.64,3.82,0,4.14-1.59a15.25,15.25,0,0,0,2.23,5.09h0Zm26.74-37.57a5.69,5.69,0,0,0-1.59,5.73,29,29,0,0,0-6.69,5.73,49.61,49.61,0,0,0-5.09,6.37,6.79,6.79,0,0,1-3.5,3.18,5.11,5.11,0,0,1-5.09-1L296.6,256l-8.6,5.09-4.14,2.23a18.79,18.79,0,0,0,.64-4.46l1.59-1.27c5.73-3.18,9.23-5.73,10.19-8.28a20.92,20.92,0,0,1,3.82-5.41c1.27-1.59,2.55-3.18,2.87-5.09V235.6l-0.32-3.18q1.91,2.39,3.82,1a55.66,55.66,0,0,1,5.73-9.23,77.47,77.47,0,0,1,6.37-8l5.73-6.37V213a120.72,120.72,0,0,0-9.55,12.73,94.18,94.18,0,0,0-8.91,15.6,12.78,12.78,0,0,1-4.14,5.09,11.43,11.43,0,0,0-3.18,2.23q-1,1.43,1,1a5.73,5.73,0,0,1,2.87-1.91c1.91-1,5.73-5.41,12.1-13.37v-4.46l1.27-2.55a6.36,6.36,0,0,0,.64,4.14c0.64,0.32,1.27-.32,2.23-2.23s3.18-6.37,6.69-13.69a9.82,9.82,0,0,0,0,6,5.93,5.93,0,0,0-1.59,7.32Zm28.65-28a11.56,11.56,0,0,1-2.23,5.41c-3.5,4.14-4.78,6.37-4.46,7a4.82,4.82,0,0,1-.64,5.41,55.8,55.8,0,0,1-7.32,7.64,3.16,3.16,0,0,1-1.59,4.14h-0.32a86.54,86.54,0,0,1-8,3.5,26.63,26.63,0,0,0,10.19-13.37,12.59,12.59,0,0,1,4.78-3.18c1.27-.64,1.27-1.27.64-1a14.7,14.7,0,0,0-4.78,2.87,37.11,37.11,0,0,0,3.5-10.51A29.1,29.1,0,0,0,344,205c1.27-1.91,1.27-2.23,0-1.27a29,29,0,0,1-5.73,6.69c1.27-4.14,2.23-8,3.18-12.1,0.32-2.55.32-3.18-.32-1.27l-1.27,4.46a16.46,16.46,0,0,0-1.91-4.14l1.59,5.41a41.07,41.07,0,0,1-2.55,8.91,50.73,50.73,0,0,0-4.78-9.23q-2.87-3.34-1,0a34.73,34.73,0,0,1,4.78,11.14,55,55,0,0,1-3.5,10.19,7.67,7.67,0,0,0-3.18-3.18c-1-.32-1-0.32,0,0.64a12.47,12.47,0,0,1,2.55,3.18,19.9,19.9,0,0,1-4.14,6.37L323,235.6a13.51,13.51,0,0,0,1.91-10.51,1.5,1.5,0,0,1,1.59-1.59c1-.32,1.27-1,1-1.27a10.36,10.36,0,0,1-1.27-4.46,5.43,5.43,0,0,1,3.18,0c1-.64,1-1.91-0.32-3.18a10.37,10.37,0,0,1-2.55-6c0-1.59,1-2.23,3.18-1.59,1,0,1-1,.32-3.18l-2.23-2.87q-2.39-5.25,1.91-3.82L332.9,199c2.23,1,3.18-.64,3.18-4.46,0-1,.64-1,1.91-0.64s2.55-.64,3.5-2.87c1-1.27,1.91,0,2.55,3.18-0.32,4.46,1,6.69,3.18,6.37a5,5,0,0,1,.64,4.14h0Zm3.82-11.14a3,3,0,0,1-.64,2.23,12.9,12.9,0,0,1-2.87,1.59l-1.59-2.87a8.89,8.89,0,0,0-1.91-5.73,12.9,12.9,0,0,1,2.87-1.59c1-.32.64-0.64-0.64-0.32a29.46,29.46,0,0,1-3.18,1H343.4a17.35,17.35,0,0,1,3.82-7.64c0.32-1.27.32-1-.64,0a26,26,0,0,0-3.82,6.37,11.31,11.31,0,0,1-1.27-2.87c-0.32-1.59-.64-1.59-0.64,0a9,9,0,0,0,1.27,4.14c-1.91,2.87-3.5,4.14-4.46,3.5,0.64-4.14,1.59-8.28,2.55-12.73a4.53,4.53,0,0,1,5.09-1.91,4,4,0,0,1,5.09-1,8.48,8.48,0,0,1,1,3.82,9,9,0,0,1-1.27,4.14,2,2,0,0,1,2.55,1.59v0.32A9.45,9.45,0,0,1,348.5,192a3.92,3.92,0,0,1,3.18,1.59h0Z"/></clipPath><clipPath id="clip-path-13" transform="translate(-34.63 -8.93)"><path class="cls-1" d="M337.36,176.06L335.45,178h0Zm1-3.18h0l-1.27,6Zm-85.32,92,0.64,0.64h0.32Zm-77-29.61h0c-1,1.27-2.55,1-4.46-1C173.39,236.24,175,236.55,175.94,235.28Zm6.37-90.42-1.59,2.23Zm1.91-3.18-1.59,2.55Zm-26.74,37.25a2.43,2.43,0,0,1-1.59-.64,1.16,1.16,0,0,0,1.59.64h0Zm11.78,47.76c-0.32-.32-0.64-0.32-1-0.64a0.8,0.8,0,0,0,1,.64h0Zm-1.91-1.91a1.42,1.42,0,0,1,0-1.59,1.42,1.42,0,0,0,0,1.59h0Zm11.14-74.5-1.59,1.59Zm1.91-2.55-1.59,1.91Zm-3.82,5.09L175,154.41a3.84,3.84,0,0,0,1.59-1.59h0ZM175.94,235h0Zm-17.83-53.49h0c-0.32-.32-1-0.32-1.27-0.64a2.41,2.41,0,0,0,1.27.64h0Zm23.56-57L180.08,127Zm-8.28,113A9,9,0,0,1,168,234a9.42,9.42,0,0,0,5.41,3.5h0Zm4.46-35.34-1.27.32v1l-0.32.64,1.59-.32v-1.59h0Zm5.09,9.87-1.59,1.59v2.23l1.59-1.59a2.69,2.69,0,0,1,0-2.23h0Zm0-1.91v-1.27a6.93,6.93,0,0,1-1.59-2.55v3.18c0.64,0.64,1,1.59,1.59,2.23v-1.59h0ZM188.68,184c-0.32-.64-0.32-1.27-0.64-1.91a4.53,4.53,0,0,1,.64,1.91h0Zm-7.32-36.93-1.27,1.59Zm1.91-2.87L182,145.82Zm-5.41,7.64-1.59,1.59Zm-1.91,2.23-1.59,1.59,1.59-1.59h0Zm3.82-4.46-1.59,1.59Zm-27.38,26.42a9.36,9.36,0,0,0,4.46,4.78,10.79,10.79,0,0,1-4.46-4.78h0ZM168.94,227c-0.32-.32-1-0.64-1.27-1a4.39,4.39,0,0,0,1.27,1h0Zm103.15,73.86a1.44,1.44,0,0,0,1.91.32L271.45,299a1.42,1.42,0,0,0,.64,1.91h0ZM172.44,156.64h0Zm0.64-.32,2.87,1.59v0.32a97.48,97.48,0,0,0-1.59,10.19v0.64L167,170.65v8.28l7.32,1.59v0.64c0.32,3.5,1,6.69,1.59,10.19v0.32l-0.32.64-6,3.5c0.32,1.27,1,3.18,1.59,5.09a15.52,15.52,0,0,0-1,2.23c-1-2.55-1.91-6-2.23-7.32l-0.32-.64,6.69-3.82a46,46,0,0,1-1.27-9.23l-7.32-1.59V169.7l7.32-1.59a91.87,91.87,0,0,1,1.27-9.23l-3.5-1.91v-0.32l0.64-1,1.27,0.64-0.64,1,0.32-.32,0.64-.64h0l1-1Zm-3.5,70.36a1.17,1.17,0,0,1-1-.32,1.17,1.17,0,0,0,1,.32h1a1.91,1.91,0,0,1-1.27-.32Zm-1.91-.64v0a0.64,0.64,0,0,0-.32-0.64c-0.32-.32.32,0.32,0.32,0.64a1.91,1.91,0,0,1-.32-1.27,7.22,7.22,0,0,0,.32,1.27,0.64,0.64,0,0,0,.32.64,1.11,1.11,0,0,1-.32-0.64h0Z"/></clipPath><clipPath id="clip-path-14" transform="translate(-34.63 -8.93)"><path class="cls-1" d="M246,120.35l-12.42,36-0.32.64h-0.64l-37.89,1L225,180.84l0.32,0.32-0.32.64-10.82,36.61,31.2-21.65,0.32-.32,0.32,0.64,31.2,21.65L267,182.11l-0.32-.64,0.32-.32,30.25-23.24-37.89-1h-0.64l-0.32-.64Zm-14,34.7L245,117.48l0.64-2.23,1,2.23L260,155.37l39.8,1h2.55l-1.91,1.59-31.84,24.2L280,220.32l0.64,2.23-1.91-1.27L246,198.67l-32.79,22.6-1.91,1.27,0.64-2.23,11.46-38.2-31.84-24.2-1.91-1.59h2.55Z"/></clipPath></defs><title>repubblica-italiana-tecnologica</title><g class="cls-2"><g id="Layer_1" data-name="Layer 1"><g class="cls-3"><path class="cls-4" d="M247.8,285.22a90.7,90.7,0,0,1-29.79-5l4.21-12.17a77.75,77.75,0,0,0,25.48,4.26h0.24v12.88H247.8Zm21.56-2.6-3.06-12.51A77.34,77.34,0,0,0,290,259.87l7,10.81A90.14,90.14,0,0,1,269.35,282.62Zm-70.73-11.8a91,91,0,0,1-22.27-20.25l10.12-8A78.12,78.12,0,0,0,205.59,260Zm114.95-13.9-9.34-8.87a77.85,77.85,0,0,0,14.45-21.42L330.4,232A90.72,90.72,0,0,1,313.57,256.92ZM165.12,232.19a90.13,90.13,0,0,1-7.79-29.08l12.82-1.22a77.32,77.32,0,0,0,6.68,24.94ZM336.91,211.4L324.25,209a78.88,78.88,0,0,0,.56-25.84l12.75-1.84A91.75,91.75,0,0,1,336.91,211.4Zm-166.33-28-12.76-1.81a90.06,90.06,0,0,1,9.14-28.7l11.45,5.9A77.2,77.2,0,0,0,170.58,183.39ZM320,165.33a77.73,77.73,0,0,0-13.5-22l9.72-8.46A90.57,90.57,0,0,1,332,160.51ZM188.78,143.46L179,135a90.93,90.93,0,0,1,23.18-19.19L208.68,127A78.07,78.07,0,0,0,188.78,143.46Zm104-12.58a77.43,77.43,0,0,0-23.24-11.26l3.6-12.37a90.27,90.27,0,0,1,27.1,13.13Zm-67.13-11.2L222,107.33a90.91,90.91,0,0,1,25.68-3.68c1.38,0,2.79,0,4.19.09l-0.58,12.87c-1.21-.05-2.43-0.08-3.61-0.08A78,78,0,0,0,225.66,119.68Z" transform="translate(-34.63 -8.93)"/><path class="cls-4" d="M247.7,81.91A112.51,112.51,0,1,0,360.2,194.42,112.51,112.51,0,0,0,247.7,81.91Zm0,222.27A109.76,109.76,0,1,1,357.46,194.42,109.76,109.76,0,0,1,247.7,304.18Z" transform="translate(-34.63 -8.93)"/><path class="cls-4" d="M247.7,17.33A177.09,177.09,0,1,0,424.79,194.42,177.1,177.1,0,0,0,247.7,17.33Zm0,349.87A172.77,172.77,0,1,1,420.47,194.42,172.76,172.76,0,0,1,247.7,367.19Z" transform="translate(-34.63 -8.93)"/><path class="cls-4" d="M355.05,91.92L339,106.16a127.41,127.41,0,0,1,13.76,16.91L371,111.77A149.06,149.06,0,0,0,355.05,91.92Z" transform="translate(-34.63 -8.93)"/><path class="cls-4" d="M366.24,148.89a126.35,126.35,0,0,1,8.23,38.55L395.54,181a147.55,147.55,0,0,0-9.42-40.28Z" transform="translate(-34.63 -8.93)"/><path class="cls-4" d="M373,214.89a126.55,126.55,0,0,1-31.6,65.18L359.6,292a147.84,147.84,0,0,0,35.73-82Z" transform="translate(-34.63 -8.93)"/><path class="cls-4" d="M153.88,108.91L136.73,95.84a148.71,148.71,0,0,0-22.1,32.75L132,142.08A127.16,127.16,0,0,1,153.88,108.91Z" transform="translate(-34.63 -8.93)"/><path class="cls-4" d="M123.49,220.71l-20.87,5.19q1.39,6.42,3.32,12.63l20.83-5.42A126.59,126.59,0,0,1,123.49,220.71Z" transform="translate(-34.63 -8.93)"/><path class="cls-4" d="M141.13,263.44l-20.65,7.5a149,149,0,0,0,18.14,24.14l13.31-17.33A127.47,127.47,0,0,1,141.13,263.44Z" transform="translate(-34.63 -8.93)"/><path class="cls-4" d="M187.88,306.42l-4.8,21.66a147.3,147.3,0,0,0,38.37,12.46l4.22-21.08A125.89,125.89,0,0,1,187.88,306.42Z" transform="translate(-34.63 -8.93)"/><path class="cls-4" d="M339.86,310.8l-10.21-19.41a126.45,126.45,0,0,1-82,30c-0.94,0-1.87,0-2.8,0l2.63,21.53h0.17A147.8,147.8,0,0,0,339.86,310.8Z" transform="translate(-34.63 -8.93)"/><path class="cls-4" d="M247.7,46a147.78,147.78,0,0,0-89.16,29.75l13.41,16.8a127,127,0,0,1,156.63,4l14.14-16.18A147.86,147.86,0,0,0,247.7,46Z" transform="translate(-34.63 -8.93)"/><path class="cls-4" d="M247.7,30.19A164.23,164.23,0,1,0,411.93,194.42,164.24,164.24,0,0,0,247.7,30.19Zm0,322.35A158.12,158.12,0,1,1,405.82,194.42,158.12,158.12,0,0,1,247.7,352.54Z" transform="translate(-34.63 -8.93)"/></g><g class="cls-5"><path class="cls-4" d="M248.05,484.54H247.7c-2.07,0-4.14,0-6.16,0l0.41-5c1.89,0,3.83,0,5.76,0h0.36v5Zm8.64-.09-0.59-5c1.93,0,3.87-.09,5.75-0.16l1,4.95C260.82,484.35,258.76,484.4,256.7,484.45Zm-23.78-.16c-2-.07-4.11-0.15-6.14-0.25l1.37-4.93c1.89,0.09,3.82.17,5.73,0.23Zm38.51-.39L269.87,479c1.91-.1,3.83-0.22,5.7-0.35l2,4.9C275.53,483.66,273.48,483.79,271.43,483.9Zm-53.2-.35c-2-.14-4.07-0.29-6.07-0.45l2.34-4.87c1.87,0.15,3.77.3,5.66,0.42Zm67.78-.69L283.49,478c1.86-.17,3.75-0.35,5.61-0.54l2.92,4.81C290,482.49,288,482.68,286,482.86Zm-82.27-.54c-2-.2-4-0.43-6-0.66l3.29-4.77c1.84,0.22,3.72.42,5.57,0.62Zm96.61-1-3.48-4.75c1.83-.23,3.68-0.47,5.48-0.73l3.87,4.7C304.28,480.82,302.31,481.08,300.34,481.33Zm-110.81-.73c-1.93-.27-3.89-0.56-5.82-0.86l4.23-4.65c1.81,0.28,3.64.55,5.44,0.8Zm124.79-1.28-4.41-4.62c1.76-.29,3.55-0.59,5.3-0.91l4.79,4.55C318.12,478.68,316.21,479,314.32,479.32Zm-138.63-.92c-1.88-.34-3.77-0.69-5.63-1.06l5.14-4.48c1.73,0.34,3.5.67,5.26,1Zm152.14-1.55-5.31-4.45c1.71-.35,3.43-0.72,5.11-1.09l5.67,4.37C331.49,476.08,329.65,476.47,327.82,476.84Zm-165.49-1.11c-1.8-.4-3.61-0.81-5.4-1.24l6-4.3c1.67,0.4,3.37.79,5,1.16Zm178.46-1.81-6.17-4.26c1.63-.4,3.27-0.83,4.88-1.26l6.51,4.17C344.3,473,342.54,473.49,340.79,473.92Zm-191.23-1.3c-1.71-.45-3.43-0.93-5.13-1.42l6.84-4.08c1.59,0.45,3.2.9,4.79,1.33Zm203.59-2.05-7-4c1.55-.46,3.11-0.94,4.62-1.42l7.31,3.94C356.48,469.57,354.81,470.08,353.15,470.57ZM137.45,469.1c-1.61-.51-3.24-1-4.83-1.58l7.62-3.84c1.49,0.51,3,1,4.52,1.48Zm227.37-2.28L357.06,463c1.46-.51,2.92-1,4.33-1.57l8.06,3.68C367.95,465.7,366.39,466.27,364.82,466.82Zm-238.75-1.63c-1.5-.56-3-1.15-4.5-1.74l8.34-3.57c1.39,0.55,2.8,1.1,4.21,1.63Zm249.64-2.5-8.47-3.52c1.34-.55,2.69-1.13,4-1.71l8.75,3.4C378.6,461.47,377.15,462.09,375.71,462.68ZM115.51,460.9c-1.39-.61-2.78-1.25-4.14-1.88l9-3.28c1.27,0.6,2.58,1.19,3.88,1.76Zm270.26-2.71L376.64,455c1.24-.6,2.47-1.22,3.66-1.84l9.39,3.09C388.41,456.89,387.09,457.55,385.77,458.19Zm-279.95-1.91c-1.28-.66-2.54-1.34-3.76-2l9.63-3c1.14,0.63,2.32,1.27,3.51,1.88Zm289.09-2.9-9.73-2.9c1.12-.64,2.23-1.3,3.3-2l10,2.77C397.3,452,396.11,452.69,394.91,453.38Zm-297.84-2c-1.14-.7-2.27-1.42-3.35-2.14l10.18-2.63c1,0.67,2.07,1.34,3.13,2Zm306-3.08-10.27-2.57c1-.68,2-1.37,2.9-2.06l10.48,2.42C405.19,446.8,404.15,447.55,403.08,448.27ZM89.33,446.15c-1-.73-2-1.49-2.92-2.24l10.66-2.28c0.88,0.7,1.8,1.41,2.73,2.09Zm320.9-3.24-10.75-2.21c0.85-.71,1.69-1.43,2.48-2.15l10.92,2.06C412,441.37,411.14,442.15,410.23,442.9ZM82.64,440.7c-0.85-.77-1.68-1.55-2.46-2.33l11.08-1.91c0.73,0.72,1.5,1.46,2.3,2.17Zm333.64-3.4-11.15-1.84c0.71-.73,1.4-1.48,2-2.23l11.29,1.68C417.78,435.72,417,436.52,416.29,437.31ZM77.06,435.05c-0.7-.8-1.37-1.61-2-2.41l11.42-1.53c0.59,0.75,1.21,1.51,1.87,2.25Zm344.16-3.54-11.48-1.45c0.56-.76,1.09-1.52,1.59-2.29l11.59,1.29C422.39,429.88,421.81,430.71,421.21,431.52Zm-348.62-2.3c-0.53-.81-1-1.64-1.51-2.47l11.69-1.14c0.44,0.77.91,1.55,1.41,2.31ZM425,425.6l-11.73-1.06c0.41-.77.79-1.56,1.13-2.34l11.81,0.89C425.81,423.93,425.4,424.77,425,425.6ZM69.31,423.25c-0.37-.83-0.71-1.68-1-2.51L80.16,420c0.28,0.78.6,1.57,1,2.35Zm358.22-3.68-11.9-.66c0.25-.78.48-1.58,0.67-2.37L428.24,417C428,417.88,427.8,418.74,427.53,419.57ZM67.21,417.2c-0.21-.84-0.38-1.69-0.52-2.54l12-.34c0.13,0.79.29,1.59,0.49,2.37Zm361.68-3.71-12-.26c0.1-.79.17-1.59,0.2-2.38l12,0.09C429.07,411.78,429,412.64,428.89,413.48ZM66.31,411.09q0-.79,0-1.57,0-.49,0-1l12,0.06q0,0.46,0,.91,0,0.74,0,1.47Zm350.76-3.58c-0.06-.8-0.14-1.6-0.26-2.38l12-.31c0.13,0.84.22,1.69,0.28,2.55ZM78.58,405.27l-12-.3c0.12-.85.28-1.7,0.47-2.54l12,0.46C78.85,403.68,78.7,404.48,78.58,405.27Zm337.54-3.47c-0.21-.79-0.45-1.59-0.73-2.36l11.88-.71c0.29,0.83.55,1.68,0.77,2.53ZM80,399.59l-11.88-.7c0.29-.84.61-1.68,1-2.52l11.82,0.86C80.54,398,80.23,398.81,80,399.59Zm334.1-3.43c-0.36-.78-0.76-1.56-1.19-2.33l11.7-1.11c0.45,0.82.88,1.66,1.27,2.49ZM82.46,394l-11.71-1.1c0.45-.82.94-1.66,1.47-2.48l11.61,1.26C83.35,392.42,82.89,393.2,82.46,394Zm328.43-3.37c-0.51-.76-1.07-1.53-1.64-2.28l11.44-1.5c0.62,0.81,1.21,1.63,1.76,2.45ZM86.07,388.46L74.62,387c0.62-.81,1.28-1.63,2-2.43l11.32,1.65C87.26,386.93,86.64,387.7,86.07,388.46Zm320.56-3.29c-0.66-.74-1.37-1.49-2.09-2.22l11.1-1.89c0.78,0.78,1.53,1.58,2.24,2.38Zm-315.86-2.1-11.11-1.87c0.78-.79,1.6-1.58,2.43-2.35l11,2C92.26,381.59,91.49,382.33,90.77,383.07ZM401.3,379.9c-0.81-.72-1.66-1.43-2.52-2.13l10.7-2.25c0.92,0.75,1.83,1.52,2.7,2.29Zm-304.78-2-10.7-2.25c0.93-.76,1.91-1.52,2.89-2.26l10.51,2.4C98.3,376.44,97.39,377.15,96.52,377.86Zm298.44-3c-1-.69-1.94-1.38-2.93-2l10.22-2.61c1.07,0.71,2.12,1.45,3.14,2.19Zm-291.68-2-10.22-2.6c1.08-.72,2.2-1.45,3.33-2.15l10,2.74C105.33,371.52,104.28,372.2,103.28,372.87ZM387.63,370c-1.08-.65-2.2-1.3-3.33-1.94l9.67-2.94c1.21,0.68,2.41,1.38,3.56,2.08ZM111,368.13l-9.68-2.94c1.21-.68,2.46-1.36,3.73-2l9.43,3.07C113.3,366.85,112.13,367.49,111,368.13Zm268.37-2.7c-1.2-.61-2.44-1.22-3.7-1.82l9.06-3.26c1.35,0.64,2.68,1.3,4,2Zm-259.74-1.77-9.07-3.25c1.35-.64,2.73-1.28,4.12-1.9l8.8,3.38C122.18,362.46,120.88,363.06,119.63,363.66Zm250.61-2.52c-1.32-.57-2.68-1.14-4.05-1.69l8.4-3.55c1.46,0.59,2.92,1.2,4.33,1.81ZM129.1,359.49l-8.4-3.54c1.46-.59,3-1.18,4.47-1.75l8.11,3.66C131.87,358.39,130.46,358.94,129.1,359.49Zm231.2-2.32c-1.43-.53-2.9-1.05-4.37-1.55l7.67-3.82c1.57,0.54,3.14,1.1,4.68,1.66Zm-220.95-1.51-7.68-3.81c1.57-.54,3.18-1.08,4.8-1.6l7.37,3.92C142.32,354.66,140.81,355.16,139.35,355.66Zm210.25-2.11c-1.54-.48-3.11-1-4.66-1.4l6.9-4.06c1.66,0.48,3.34,1,5,1.5Zm-199.29-1.36-6.91-4.06c1.68-.49,3.39-1,5.1-1.43l6.57,4.15C153.48,351.29,151.88,351.74,150.31,352.19Zm187.91-1.9c-1.62-.42-3.28-0.84-4.93-1.24l6.07-4.28c1.77,0.43,3.54.87,5.27,1.33Zm-176.31-1.2-6.08-4.28c1.76-.43,3.56-0.85,5.36-1.25l5.73,4.36C165.24,348.31,163.56,348.7,161.91,349.1Zm164.33-1.66c-1.7-.37-3.44-0.73-5.16-1.07l5.21-4.47c1.84,0.37,3.7.75,5.52,1.15Zm-152.17-1-5.22-4.47c1.86-.37,3.74-0.73,5.59-1.07l4.84,4.54C177.56,345.73,175.81,346.07,174.08,346.41ZM313.73,345c-1.77-.31-3.58-0.61-5.36-0.89l4.3-4.63c1.91,0.3,3.83.62,5.73,1Zm-127-.85-4.32-4.63c1.9-.3,3.85-0.6,5.79-0.88l3.94,4.69C190.32,343.58,188.5,343.86,186.72,344.14Zm114-1.17c-1.82-.25-3.67-0.49-5.5-0.71l3.36-4.76c2,0.24,3.94.49,5.89,0.76Zm-101-.67-3.38-4.76c2-.24,4-0.47,5.95-0.68l3,4.81C203.52,341.87,201.65,342.08,199.8,342.31Zm87.67-.9c-1.85-.18-3.74-0.36-5.62-0.52l2.41-4.86c2,0.17,4,.36,6,0.55Zm-74.27-.49-2.43-4.86c2-.17,4-0.33,6.06-0.47l2,4.89C217,340.61,215.07,340.76,213.2,340.92Zm60.72-.62c-1.89-.12-3.81-0.23-5.71-0.33l1.44-4.93c2,0.1,4.08.22,6.11,0.35ZM226.84,340l-1.46-4.93c2-.1,4.09-0.19,6.13-0.27l1.06,4.94C230.66,339.82,228.73,339.9,226.84,340Zm33.35-.34c-1.91-.06-3.84-0.1-5.75-0.13l0.47-5c2,0,4.11.08,6.16,0.14Zm-19.58-.13-0.49-5c2,0,4.09-.05,6.15-0.06l0.1,5C244.44,339.48,242.51,339.5,240.61,339.53Z" transform="translate(-34.63 -8.93)"/></g><g class="cls-5"><path class="cls-4" d="M247.7,331c-104.83,0-189.83,35.14-189.83,78.48S142.87,488,247.7,488s189.83-35.13,189.83-78.48S352.55,331,247.7,331Zm0,155.05c-102.28,0-185.18-34.28-185.18-76.57S145.41,333,247.7,333s185.2,34.27,185.2,76.56S350,486.09,247.7,486.09Z" transform="translate(-34.63 -8.93)"/></g><g class="cls-5"><path class="cls-4" d="M247.7,341.29c-91.13,0-165,30.55-165,68.23s73.89,68.23,165,68.23,165-30.54,165-68.23S338.85,341.29,247.7,341.29Zm0,134.79c-88.91,0-161-29.8-161-66.56S158.78,343,247.7,343s161,29.79,161,66.55S336.61,476.08,247.7,476.08Z" transform="translate(-34.63 -8.93)"/></g><g class="cls-5"><path class="cls-4" d="M247.7,349.4c-76.4,0-138.31,25.6-138.31,57.19s61.92,57.19,138.31,57.19S386,438.17,386,406.59,324.09,349.4,247.7,349.4Zm0,106.1c-65.34,0-118.3-21.9-118.3-48.92s53-48.91,118.3-48.91S366,379.57,366,406.59,313,455.5,247.7,455.5Z" transform="translate(-34.63 -8.93)"/><path class="cls-4" d="M247.7,343.32c-84.51,0-153,28.33-153,63.27s68.52,63.27,153,63.27,153-28.32,153-63.27S332.23,343.32,247.7,343.32Zm0,124.19c-81.37,0-147.35-27.27-147.35-60.92s66-60.92,147.35-60.92S395,372.95,395,406.59,329.09,467.51,247.7,467.51Z" transform="translate(-34.63 -8.93)"/></g><path class="cls-4" d="M247.7,345.08c-62.6,0-113.36,21-113.36,46.87s50.76,46.87,113.36,46.87,113.36-21,113.36-46.87S310.31,345.08,247.7,345.08Zm0,92.59c-61.08,0-110.58-20.47-110.58-45.73s49.5-45.72,110.58-45.72,110.6,20.47,110.6,45.72S308.77,437.67,247.7,437.67Z" transform="translate(-34.63 -8.93)"/><path class="cls-4" d="M247.7,338.21c-58.74,0-106.37,19.69-106.37,44s47.63,44,106.37,44,106.37-19.69,106.37-44S306.45,338.21,247.7,338.21Zm0,82.21c-51.07,0-92.47-17.12-92.47-38.24S196.62,344,247.7,344s92.48,17.11,92.48,38.23S298.77,420.42,247.7,420.42Z" transform="translate(-34.63 -8.93)"/><path class="cls-4" d="M247.79,402.52A196.39,196.39,0,0,1,220,400.61l3.93-4.69a168.33,168.33,0,0,0,23.74,1.64h0.23v5h-0.14Zm20.09-1L265,396.7a140.49,140.49,0,0,0,22.09-3.94l6.53,4.17A163.76,163.76,0,0,1,267.88,401.52ZM202,397a100.57,100.57,0,0,1-20.75-7.8l9.43-3.07a86.36,86.36,0,0,0,17.82,6.7Zm107.11-5.35-8.71-3.42A49.2,49.2,0,0,0,313.83,380L324.76,382A57.33,57.33,0,0,1,309.08,391.62Zm-138.32-9.53c-3.93-3.54-6.37-7.31-7.26-11.2l12-.47c0.77,3.34,2.86,6.57,6.22,9.61Zm160.08-8-11.8-.92a13.43,13.43,0,0,0,1.27-5.62,13.1,13.1,0,0,0-.75-4.34l11.88-.71a15.23,15.23,0,0,1,.87,5A15.65,15.65,0,0,1,330.83,374.09Zm-155-10.79-11.89-.7c1.33-3.87,4.19-7.59,8.52-11.06l10.67,2.27C179.43,356.79,177,360,175.84,363.29Zm139.24-7a43.66,43.66,0,0,0-12.58-8.48l9.05-3.26a50.87,50.87,0,0,1,14.66,9.88ZM192.8,347.91l-9.08-3.25a109.83,109.83,0,0,1,21.6-7.39l6,4.29A94.29,94.29,0,0,0,192.8,347.91Zm96.93-4.85a134.08,134.08,0,0,0-21.66-4.34l3.36-4.76A156.33,156.33,0,0,1,296.68,339Zm-62.56-4.32L223.77,334a198.93,198.93,0,0,1,23.93-1.42c1.28,0,2.6,0,3.91,0l-0.54,5c-1.13,0-2.26,0-3.37,0A170.71,170.71,0,0,0,227.16,338.75Z" transform="translate(-34.63 -8.93)"/><ellipse class="cls-6" cx="213.07" cy="358.62" rx="62.21" ry="25.72"/><ellipse class="cls-7" cx="213.07" cy="358.62" rx="36.6" ry="15.13"/><ellipse class="cls-8" cx="213.07" cy="358.62" rx="22.27" ry="9.21"/><path class="cls-9" d="M34.63,8.93l1.44,3.54,4.08,10L46.44,38l8,19.78,9.3,22.88L73.9,105.53l10.54,25.92,10.63,26.16,10.47,25.76,10.12,24.89,9.62,23.67,9,22.21,8.37,20.6,7.68,18.9,7,17.15,6.25,15.38,5.53,13.61,4.81,11.84,4.1,10.08,3.38,8.32,2.65,6.53,1.91,4.7c0.38,0.93.81,1.86,1.14,2.8a7.6,7.6,0,0,0,3.53,4.62,30.23,30.23,0,0,0,6.64,2.88,112.9,112.9,0,0,0,21.63,4.23,250.56,250.56,0,0,0,28.77,1.55h1.11a245.87,245.87,0,0,0,29-1.71,105.35,105.35,0,0,0,21.15-4.35,26.41,26.41,0,0,0,6.31-2.93c2.53-1.74,3-4.1,3.92-6.45l1.8-4.43,129.69-319,8.14-20,6.38-15.7,4.14-10.18,1.46-3.59H34.63Z" transform="translate(-34.63 -8.93)"/><path class="cls-10" d="M145.71,8.93L146,10.76l0.72,5.29,1.15,8.43,1.53,11.25,1.87,13.76,2.17,16,2.42,17.83,2.64,19.39,2.81,20.63,2.93,21.56,3,22.17,3.05,22.47,3.05,22.45,3,22.11,2.92,21.46L182,276l2.61,19.21L187,312.82l2.13,15.7L191,342l1.48,10.92,1.1,8.06c0.22,1.62.48,3.24,0.66,4.88,0.38,3.46.83,5.79,2.59,8.18a22.24,22.24,0,0,0,5.63,5.2c6,4.09,12.66,6.21,19.16,7.75a112.34,112.34,0,0,0,26.07,2.88h1A110.43,110.43,0,0,0,275,386.67c6.35-1.6,12.87-3.77,18.7-8a20.55,20.55,0,0,0,5.31-5.28c2-3.09,2.14-7.27,2.7-11.37l1-7.62L346,36.12l1.55-11.41,1.16-8.55,0.73-5.37,0.25-1.86h-204Z" transform="translate(-34.63 -8.93)"/><ellipse class="cls-11" cx="225.97" cy="384.55" rx="5.81" ry="2.42"/><ellipse class="cls-12" cx="225.97" cy="384.55" rx="3.42" ry="1.42"/><ellipse class="cls-13" cx="225.97" cy="384.55" rx="2.08" ry="0.86"/><path class="cls-14" d="M263,392.7v-0.06s0,0,0-.07V380.22l0-.8,0-.82,0-.85,0-.87,0-.9,0-.92,0-.95,0-1,0-1,0-1,0-1.05,0-1.08,0-1.1,0-1.13,0-1.16,0-1.18,0-1.21,0-1.23,0-1.26,0-1.29,0-1.31,0-1.34,0-1.36,0-1.39,0-1.42,0-1.44,0-1.47,0-1.49,0-1.52,0-1.54,0-1.57,0-1.59,0-1.61,0-1.64,0-1.66,0-1.68,0-1.7,0-1.72,0-1.74,0-1.76,0-1.78,0-1.8,0-1.81,0-1.82,0-1.84,0-1.85,0-1.86,0-1.86,0-1.87,0-1.87,0-1.87,0-1.87,0-1.87,0-1.87,0-1.86,0-1.85,0-1.83,0-1.82c0-.6,0-157.39,0-158l0-1.77,0-1.74,0-1.71,0-1.68,0-1.64,0-1.6,0-1.56,0-1.51,0-1.45,0-1.39,0-1.33,0-1.27,0-1.2,0-1.12,0-1,0-1,0-.87V110H255.8v0.41l0,1.21,0,1.94,0,2.61,0.06,3.19,0.07,3.69,0.08,4.11,0.08,4.44,0.09,4.7c0,1.65.06,159.48,0.09,161.09l0.09,5,0.1,5.08,0.1,5.09,0.1,5.06,0.09,5,0.09,4.89,0.09,4.77,0.09,4.62,0.08,4.46,0.08,4.29,0.08,4.11,0.07,3.92,0.07,3.73,0.07,3.54,0.06,3.35,0.06,3.15,0.06,3,0.05,2.77,0,2.58,0,2.4,0,2.21,0,2,0,1.85,0,1.67,0,1.49,0,1.31,0,1.13,0,0.95v1.34c0,0.31,0,.6,0,0.9a1.73,1.73,0,0,0,.16.73,1.84,1.84,0,0,0,.24.34,2.25,2.25,0,0,0,.7.52,2.86,2.86,0,0,0,1.28.29,3.06,3.06,0,0,0,.48,0,2.83,2.83,0,0,0,.69-0.2,2.44,2.44,0,0,0,.57-0.35,2,2,0,0,0,.42-0.47,1.28,1.28,0,0,0,.23-0.67C263,393,263,392.86,263,392.7Z" transform="translate(-34.63 -8.93)"/><path class="cls-15" d="M210,385.53c0.14,1.32-2.35,2.38-5.56,2.38s-5.92-1.07-6.05-2.38,2.35-2.38,5.56-2.38S209.85,384.21,210,385.53Z" transform="translate(-34.63 -8.93)"/><path class="cls-16" d="M207.59,385.53c0.08,0.77-1.39,1.4-3.27,1.4s-3.48-.63-3.56-1.4,1.39-1.4,3.27-1.4S207.51,384.76,207.59,385.53Z" transform="translate(-34.63 -8.93)"/><path class="cls-17" d="M206.26,385.53c0,0.47-.84.85-2,0.85s-2.12-.38-2.17-0.85,0.84-.85,2-0.85S206.21,385.06,206.26,385.53Z" transform="translate(-34.63 -8.93)"/><path class="cls-18" d="M206.5,384.75v-0.68l0-.2,0-.23,0-.25,0-.28,0-.3,0-.33,0-.35,0-.38,0-.4,0-.42,0-.45,0-.47,0-.5,0-.52,0-.55,0-.57,0-.59-0.05-.62-0.05-.64-0.06-.67-0.06-.69L205.6,374l-0.06-.74-0.06-.76-0.07-.79-0.07-.81-0.07-.84-0.07-.86-0.07-.89-0.08-.91-0.08-.94-0.08-1-0.08-1-0.08-1-0.09-1-0.09-1.06-0.09-1.09-0.09-1.11-0.1-1.14-0.1-1.16-0.1-1.19-0.1-1.22-0.1-1.24-0.11-1.27-0.11-1.29-0.11-1.32L203.42,348l-0.11-1.37-0.12-1.4-0.12-1.42-0.12-1.45-0.12-1.47-0.13-1.5-0.13-1.52-0.13-1.55-0.13-1.57-0.13-1.59L202,331.53l-0.14-1.64-0.14-1.66-0.14-1.68-0.14-1.7-0.14-1.72-0.15-1.74L201,319.65l-0.15-1.77-0.15-1.79-0.15-1.8-0.15-1.81-0.15-1.82-0.15-1.83L200,307l-0.15-1.84-0.15-1.85-0.16-1.85-0.15-1.85-0.15-1.84-0.15-1.84c-0.05-.61-16-155.25-16-155.87l-0.15-1.82-0.15-1.81-0.15-1.79-0.15-1.77-0.15-1.75-0.14-1.72L182,127.71,181.86,126l-0.14-1.62-0.13-1.58-0.13-1.53-0.12-1.48-0.12-1.43L181.1,117,181,115.71l-0.1-1.25-0.1-1.18-0.09-1.11-0.09-1-0.08-.95-0.07-.86-0.06-.77-0.06-.68,0-.58,0-.48,0-.38,0-.28v-0.22h-9.59l0,0.41,0.15,1.19,0.23,1.92,0.31,2.57,0.38,3.15,0.44,3.64,0.49,4.05,0.54,4.38,0.57,4.64,0.59,4.82c0.2,1.67,16.27,157.36,16.47,159l0.61,5,0.61,5,0.61,5,0.6,4.92,0.59,4.82,0.57,4.7L195,329.7l0.54,4.4,0.52,4.23,0.5,4.05,0.47,3.87,0.45,3.68,0.43,3.49,0.4,3.3,0.38,3.11,0.36,2.92,0.33,2.73,0.31,2.55,0.29,2.36,0.27,2.18,0.24,2,0.22,1.82,0.2,1.65,0.18,1.47,0.16,1.29,0.14,1.11,0.11,0.93,0.09,0.75,0.07,0.57c0,0.3.08,0.6,0.12,0.89a1.82,1.82,0,0,0,.23.72,2.11,2.11,0,0,0,.28.33,2.6,2.6,0,0,0,.75.51,3.09,3.09,0,0,0,1.31.29,3,3,0,0,0,.47,0,2.63,2.63,0,0,0,.67-0.2,2.14,2.14,0,0,0,.54-0.34,1.68,1.68,0,0,0,.38-0.46,1.15,1.15,0,0,0,.16-0.66C206.53,385.08,206.52,384.92,206.5,384.75Z" transform="translate(-34.63 -8.93)"/><path class="cls-19" d="M297.64,385.5c-0.17,1.33-2.9,2.41-6.11,2.41s-5.67-1.08-5.5-2.41,2.9-2.41,6.11-2.41S297.81,384.17,297.64,385.5Z" transform="translate(-34.63 -8.93)"/><path class="cls-20" d="M295.25,385.5c-0.1.78-1.71,1.42-3.6,1.42s-3.34-.64-3.24-1.42,1.71-1.42,3.6-1.42S295.35,384.71,295.25,385.5Z" transform="translate(-34.63 -8.93)"/><path class="cls-21" d="M293.91,385.5c-0.06.48-1,.86-2.19,0.86s-2-.39-2-0.86,1-.86,2.19-0.86S294,385,293.91,385.5Z" transform="translate(-34.63 -8.93)"/><path class="cls-22" d="M294.34,384.71v-0.23l0-.13,0-.15,0-.18,0-.21,0-.23,0-.26,0-.28,0-.31,0-.33,0.05-.36,0.06-.38,0.06-.41,0.06-.43,0.07-.46,0.07-.48,0.07-.5,0.08-.53,0.08-.55,0.08-.58,0.09-.6,0.09-.63,0.09-.65,0.1-.67,0.1-.7,0.11-.72L296,373l0.11-.77,0.12-.8,0.12-.82,0.12-.85,0.13-.87,0.13-.9,0.13-.92,0.14-.95,0.14-1,0.15-1,0.15-1,0.15-1.05,0.16-1.08,0.16-1.1,0.16-1.13,0.17-1.15,0.17-1.18,0.18-1.21L298.8,354l0.18-1.26,0.19-1.29,0.19-1.31,0.19-1.34,0.2-1.36,0.2-1.39,0.21-1.42,0.21-1.44,0.21-1.47,0.22-1.49,0.22-1.52,0.22-1.54,0.23-1.57L301.7,334l0.23-1.61,0.24-1.64,0.24-1.66,0.24-1.68,0.25-1.7,0.25-1.72,0.25-1.74,0.26-1.76,0.26-1.78,0.26-1.79,0.26-1.81,0.26-1.82L305,311.5l0.27-1.85,0.27-1.85,0.27-1.86,0.27-1.87,0.27-1.87,0.27-1.87,0.27-1.87,0.27-1.87,0.27-1.86c0.09-.61,19.89-157.28,20-157.91l0.27-1.84,0.27-1.83,0.26-1.81,0.26-1.79,0.26-1.77L329,126l0.25-1.71,0.24-1.68,0.24-1.64,0.23-1.6,0.23-1.55,0.22-1.5,0.21-1.45,0.2-1.39,0.19-1.33,0.18-1.27,0.17-1.19,0.16-1.12,0.15-1,0.14-1,0.13-.87,0.11-.78,0.1-.69,0.09-.59,0.07-.49,0.06-.39,0-.28,0-.17v-0.06h-9.59l0,0.41-0.13,1.21-0.21,1.94-0.28,2.6-0.34,3.19-0.4,3.69L321,119.4l-0.48,4.44-0.5,4.7-0.52,4.89c-0.18,1.69-20.08,159.41-20.25,161.06l-0.54,5.07-0.55,5.08-0.54,5.05-0.54,5-0.52,4.89L296,324.32l-0.5,4.62L295,333.4l-0.46,4.29-0.44,4.11-0.42,3.92-0.4,3.73L292.94,353l-0.36,3.34-0.34,3.15-0.32,3-0.3,2.77-0.28,2.58-0.26,2.39-0.24,2.21-0.22,2-0.2,1.85-0.18,1.67-0.16,1.49L290,380.73l-0.12,1.13-0.1.95-0.08.76-0.06.57c0,0.31-.06.6-0.08,0.9a1.63,1.63,0,0,0,.06.73,1.55,1.55,0,0,0,.2.34,1.88,1.88,0,0,0,.63.52,2.65,2.65,0,0,0,1.25.29,3.16,3.16,0,0,0,.48,0,3.12,3.12,0,0,0,.71-0.2,2.87,2.87,0,0,0,.62-0.35,2.38,2.38,0,0,0,.48-0.47,1.46,1.46,0,0,0,.32-0.67Z" transform="translate(-34.63 -8.93)"/><path class="cls-23" d="M220.48,354.72c0.14,1.32-2.35,2.38-5.56,2.38s-5.92-1.07-6.05-2.38,2.35-2.38,5.56-2.38S220.34,353.4,220.48,354.72Z" transform="translate(-34.63 -8.93)"/><path class="cls-24" d="M218.09,354.72c0.08,0.77-1.39,1.4-3.27,1.4s-3.48-.63-3.56-1.4,1.39-1.4,3.27-1.4S218,353.94,218.09,354.72Z" transform="translate(-34.63 -8.93)"/><path class="cls-25" d="M216.75,354.72c0,0.47-.84.85-2,0.85s-2.12-.38-2.17-0.85,0.84-.85,2-0.85S216.7,354.25,216.75,354.72Z" transform="translate(-34.63 -8.93)"/><path class="cls-26" d="M217,353.94v-0.68l0-.2,0-.23,0-.25,0-.28,0-.3,0-.33,0-.35,0-.38,0-.4,0-.42,0-.45,0-.47,0-.5,0-.52,0-.55,0-.57,0-.59-0.05-.62-0.05-.64-0.06-.67-0.06-.69-0.06-.71L216,342.4l-0.06-.76-0.07-.79-0.07-.81-0.07-.84-0.07-.86-0.07-.89-0.08-.91-0.08-.94-0.08-1-0.08-1-0.08-1-0.09-1L215,330.56l-0.09-1.09-0.09-1.11-0.1-1.14-0.1-1.16-0.1-1.19-0.1-1.22-0.1-1.24-0.11-1.27-0.11-1.29L214,318.52l-0.11-1.35-0.11-1.37-0.12-1.4L213.56,313l-0.12-1.45-0.12-1.47-0.13-1.5L213.06,307l-0.13-1.55-0.13-1.57-0.13-1.59-0.14-1.62-0.14-1.64-0.14-1.66-0.14-1.68c0-.56-16-155.17-16-155.74L196,138.29l-0.15-1.74-0.15-1.75L195.52,133l-0.15-1.79-0.15-1.8-0.15-1.81-0.15-1.82L194.76,124l-0.15-1.84-0.15-1.84-0.15-1.85-0.16-1.85L194,114.76l-0.15-1.84-0.15-1.84-0.15-1.83-0.15-1.82-0.15-1.81-0.15-1.79-0.15-1.77-0.15-1.75-0.14-1.72-0.14-1.69-0.14-1.66-0.14-1.62L192.09,92,192,90.51,191.83,89l-0.12-1.43-0.12-1.37-0.11-1.31-0.1-1.25-0.1-1.18-0.09-1.11-0.09-1L191,79.39,191,78.53l-0.06-.77-0.06-.68,0-.58,0-.48,0-.38,0-.28V75.13h-9.59l0.05,0.41,0.15,1.19,0.23,1.92,0.31,2.57,0.38,3.15L182.65,88l0.49,4.05,0.54,4.38,0.57,4.64,0.59,4.82,0.6,4.94,0.61,5,0.61,5,0.61,5,0.6,4.92,0.59,4.82,0.57,4.7c0.19,1.55,16.24,157.1,16.42,158.6l0.54,4.4,0.52,4.23,0.5,4.05,0.47,3.87,0.45,3.68,0.43,3.49,0.4,3.3,0.38,3.11,0.36,2.92,0.33,2.73,0.31,2.55,0.29,2.36,0.27,2.18,0.24,2,0.22,1.82,0.2,1.65,0.18,1.47,0.16,1.29,0.14,1.11,0.11,0.93,0.09,0.75,0.07,0.57c0,0.3.08,0.6,0.12,0.89a1.82,1.82,0,0,0,.23.72,2.1,2.1,0,0,0,.28.33,2.6,2.6,0,0,0,.75.51,3.09,3.09,0,0,0,1.31.29,3,3,0,0,0,.47,0,2.63,2.63,0,0,0,.67-0.2,2.13,2.13,0,0,0,.54-0.34,1.69,1.69,0,0,0,.38-0.46,1.15,1.15,0,0,0,.16-0.66C217,354.27,217,354.1,217,353.94Z" transform="translate(-34.63 -8.93)"/><path class="cls-27" d="M287.92,354.28c-0.17,1.33-2.9,2.41-6.11,2.41s-5.67-1.08-5.5-2.41,2.9-2.41,6.11-2.41S288.09,353,287.92,354.28Z" transform="translate(-34.63 -8.93)"/><path class="cls-28" d="M285.53,354.28c-0.1.78-1.71,1.42-3.6,1.42s-3.34-.64-3.24-1.42,1.71-1.42,3.6-1.42S285.63,353.5,285.53,354.28Z" transform="translate(-34.63 -8.93)"/><path class="cls-29" d="M284.19,354.28c-0.06.48-1,.86-2.19,0.86s-2-.39-2-0.86,1-.86,2.19-0.86S284.25,353.81,284.19,354.28Z" transform="translate(-34.63 -8.93)"/><path class="cls-30" d="M284.61,353.5v-0.23l0-.13,0-.15,0-.18,0-.21,0-.23,0-.26,0-.28,0-.31,0-.33,0.05-.36,0.06-.38,0.06-.41,0.06-.43,0.07-.45,0.07-.48,0.07-.5,0.08-.53,0.08-.55,0.08-.58,0.09-.6,0.09-.63,0.09-.65L286,344l0.1-.7,0.11-.72,0.11-.75,0.11-.77,0.12-.8,0.12-.82,0.12-.85,0.13-.87,0.13-.9,0.13-.92,0.14-.95,0.14-1,0.15-1,0.15-1,0.15-1.05,0.16-1.08,0.16-1.1,0.16-1.13,0.17-1.15,0.17-1.18,0.18-1.21,0.18-1.23,0.18-1.26,0.19-1.28,0.19-1.31,0.19-1.34,0.2-1.36,0.2-1.39,0.21-1.42,0.21-1.44,0.21-1.47,0.22-1.49,0.22-1.52,0.22-1.54,0.23-1.57,0.23-1.59,0.23-1.61,0.24-1.64,0.24-1.66,0.24-1.68,0.25-1.7c0.08-.57,19.88-157.2,20-157.77L313.4,135l0.26-1.76,0.26-1.78,0.26-1.79,0.26-1.81,0.26-1.82,0.27-1.83,0.27-1.85,0.27-1.85,0.27-1.86L316,116.8l0.27-1.87,0.27-1.87,0.27-1.87,0.27-1.87,0.27-1.86,0.27-1.86,0.27-1.84,0.27-1.83,0.26-1.81,0.26-1.79L319,96.55l0.25-1.74,0.25-1.71,0.24-1.68L320,89.77l0.23-1.6,0.23-1.55,0.22-1.5,0.21-1.45,0.2-1.39,0.19-1.33,0.18-1.27,0.17-1.19,0.16-1.12,0.15-1,0.14-1,0.13-.87,0.11-.78,0.1-.69,0.09-.59,0.07-.49,0.06-.39,0-.28,0-.17V71H313.1l0,0.41-0.13,1.21-0.21,1.94-0.28,2.6-0.34,3.19-0.4,3.69-0.44,4.1-0.48,4.44-0.5,4.7-0.52,4.89-0.54,5-0.54,5.07-0.55,5.08-0.54,5.05-0.54,5-0.52,4.89L306,137.06c-0.17,1.57-20,159.16-20.21,160.67l-0.48,4.46-0.46,4.29-0.44,4.11L284,314.5l-0.4,3.73-0.38,3.54-0.36,3.34-0.34,3.15-0.32,3L281.9,334l-0.28,2.58L281.37,339l-0.24,2.21-0.22,2-0.2,1.85-0.18,1.67-0.16,1.49-0.14,1.31-0.12,1.13-0.1.95-0.08.76-0.06.57c0,0.31-.06.6-0.08,0.9a1.63,1.63,0,0,0,.06.73,1.54,1.54,0,0,0,.2.34,1.88,1.88,0,0,0,.63.52,2.65,2.65,0,0,0,1.25.29,3.16,3.16,0,0,0,.48,0,3.12,3.12,0,0,0,.71-0.2,2.88,2.88,0,0,0,.62-0.35,2.38,2.38,0,0,0,.48-0.47,1.46,1.46,0,0,0,.32-0.67Z" transform="translate(-34.63 -8.93)"/><ellipse class="cls-31" cx="210.8" cy="340.92" rx="5.81" ry="2.42"/><ellipse class="cls-32" cx="210.8" cy="340.92" rx="3.42" ry="1.42"/><ellipse class="cls-33" cx="210.8" cy="340.92" rx="2.08" ry="0.86"/><path class="cls-34" d="M247.84,349.07V349s0,0,0-.07V336.59l0-.8,0-.82,0-.85,0-.87,0-.9,0-.92,0-.95,0-1,0-1,0-1,0-1.05,0-1.08,0-1.1,0-1.13,0-1.16,0-1.18,0-1.21,0-1.23,0-1.26,0-1.29,0-1.31,0-1.34,0-1.36,0-1.39,0-1.42,0-1.44,0-1.47,0-1.49,0-1.52,0-1.54,0-1.57,0-1.59,0-1.61,0-1.64c0-.55,0-157.3,0-157.86l0-1.68,0-1.7,0-1.72,0-1.74,0-1.76,0-1.78,0-1.8,0-1.81,0-1.82,0-1.84,0-1.85,0-1.86,0-1.86,0-1.87,0-1.87,0-1.87,0-1.87,0-1.87,0-1.87,0-1.86,0-1.85,0-1.83,0-1.82,0-1.8,0-1.77,0-1.74,0-1.71,0-1.68,0-1.64,0-1.6,0-1.56,0-1.51L250,79l0-1.39,0-1.33,0-1.27,0-1.2,0-1.12,0-1,0-1,0-.87V66.34h-9.59v0.41l0,1.21,0,1.94,0,2.61,0.06,3.19,0.07,3.69L241,83.5,241,87.95l0.09,4.7,0.09,4.89,0.09,5,0.1,5.08,0.1,5.09,0.1,5.06,0.09,5,0.09,4.89,0.09,4.77L242,137c0,1.51.06,159.2,0.08,160.66l0.08,4.29,0.08,4.11,0.07,3.92,0.07,3.73,0.07,3.54,0.06,3.35,0.06,3.15,0.06,3,0.05,2.77,0,2.58,0,2.4,0,2.21,0,2,0,1.85,0,1.67,0,1.49,0,1.31,0,1.13,0,0.95v1.34c0,0.31,0,.6,0,0.9a1.73,1.73,0,0,0,.16.73,1.84,1.84,0,0,0,.24.34,2.25,2.25,0,0,0,.7.52,2.86,2.86,0,0,0,1.28.29,3.05,3.05,0,0,0,.48,0,2.83,2.83,0,0,0,.69-0.2,2.44,2.44,0,0,0,.57-0.35,2,2,0,0,0,.42-0.47,1.28,1.28,0,0,0,.23-0.67C247.83,349.39,247.83,349.23,247.84,349.07Z" transform="translate(-34.63 -8.93)"/><path class="cls-35" d="M187.05,368c0.32,1.3-2,2.36-5.23,2.36s-6.06-1.06-6.38-2.36,2-2.36,5.23-2.36S186.74,366.73,187.05,368Z" transform="translate(-34.63 -8.93)"/><path class="cls-36" d="M184.66,368c0.19,0.77-1.19,1.39-3.08,1.39s-3.57-.62-3.75-1.39,1.19-1.39,3.08-1.39S184.48,367.27,184.66,368Z" transform="translate(-34.63 -8.93)"/><path class="cls-37" d="M183.33,368c0.11,0.47-.73.85-1.87,0.85s-2.17-.38-2.28-0.85,0.73-.85,1.87-0.85S183.21,367.57,183.33,368Z" transform="translate(-34.63 -8.93)"/><path class="cls-38" d="M183.47,367.27v-0.06l0-.07,0-.1,0-.12,0-.15,0-.18,0-.2-0.05-.23-0.06-.25-0.06-.28-0.07-.3L183,365l-0.08-.35-0.08-.37-0.09-.4-0.09-.42-0.1-.45-0.1-.47-0.11-.49-0.12-.52-0.12-.54-0.13-.56-0.13-.59-0.14-.61-0.14-.64-0.15-.66-0.15-.68-0.16-.71-0.16-.73-0.17-.76-0.17-.78-0.18-.8-0.19-.83L180,351.8l-0.2-.88-0.2-.9-0.21-.93-0.21-1-0.22-1-0.22-1-0.23-1-0.24-1.05L178,343l-0.25-1.1-0.25-1.13-0.26-1.16L177,338.44l-0.27-1.21L176.48,336l-0.28-1.26-0.29-1.28-0.29-1.31-0.3-1.33-0.3-1.36-0.31-1.38-0.31-1.41-0.32-1.44-0.33-1.46-0.33-1.48-0.34-1.51-0.34-1.53-0.35-1.56L172,316.1l-0.36-1.6-0.36-1.62-0.37-1.64-0.37-1.67-0.38-1.69-0.38-1.7-0.38-1.72L169,302.72,168.66,301l-0.4-1.77-0.4-1.78-0.4-1.8C167.33,295,130.13,141.7,130,141.1l-0.41-1.82-0.41-1.82-0.41-1.83-0.41-1.83L128,132l-0.41-1.83-0.41-1.83-0.41-1.82-0.41-1.82-0.4-1.8-0.4-1.79-0.4-1.77-0.39-1.76-0.39-1.73L124,114.1l-0.37-1.68-0.37-1.64-0.36-1.61-0.35-1.57-0.34-1.52-0.33-1.47-0.32-1.42-0.3-1.36-0.29-1.3-0.28-1.24-0.26-1.17L120.15,97l-0.23-1-0.21-.94-0.19-.85-0.17-.77-0.15-.67-0.13-.58L119,91.72l-0.08-.38-0.06-.27,0-.17V90.85h-9.59l0.11,0.41,0.31,1.18,0.5,1.9,0.67,2.55,0.82,3.12,0.95,3.61,1.05,4,1.14,4.34,1.2,4.6,1.25,4.78,1.28,4.9,1.3,5,1.3,5,1.3,4.94c0.43,1.65,37.92,156,38.34,157.59l1.25,4.78,1.22,4.66,1.18,4.52,1.14,4.36,1.1,4.2,1.05,4,1,3.84,1,3.65,0.91,3.46,0.86,3.27,0.81,3.08,0.76,2.9,0.71,2.71,0.66,2.53,0.61,2.34,0.57,2.16,0.52,2L176.5,359l0.43,1.63,0.38,1.46,0.34,1.28,0.29,1.1,0.24,0.93,0.2,0.74,0.15,0.56c0.08,0.3.16,0.59,0.25,0.88a2.07,2.07,0,0,0,.33.71,2.58,2.58,0,0,0,.32.33,3.14,3.14,0,0,0,.82.51,3.38,3.38,0,0,0,1.35.28,3,3,0,0,0,.47,0,2.37,2.37,0,0,0,.64-0.19,1.77,1.77,0,0,0,.49-0.34,1.37,1.37,0,0,0,.31-0.46,1.05,1.05,0,0,0,.07-0.66Z" transform="translate(-34.63 -8.93)"/><path class="cls-39" d="M320.14,368.15c-0.36,1.24-3.26,2.25-6.46,2.25s-5.51-1-5.15-2.25,3.26-2.25,6.46-2.25S320.5,366.91,320.14,368.15Z" transform="translate(-34.63 -8.93)"/><path class="cls-40" d="M317.75,368.15c-0.21.73-1.92,1.32-3.8,1.32s-3.24-.59-3-1.32,1.92-1.32,3.8-1.32S318,367.42,317.75,368.15Z" transform="translate(-34.63 -8.93)"/><path class="cls-41" d="M316.41,368.15c-0.13.44-1.17,0.8-2.31,0.8s-2-.36-1.84-0.8,1.17-.8,2.31-0.8S316.54,367.7,316.41,368.15Z" transform="translate(-34.63 -8.93)"/><path class="cls-42" d="M316.95,367.42l0-.06,0-.07,0-.09,0-.12,0-.14,0.05-.17,0.06-.19,0.07-.22,0.07-.24,0.08-.26,0.09-.29,0.1-.31,0.1-.33,0.11-.36,0.12-.38,0.13-.4,0.13-.42,0.14-.45,0.15-.47,0.15-.49,0.16-.51,0.17-.54,0.17-.56,0.18-.58,0.19-.61,0.2-.63,0.2-.65,0.21-.67,0.22-.7,0.22-.72,0.23-.74,0.24-.77,0.25-.79,0.25-.81,0.26-.84,0.27-.86,0.28-.88,0.28-.91,0.29-.93,0.3-1,0.31-1,0.31-1,0.32-1,0.33-1.05,0.34-1.08,0.34-1.1,0.35-1.12,0.36-1.15,0.37-1.17,0.37-1.2,0.38-1.22,0.39-1.25,0.4-1.27,0.4-1.29,0.41-1.32,0.42-1.34,0.43-1.37,0.43-1.39,0.44-1.41,0.45-1.44,0.46-1.46,0.46-1.48,0.47-1.5,0.48-1.52,0.48-1.55,0.49-1.57,0.49-1.59,0.5-1.6,0.51-1.62,0.51-1.64,0.52-1.66,0.52-1.67,0.53-1.69,0.53-1.7,0.53-1.71C338.4,298.62,381,152.62,381.16,152l0.54-1.73,0.54-1.74,0.54-1.74,0.54-1.74,0.54-1.75,0.54-1.74,0.54-1.74,0.54-1.74L386,136.4l0.54-1.72,0.53-1.71,0.53-1.69,0.52-1.67,0.51-1.65,0.51-1.62,0.5-1.6,0.49-1.56,0.48-1.53,0.46-1.49,0.45-1.45,0.44-1.4,0.42-1.35,0.4-1.3,0.39-1.24,0.37-1.18,0.35-1.11,0.33-1,0.3-1,0.28-.89,0.25-.81,0.23-.73,0.2-.64,0.17-.55,0.14-.46,0.11-.36,0.08-.26,0-.16,0-.05h-9.59l-0.1.39-0.31,1.13-0.49,1.81-0.66,2.43-0.81,3-0.93,3.44-1,3.82L381,124.31l-1.19,4.38-1.23,4.55-1.27,4.67-1.28,4.73-1.28,4.74-1.28,4.71c-0.43,1.57-43.25,148.54-43.66,150.07l-1.24,4.55-1.2,4.44-1.17,4.3-1.13,4.16-1.08,4-1,3.83-1,3.65-0.94,3.48-0.89,3.3L319.32,341l-0.8,2.94-0.75,2.76-0.7,2.58-0.65,2.41-0.61,2.23-0.56,2.06-0.51,1.89-0.47,1.72-0.42,1.55-0.38,1.39-0.33,1.22-0.28,1.05-0.24.88-0.19.71-0.14.53c-0.08.29-.14,0.56-0.21,0.84a1.41,1.41,0,0,0,0,.68,1.17,1.17,0,0,0,.15.31,1.49,1.49,0,0,0,.56.49,2.55,2.55,0,0,0,1.2.27,3.49,3.49,0,0,0,.49,0,3.69,3.69,0,0,0,.74-0.18,3.54,3.54,0,0,0,.67-0.32,2.91,2.91,0,0,0,.55-0.43,1.62,1.62,0,0,0,.41-0.62Z" transform="translate(-34.63 -8.93)"/><g class="cls-43"><g class="cls-44"><rect class="cls-45" x="126.99" y="69.07" width="181.15" height="193.57"/></g><g class="cls-46"><rect class="cls-45" x="206.58" y="91.36" width="73.23" height="73.54"/></g><g class="cls-47"><rect class="cls-45" x="169.65" y="170.64" width="83.1" height="70.36"/></g><g class="cls-48"><rect class="cls-45" x="215.5" y="142.3" width="71.63" height="80.55"/></g><g class="cls-49"><rect class="cls-45" x="143.54" y="91.04" width="73.54" height="73.54"/></g><g class="cls-50"><rect class="cls-45" x="117.12" y="88.5" width="90.74" height="134.03"/></g><g class="cls-51"><rect class="cls-45" x="99.61" y="232.4" width="225.41" height="63.99"/></g><g class="cls-52"><rect class="cls-45" x="106.93" y="156.31" width="50.3" height="85.96"/></g><g class="cls-53"><g class="cls-54"><g class="cls-55"><g class="cls-54"><rect class="cls-45" x="90.69" y="44.24" width="245.47" height="272.21"/></g></g><g class="cls-56"><rect class="cls-45" x="101.84" y="99.64" width="217.77" height="208.85"/></g><g class="cls-57"><rect class="cls-45" x="139.09" y="90.41" width="144.54" height="139.13"/></g></g></g></g></g></g></svg>