<?xml version="1.0" encoding="utf-8"?>
<!-- Generator: Adobe Illustrator 19.2.1, SVG Export Plug-In . SVG Version: 6.00 Build 0)  -->
<svg version="1.1" id="Layer_1" xmlns="http://www.w3.org/2000/svg" xmlns:xlink="http://www.w3.org/1999/xlink" x="0px" y="0px"
	 viewBox="0 0 496 496" style="enable-background:new 0 0 496 496;" xml:space="preserve">
<style type="text/css">
	.st0{fill:#FFDE33;}
	.st1{fill:#78C63F;}
	.st2{fill:#E24752;}
	.st3{fill:#C94151;}
	.st4{fill:#F7AA1E;}
	.st5{fill:#E59123;}
	.st6{opacity:0.62;fill:#E59123;}
	.st7{opacity:0.62;fill:#6BAA39;}
	.st8{opacity:0.59;fill:#FFBC33;}
</style>
<path class="st0" d="M460.9,87.5C480.6,85.1,496,68.4,496,48V0h-32h-8h-64h-8h-32v48c0,20.4,15.4,37.1,35.1,39.5
	c5.1,12,15.8,21,28.9,23.7V160h-64v16h144v-16h-64v-48.8C445,108.5,455.8,99.5,460.9,87.5z M464,16h16v32c0,10.4-6.7,19.2-16,22.5
	V16z M384,70.5c-9.3-3.3-16-12.1-16-22.5V16h16V70.5z"/>
<path d="M192,496h64V352h-64V496z M208,368h32v112h-32V368z"/>
<path d="M272,496h64V272h-64V496z M288,288h32v192h-32V288z"/>
<path d="M352,496h64V192h-64V496z M368,208h32v272h-32V208z"/>
<path d="M432,496h64V192h-64V496z M448,208h32v272h-32V208z"/>
<rect x="432" y="192" class="st1" width="64" height="304"/>
<g id="red-1">
	<rect x="112" y="432" class="st2" width="64" height="64"/>
	<rect x="160" y="432" class="st3" width="16" height="64"/>
</g>
<g id="red-2">
	<rect x="192" y="352" class="st4" width="64" height="144"/>
	<rect x="240" y="352" class="st5" width="16" height="144"/>
</g>
<g id="orange-1">
	<rect x="272" y="272" class="st4" width="64" height="224"/>
	<rect x="320" y="272" class="st6" width="16" height="224"/>
</g>
<g id="orange-2">
	<rect x="352" y="192" class="st1" width="64" height="304"/>
	<rect x="400" y="192" class="st7" width="16" height="304"/>
</g>
<path class="st8" d="M460.9,87.5C480.6,85.1,496,68.4,496,48V0h-32h-8h-32v176h72v-16h-64v-48.8C445,108.5,455.8,99.5,460.9,87.5z
	 M464,16h16v32c0,10.4-6.7,19.2-16,22.5V16z"/>
</svg>
