<svg id="Layer_1" data-name="Layer 1" xmlns="http://www.w3.org/2000/svg" width="512" height="512" viewBox="0 0 512 512"><defs><style>.cls-1{fill:#777;}.cls-2{fill:#e2dcbc;}.cls-3{fill:#f4eecb;}.cls-4{fill:#bfbba3;}.cls-5{fill:#a3ccaa;}.cls-6{fill:#80a886;}.cls-7{fill:#fc8059;}.cls-8{fill:#bf5243;}.cls-9{fill:#fed766;}</style></defs><title>visibilita-e-growbusiness</title><path class="cls-1" d="M420.17,503.65a8.35,8.35,0,0,1-8.35,8.35H100.17a8.35,8.35,0,1,1,0-16.7h103V403.48a8.35,8.35,0,0,1,16.7,0V495.3h72.35V403.48a8.35,8.35,0,0,1,16.7,0V495.3h103A8.35,8.35,0,0,1,420.17,503.65Z"/><path class="cls-2" d="M467.48,411.83h-423A44.52,44.52,0,0,1,0,367.3V89A44.52,44.52,0,0,1,44.52,44.52h423A44.52,44.52,0,0,1,512,89V367.3A44.52,44.52,0,0,1,467.48,411.83Z"/><path class="cls-3" d="M467.48,389.57h-423A22.26,22.26,0,0,1,22.26,367.3V89A22.26,22.26,0,0,1,44.52,66.78h423A22.26,22.26,0,0,1,489.74,89V367.3A22.26,22.26,0,0,1,467.48,389.57Z"/><path class="cls-4" d="M389.57,434.09H122.43a22.26,22.26,0,0,1-22.26-22.26h0a22.26,22.26,0,0,1,22.26-22.26H389.57a22.26,22.26,0,0,1,22.26,22.26h0A22.26,22.26,0,0,1,389.57,434.09Z"/><path class="cls-5" d="M389.57,322.78H289.39V22.26A22.26,22.26,0,0,1,311.65,0H367.3a22.26,22.26,0,0,1,22.26,22.26V322.78Z"/><path class="cls-6" d="M333.91,322.78H233.74V144.7A22.26,22.26,0,0,1,256,122.43h55.65a22.26,22.26,0,0,1,22.26,22.26V322.78Z"/><path class="cls-7" d="M311.65,322.78H211.48V122.43a22.26,22.26,0,0,1,22.26-22.26h55.65a22.26,22.26,0,0,1,22.26,22.26V322.78h0Z"/><path class="cls-8" d="M256,322.78H155.83V244.87a22.26,22.26,0,0,1,22.26-22.26h55.65A22.26,22.26,0,0,1,256,244.87v77.91Z"/><path class="cls-9" d="M233.74,322.78H133.57V222.61a22.26,22.26,0,0,1,22.26-22.26h55.65a22.26,22.26,0,0,1,22.26,22.26V322.78Z"/><path class="cls-4" d="M415.4,325.57a8.35,8.35,0,0,1-8.35,8.35H72.35a8.35,8.35,0,1,1,0-16.7H407.06A8.35,8.35,0,0,1,415.4,325.57Zm24.25-8.35H438a8.35,8.35,0,1,0,0,16.7h1.64A8.35,8.35,0,0,0,439.65,317.22Z"/></svg>