<?xml version="1.0" encoding="utf-8"?>
<!-- Generator: Adobe Illustrator 19.2.1, SVG Export Plug-In . SVG Version: 6.00 Build 0)  -->
<svg version="1.1" id="Livello_1" xmlns="http://www.w3.org/2000/svg" xmlns:xlink="http://www.w3.org/1999/xlink" x="0px" y="0px"
	 viewBox="0 0 565 424.4" style="enable-background:new 0 0 565 424.4;" xml:space="preserve">
<style type="text/css">
	.st0{fill:#2E8DB7;}
	.st1{fill:#EF494F;}
</style>
<g>
	<g>
		<path class="st0" d="M231.2,422.9c-3.5,0-6.9-0.4-10.3-1.3c-23.8-6.4-39.8-34.6-45-79.5c-5.1-43.4,0.3-97.7,15.1-152.9
			c14.8-55.2,37.3-104.9,63.4-140c27-36.3,55-52.7,78.7-46.3c23.8,6.4,39.8,34.6,45,79.5c5.1,43.4-0.3,97.7-15.1,152.9
			c-14.8,55.2-37.3,104.9-63.4,140C276.5,406.4,252.5,422.9,231.2,422.9z M322.8,11.3c-7.5,0-15.7,2.7-24.3,8
			c-11.9,7.4-24.1,19.4-36.2,35.7c-25.3,34-47.3,82.6-61.8,136.6s-19.8,107.1-14.8,149.2c2.4,20.2,6.9,36.7,13.5,49
			c6.5,12.1,14.7,19.6,24.3,22.1c9.6,2.6,20.4,0.2,32.1-7c11.9-7.4,24.1-19.4,36.2-35.7c25.3-34,47.3-82.6,61.8-136.6l4.8,1.3
			l-4.8-1.3c14.5-54.1,19.8-107.1,14.8-149.2c-2.4-20.2-6.9-36.7-13.5-49c-6.5-12.1-14.7-19.6-24.3-22.1
			C328,11.7,325.5,11.3,322.8,11.3z"/>
		<path class="st0" d="M394.3,378.3c-15.6,0-34.3-4.5-55.4-13.6c-40.1-17.3-84.4-49.1-124.9-89.5c-40.4-40.4-72.2-84.8-89.5-124.9
			c-17.9-41.5-18.2-74-0.8-91.4c17.4-17.4,49.9-17.1,91.4,0.8c40.1,17.3,84.4,49.1,124.9,89.5c40.4,40.4,72.2,84.8,89.5,124.9
			c17.9,41.5,18.2,74,0.8,91.4C421.7,374,409.5,378.3,394.3,378.3z M159.7,55.9c-12.6,0-22.3,3.4-29,10c-7,7-10.4,17.6-9.9,31.3
			c0.4,14,4.7,30.6,12.8,49.2c16.8,39,47.9,82.2,87.4,121.8c39.6,39.6,82.8,70.6,121.8,87.4c18.6,8,35.2,12.3,49.2,12.8
			c13.7,0.4,24.3-2.9,31.3-9.9c7-7,10.4-17.6,9.9-31.3c-0.4-14-4.7-30.6-12.8-49.2c-16.8-39-47.9-82.2-87.4-121.8
			c-39.6-39.6-82.8-70.6-121.8-87.4C192.6,60.7,176,56.4,162,56C161.2,55.9,160.4,55.9,159.7,55.9z"/>
		<path class="st0" d="M180.9,315.2c-11.8,0-23.1-0.6-33.8-1.9c-44.9-5.2-73.1-21.2-79.5-45c-6.4-23.8,10.1-51.8,46.3-78.7
			c35-26.1,84.7-48.6,140-63.4c55.2-14.8,109.5-20.2,152.9-15.1c44.9,5.2,73.1,21.2,79.5,45c6.4,23.8-10.1,51.8-46.3,78.7
			c-35,26.1-84.7,48.6-140,63.4C258.4,309.4,217.2,315.2,180.9,315.2z M373,119.1c-35.4,0-75.7,5.7-116.5,16.6
			c-54.1,14.5-102.6,36.4-136.6,61.8c-16.3,12.1-28.3,24.3-35.7,36.2c-7.2,11.7-9.6,22.5-7,32.1c2.6,9.6,10,17.8,22.1,24.3
			c12.4,6.6,28.8,11.2,49,13.5c42.2,4.9,95.1-0.3,149.2-14.8c54.1-14.5,102.6-36.4,136.6-61.8c16.3-12.1,28.3-24.3,35.7-36.2
			c7.2-11.7,9.6-22.5,7-32.1c-2.6-9.6-10-17.8-22.1-24.3c-12.4-6.6-28.8-11.2-49-13.5C395.4,119.7,384.5,119.1,373,119.1z"/>
	</g>
	<path class="st1" d="M314.6,259.4l13.9-13.9L316.1,233c2.1-4.1,3.7-8.5,4.5-12.9l17.8,0l0-19.6l-18.7-0.1
		c-1.1-4.1-2.9-8.1-5.3-11.9l13-13l-13.9-13.9l-13,13c-3.8-2.4-7.9-4.1-12.1-5.2l0-17.5l-19.6,0l0.1,16.8c-4.8,0.9-9.7,2.8-13.7,5
		l-11-11l-13.9,13.9l10.4,10.4c-3.2,4.6-5.4,9.6-6.7,14.8l-13.7,0l0,19.6l13.4,0c1.2,5.5,3.4,10.8,6.6,15.6l-9.2,9.2l13.9,13.9
		l9.7-9.7c4.9,2.9,10.1,4.7,15.5,5.5l0,14l19.6,0l-0.1-15.3c4.8-1.4,9.5-3.8,13.5-6.7L314.6,259.4z M254.5,234.7
		c-12.4-12.4-12.4-32.6,0-45c12.4-12.4,32.6-12.4,45,0s12.4,32.6,0,45S266.9,247.1,254.5,234.7z"/>
	
		<ellipse transform="matrix(0.7071 -0.7071 0.7071 0.7071 -68.9172 258.0191)" class="st1" cx="277" cy="212.2" rx="21.2" ry="21.2"/>
</g>
</svg>
