<?xml version="1.0" encoding="utf-8"?>
<!-- Generator: Adobe Illustrator 20.0.0, SVG Export Plug-In . SVG Version: 6.00 Build 0)  -->
<svg version="1.1" id="Livello_1" xmlns="http://www.w3.org/2000/svg" xmlns:xlink="http://www.w3.org/1999/xlink" x="0px" y="0px"
	 viewBox="0 0 565 424.4" style="enable-background:new 0 0 565 424.4;" xml:space="preserve">
<style type="text/css">
	.st0{fill:#2E8DB7;}
	.st1{opacity:0.2;fill:#0B212B;enable-background:new    ;}
	.st2{fill:#CCCCCC;}
	.st3{fill:#B3B3B3;}
	.st4{fill:#E6E6E6;}
	.st5{fill:#FFFFFF;}
	.st6{fill:#8E8E8E;}
	.st7{fill:#DD0B38;}
</style>
<g>
	<path class="st0" d="M481.4,321.4l-19-10.4c-8.2-4.5-9.2-15.8-1.9-21.7l16.9-13.5c5-4,6.4-11.1,3.2-16.7l-10-17.4
		c-3.2-5.6-10.1-8-16.1-5.6l-32.2,12.6c-7.8,3-16.4-1.9-17.7-10.2l-5.2-34.1c-1-6.4-6.5-11.1-12.9-11.1h-20.1
		c-6.5,0-11.9,4.7-12.9,11.1l-3.3,21.4c-1.4,9.2-11.7,14-19.7,9.2L312,223.8c-5.5-3.4-12.6-2.2-16.8,2.8L282.3,242
		c-4.1,4.9-4.1,12.2,0.2,17l14.3,16.2c6.2,7,3.2,18-5.6,21l-20.5,6.9c-6.1,2.1-9.8,8.3-8.7,14.6l3.5,19.8
		c1.1,6.4,6.7,10.9,13.2,10.8l21.6-0.5c9.3-0.2,15.9,9.1,12.5,17.8l-7.9,20.1c-2.3,6,0,12.8,5.6,16.1l17.4,10
		c5.6,3.2,12.7,1.9,16.7-3.2l13.5-16.9c5.8-7.3,17.2-6.3,21.7,1.9l10.4,19c3.1,5.7,9.9,8.2,15.9,6l18.9-6.9
		c6.1-2.2,9.6-8.5,8.3-14.8l-4.3-21.2c-1.8-9.1,6.2-17.2,15.4-15.4l21.2,4.3c6.3,1.3,12.6-2.3,14.8-8.3l6.9-18.9
		C489.6,331.2,487.1,324.5,481.4,321.4z M366.3,361.3l-31.2-18c-3.3-1.9-5.7-5.2-6.3-9l-6.2-35.4c-0.7-3.8,0.4-7.7,2.9-10.7
		l23.1-27.6c2.5-3,6.1-4.7,10-4.7h40.3c4.7,0,9,2.5,11.3,6.5l20.1,34.9c1.9,3.3,2.3,7.4,1,11L419,342.1c-1.3,3.6-4.2,6.5-7.8,7.8
		l-33.8,12.3C373.6,363.6,369.6,363.3,366.3,361.3z"/>
</g>
<path class="st1" d="M322.5,298.9c-0.7-3.8,0.4-7.7,2.9-10.7l21-25v-30c-4.1,3.8-10.4,4.9-15.8,1.7l-18.5-11.2
	c-5.5-3.4-12.6-2.2-16.8,2.8l-12.9,15.4c-4.1,4.9-4.1,12.2,0.2,17l14.3,16.2c6.2,7,3.2,18-5.6,21l-20.5,6.9
	c-6.1,2.1-9.8,8.3-8.7,14.6l2.2,12.4H328L322.5,298.9z"/>
<g>
	<circle class="st0" cx="375.1" cy="306.3" r="28.7"/>
</g>
<g>
	<g>
		<g>
			<path class="st2" d="M320.7,320.8H179.8c-9.7,0-17.7-7.9-17.7-17.7V23.5c0-9.7,7.9-17.7,17.7-17.7h140.9
				c9.7,0,17.7,7.9,17.7,17.7v279.6C338.4,312.8,330.4,320.8,320.7,320.8z"/>
		</g>
		<path class="st2" d="M162,280.4h176.4H162z"/>
		<path class="st2" d="M162,40.4h176.4H162z"/>
		<g>
			<path class="st3" d="M250.3,310.6c-6.4,0-11.6-5.2-11.6-11.6s5.2-11.6,11.6-11.6s11.6,5.2,11.6,11.6S256.6,310.6,250.3,310.6z"/>
			<path class="st3" d="M250.3,288c6.1,0,11.1,5,11.1,11.1s-5,11.1-11.1,11.1s-11.1-5-11.1-11.1C239.2,292.9,244.2,288,250.3,288
				 M250.3,287c-6.7,0-12.1,5.4-12.1,12.1s5.4,12.1,12.1,12.1c6.7,0,12.1-5.4,12.1-12.1C262.3,292.4,256.9,287,250.3,287L250.3,287z
				"/>
		</g>
		<g>
			<g>
				<circle class="st3" cx="228.6" cy="25" r="2.3"/>
				<g>
					<path class="st3" d="M228.6,23.2c1,0,1.8,0.8,1.8,1.8s-0.8,1.8-1.8,1.8s-1.8-0.8-1.8-1.8S227.6,23.2,228.6,23.2 M228.6,22.2
						c-1.5,0-2.8,1.2-2.8,2.8s1.2,2.8,2.8,2.8s2.8-1.2,2.8-2.8S230.1,22.2,228.6,22.2L228.6,22.2z"/>
				</g>
			</g>
			<g>
				<path class="st3" d="M241.9,27.3c-1.2,0-2.3-1-2.3-2.3s1-2.3,2.3-2.3H276c1.2,0,2.3,1,2.3,2.3s-1,2.3-2.3,2.3H241.9z"/>
				<path class="st3" d="M275.9,23.2c1,0,1.8,0.8,1.8,1.8s-0.8,1.8-1.8,1.8h-34.1c-1,0-1.8-0.8-1.8-1.8s0.8-1.8,1.8-1.8H275.9
					 M275.9,22.2h-34.1c-1.5,0-2.8,1.2-2.8,2.8s1.2,2.8,2.8,2.8h34.1c1.5,0,2.8-1.2,2.8-2.8S277.5,22.2,275.9,22.2L275.9,22.2z"/>
			</g>
		</g>
	</g>
	<rect x="162" y="36.7" class="st4" width="176.4" height="240.6"/>
	<rect x="168.3" y="45.2" class="st5" width="163.9" height="223.5"/>
</g>
<g>
	<path class="st6" d="M250.3,90.8c5.5,0,11.1,6.2,15.4,16.9c4.7,11.8,7.3,27.5,7.3,44.2s-2.6,32.4-7.3,44.2
		c-4.3,10.8-9.9,16.9-15.4,16.9s-11.1-6.2-15.4-16.9c-4.7-11.8-7.3-27.5-7.3-44.2s2.6-32.4,7.3-44.2C239.2,97,244.8,90.8,250.3,90.8
		 M250.3,87.9c-14.1,0-25.6,28.7-25.6,64s11.5,64,25.6,64s25.6-28.7,25.6-64S264.4,87.9,250.3,87.9L250.3,87.9z"/>
	<path class="st6" d="M207.1,108.7c3.9-3.9,12.2-3.5,22.9,1.1c11.6,5,24.6,14.3,36.4,26.1c11.8,11.8,21.1,24.8,26.1,36.4
		c4.6,10.7,5,19,1.1,22.9s-12.2,3.5-22.9-1.1c-11.6-5-24.6-14.3-36.4-26.1c-11.8-11.8-21.1-24.8-26.1-36.4
		C203.6,121,203.2,112.6,207.1,108.7 M205,106.7c-10,10,2.2,38.4,27.2,63.4s53.4,37.2,63.4,27.2s-2.2-38.4-27.2-63.4
		S215,96.7,205,106.7L205,106.7z"/>
	<path class="st6" d="M189.2,152c0-5.5,6.2-11.1,16.9-15.4c11.8-4.7,27.5-7.3,44.2-7.3s32.4,2.6,44.2,7.3
		c10.8,4.3,16.9,9.9,16.9,15.4s-6.2,11.1-16.9,15.4c-11.8,4.7-27.5,7.3-44.2,7.3s-32.4-2.6-44.2-7.3
		C195.3,163.1,189.2,157.5,189.2,152 M186.3,152c0,14.1,28.7,25.6,64,25.6s64-11.5,64-25.6c0-14.1-28.7-25.6-64-25.6
		S186.3,137.8,186.3,152L186.3,152z"/>
	<path class="st6" d="M207.1,195.2c-3.9-3.9-3.5-12.2,1.1-22.9c5-11.6,14.3-24.6,26.1-36.4c11.8-11.8,24.8-21.1,36.4-26.1
		c10.7-4.6,19-5,22.9-1.1c3.9,3.9,3.5,12.2-1.1,22.9c-5,11.6-14.3,24.6-26.1,36.4c-11.8,11.8-24.8,21.1-36.4,26.1
		C219.3,198.7,210.9,199.1,207.1,195.2 M205,197.3c10,10,38.4-2.2,63.4-27.2s37.2-53.4,27.2-63.4c-10-10-38.4,2.2-63.4,27.2
		S195,187.3,205,197.3L205,197.3z"/>
</g>
<circle class="st7" cx="250.2" cy="151" r="8.7"/>
</svg>
