<?xml version="1.0" encoding="utf-8"?>
<!-- Generator: Adobe Illustrator 19.2.1, SVG Export Plug-In . SVG Version: 6.00 Build 0)  -->
<svg version="1.1" id="Livello_1" xmlns="http://www.w3.org/2000/svg" xmlns:xlink="http://www.w3.org/1999/xlink" x="0px" y="0px"
	 viewBox="0 0 200 122.6" style="enable-background:new 0 0 200 122.6;" xml:space="preserve">
<style type="text/css">
	.st0{fill:#FFFFFF;}
</style>
<title>icon-easy-lex</title>
<polygon class="st0" points="114,29.8 103.2,33.5 149.4,49.6 149.4,122.6 160.3,118.8 160.5,45.8 "/>
<polygon class="st0" points="101.8,37.7 89.5,33.5 101.8,29.3 112.6,25.6 114,25.1 115.5,25.6 161.9,41.5 164.9,42.6 164.9,45.8 
	164.9,46.5 200,34.4 100,0 0,34.4 100,68.8 145,53.3 145,52.8 "/>
<polygon class="st0" points="114,29.8 102.7,33.5 149.4,49.6 149.4,51.5 160.5,47.9 160.5,45.8 "/>
<path class="st0" d="M100,73.4l-58-20v38.4C59,102.5,79.4,110,99.7,110c15.7-0.1,31.2-3.7,45.3-10.7l0.1-41.4L100,73.4z"/>
</svg>
