<svg id="Capa_1" data-name="Capa 1" xmlns="http://www.w3.org/2000/svg" width="496" height="496" viewBox="0 0 496 496"><defs><style>.cls-1{fill:#123747;}.cls-2{fill:#ef494f;}</style></defs><title>icon-brand-identity-personality</title><rect class="cls-1" x="224" y="56" width="200" height="16"/><rect class="cls-1" x="224" y="216" width="200" height="16"/><path class="cls-2" d="M456,104a40,40,0,1,1,40-40A40,40,0,0,1,456,104Z"/><rect class="cls-1" x="224" y="376" width="200" height="16"/><path class="cls-2" d="M456,264a40,40,0,1,1,40-40A40,40,0,0,1,456,264Z"/><rect class="cls-1" x="368" y="248" width="16" height="16"/><path class="cls-2" d="M456,424a40,40,0,1,1,40-40A40,40,0,0,1,456,424Z"/><rect class="cls-1" x="224" y="248" width="128" height="16"/><rect class="cls-1" x="368" y="408" width="16" height="16"/><rect class="cls-1" x="224" y="408" width="128" height="16"/><rect class="cls-1" x="368" y="88" width="16" height="16"/><rect class="cls-1" x="224" y="88" width="128" height="16"/><path class="cls-1" d="M165.58,143.15l-21.46-5.36A63.93,63.93,0,0,0,168,88V64A64,64,0,0,0,40,64V88a63.9,63.9,0,0,0,23.87,49.78l-21.46,5.36A55.93,55.93,0,0,0,0,197.48V304a24,24,0,0,0,24,24H40V496H168V328h16a24,24,0,0,0,24-24V197.48A55.91,55.91,0,0,0,165.58,143.15ZM56,88V64a48,48,0,0,1,96,0V88A48,48,0,0,1,56,88Zm48,64a63.65,63.65,0,0,0,22.82-4.28l-0.76,3.06a22.74,22.74,0,0,1-44.12,0l-0.76-3.06A63.57,63.57,0,0,0,104,152ZM16,304V280H40v32H24A8,8,0,0,1,16,304ZM56,464H96v16H56V464Zm56,16V464h40v16H112Zm40-32H112V328H96V448H56V296h64V280H56V211.43H40V264H16V197.48a40,40,0,0,1,30.3-38.81l19.88-5,0.24,1a38.74,38.74,0,0,0,75.16,0l0.24-1,19.88,5A40,40,0,0,1,192,197.48V264H168V211.43H152V280H136v16h16V448Zm40-144a8,8,0,0,1-8,8H168V280h24v24Z"/></svg>