<?xml version="1.0" encoding="utf-8"?>
<!-- Generator: Adobe Illustrator 19.2.1, SVG Export Plug-In . SVG Version: 6.00 Build 0)  -->
<svg version="1.1" id="Livello_1" xmlns="http://www.w3.org/2000/svg" xmlns:xlink="http://www.w3.org/1999/xlink" x="0px" y="0px"
	 viewBox="0 0 174 194.7" style="enable-background:new 0 0 174 194.7;" xml:space="preserve">
<style type="text/css">
	.st0{fill:#FFFFFF;}
</style>
<g>
	<title>icon-easy-telematico</title>
	<path class="st0" d="M128.5,90v-8.4c0-0.9-0.7-1.6-1.5-1.6h-19.2c-0.8,0-1.5,0.7-1.5,1.6v6.8c0,0.9-0.7,1.6-1.5,1.6H56.6
		c-0.8,0-1.5,0.7-1.5,1.6v39.5c0,0.9,0.7,1.5,1.5,1.5H127c0.8,0,1.5-0.7,1.5-1.6L128.5,90L128.5,90L128.5,90z"/>
	<polygon class="st0" points="122.5,51.2 122.5,17.2 111.6,8.3 63.6,8.3 63.6,51.4 68.7,51.4 68.7,14 106.9,14 106.9,23.4 
		116.8,23.2 116.7,51.2 	"/>
	<polygon class="st0" points="63.6,78.6 63.6,83.9 100.8,83.9 100.8,73.7 122.5,73.7 122.5,68.3 122.5,64.2 116.7,64.2 116.7,68.1 
		95.7,68.1 95.7,78.8 68.7,78.8 68.7,64.1 63.6,64.1 	"/>
	<path class="st0" d="M161.1,54H12.9c-4-0.1-7.3,3.1-7.4,7.1c0,0,0,0,0,0v88.1c0,4,3.4,7.9,7.4,7.9h69.4v23.4H51.4v10.3h72.1v-10.3
		h-30V157h67.5c4,0,7.4-3.9,7.4-7.9V61C168.4,57,165.1,53.9,161.1,54z M161,148.6H13.9V61.5H161V148.6z"/>
	<polygon class="st0" points="137.6,39.9 137.6,22.1 133.8,22.1 133.8,39.9 127.8,39.9 135.6,47.7 143.1,39.9 	"/>
	<polygon class="st0" points="148.8,29.6 148.8,47.4 152.6,47.4 152.6,29.6 158.3,29.6 150.6,21.9 143.1,29.6 	"/>
</g>
</svg>
