<?xml version="1.0" encoding="utf-8"?>
<!-- Generator: Adobe Illustrator 19.2.1, SVG Export Plug-In . SVG Version: 6.00 Build 0)  -->
<svg version="1.1" id="Livello_1" xmlns="http://www.w3.org/2000/svg" xmlns:xlink="http://www.w3.org/1999/xlink" x="0px" y="0px"
	 viewBox="0 0 565 424.4" style="enable-background:new 0 0 565 424.4;" xml:space="preserve">
<style type="text/css">
	.st0{fill:#FFFFFF;stroke:#808080;stroke-width:10;stroke-miterlimit:10;}
	.st1{fill:#EF494F;stroke:#EF494F;stroke-miterlimit:10;}
	.st2{fill:#EF494F;}
	.st3{fill:#FFFFFF;}
	.st4{fill:#2E8DB7;}
</style>
<g>
	<polygon class="st0" points="159,50.6 475.2,384.5 28.4,253.9 	"/>
	<circle class="st1" cx="159" cy="50.6" r="17"/>
	<circle class="st2" cx="475.2" cy="384.5" r="17"/>
	<circle class="st2" cx="28.4" cy="253.9" r="17"/>
</g>
<g>
	<g>
		<path class="st3" d="M408,115.4H123.3c-18.7,0-39.3,10.6-39.3,29.3v168.1c0,18.7,20.5,39.6,39.3,39.6h30.1l-15.8,56l94.7-56H408
			c18.7,0,29-20.9,29-39.6V144.7C437,126,426.7,115.4,408,115.4z"/>
		<g>
			<path class="st4" d="M408,105.8c-30.2,0-60.4,0-90.5,0c-50.1,0-100.3,0-150.4,0c-13.6,0-27.3,0-40.9,0c-24,0-51.7,11.8-52.2,39.3
				c-0.8,41.2,0,82.4,0,123.5c0,14.7-0.3,29.4,0,44c0.4,18.3,13.1,35.5,29,43.9c12.3,6.4,25,5.5,38.3,5.5c4,0,8.1,0,12.1,0
				c-3.2-4.2-6.4-8.4-9.6-12.7c-5.3,18.7-10.5,37.3-15.8,56c-2.4,8.4,7.2,15.7,14.7,11.3c27.7-16.3,55.3-32.7,83-49
				c3.9-2.3,7.8-4.6,11.7-6.9c-1.7,0.5-3.4,0.9-5,1.4c25.1,0,50.2,0,75.4,0c31.9,0,63.7,0,95.6,0c4,0,7.8,0,11.8-0.8
				c14.3-2.9,23.9-15.4,28.4-28.5c3.8-11.2,3.2-23,3.2-34.6c0-35.5,0-71.1,0-106.6c0-13.6,0-27.3,0-40.9c0-15.7-2.7-32.5-18.3-40.3
				C422.1,107.1,415.1,105.9,408,105.8c-12.9-0.2-12.9,19.8,0,20c3.5,0,6.3,0.3,9.7,1.5c1.1,0.4,1.5,0.6,3,1.6
				c1.5,1-1.5-1.5,0.9,0.7c0.8,0.7,1.5,1.4,2.1,2.3c-0.7-1,1.1,2.1,1.3,2.4c-0.5-1,0.2,0.6,0.3,0.7c0.3,0.9,0.6,1.9,0.8,2.8
				c0.5,2.1,0.7,4.4,0.7,7c0,3.7,0,7.5,0,11.2c0,20,0,39.9,0,59.9c0,22.9,0,45.7,0,68.6c0,7.4,0,14.8,0,22.2c0,5.2,0.2,10.4-1,15.5
				c-2.3,10.2-8,19.7-18.4,19.8c-4.4,0.1-8.8,0-13.3,0c-20.3,0-40.7,0-61,0c-23.1,0-46.3,0-69.4,0c-7.8,0-15.5,0-23.3,0
				c-4.3,0-9.1-0.6-13,1.4c-13.6,6.9-26.6,15.7-39.7,23.5c-17.3,10.2-34.6,20.5-51.9,30.7c-1,0.6-2.1,1.2-3.1,1.8
				c4.9,3.8,9.8,7.5,14.7,11.3c5.3-18.7,10.5-37.3,15.8-56c1.8-6.3-3.2-12.7-9.6-12.7c-9.4,0-18.8,0-28.3,0
				c-13.2,0-26.5-10.6-30.3-23.5c-1.3-4.3-0.9-9.1-0.9-13.8c0-8.5,0-17,0-25.4c0-43.4,0-86.9,0-130.3c0-7,0.7-11.9,6.7-16.4
				c6.8-5.1,15.8-6.7,24.2-6.7c11.7,0,23.4,0,35.1,0c47.9,0,95.9,0,143.8,0c34.2,0,68.5,0.7,102.7,0c0.5,0,1.1,0,1.6,0
				C420.9,125.8,420.9,105.8,408,105.8z"/>
		</g>
	</g>
	<g>
		<g>
			<circle class="st4" cx="194" cy="226.3" r="22.7"/>
		</g>
		<g>
			<circle class="st4" cx="265.6" cy="226.3" r="22.7"/>
		</g>
		<g>
			<circle class="st4" cx="337.2" cy="226.3" r="22.7"/>
		</g>
	</g>
</g>
<g>
	<g>
		<g>
			<path class="st4" d="M481.3,146.1c-0.4-38-31.2-68.8-69.3-69.3c-12.9-0.1-12.9,19.9,0,20c27.1,0.3,49,22.1,49.3,49.3
				C461.5,158.9,481.5,159,481.3,146.1L481.3,146.1z"/>
		</g>
	</g>
	<g>
		<g>
			<path class="st4" d="M517.6,149.4c-0.2-28.7-11.5-56.6-31.9-76.9c-20.4-20.4-48.2-31.7-76.9-31.9c-12.9-0.1-12.9,19.9,0,20
				c48.7,0.3,88.4,40.1,88.8,88.8C497.7,162.2,517.7,162.3,517.6,149.4L517.6,149.4z"/>
		</g>
	</g>
	<g>
		<g>
			<path class="st4" d="M552.6,155.5c-0.3-62.6-39.8-118.9-98.4-140.8c-16.4-6.1-34-9.1-51.5-9.1c-12.9-0.1-12.9,19.9,0,20
				c53.4,0.3,103.2,33.8,121.7,84.3c5.4,14.7,8.1,30,8.2,45.6C532.6,168.3,552.6,168.4,552.6,155.5L552.6,155.5z"/>
		</g>
	</g>
</g>
</svg>
