<?xml version="1.0" encoding="utf-8"?>
<!-- Generator: Adobe Illustrator 19.2.1, SVG Export Plug-In . SVG Version: 6.00 Build 0)  -->
<svg version="1.1" id="Livello_1" xmlns="http://www.w3.org/2000/svg" xmlns:xlink="http://www.w3.org/1999/xlink" x="0px" y="0px"
	 viewBox="0 0 500 500" style="enable-background:new 0 0 500 500;" xml:space="preserve">
<style type="text/css">
	.st0{fill:#EF494F;}
	.st1{fill:#F7F7F7;}
	.st2{fill:#F2F2F2;}
</style>
<polygon class="st0" points="136.4,441.2 127.3,438 140.4,401 149.5,404.2 "/>
<polygon class="st0" points="362.9,441.2 372,438 359,401 349.9,404.2 "/>
<path class="st1" d="M371,400.3l-92-254.9c-8.1,6.1-18,9.7-28.8,9.8c-10.8,0-20.9-3.6-29-9.7l-92.2,254.8
	c-3.1,8.4,1.2,17.8,9.5,21.1l0.2,0.1c8.7,3.4,18.5-1,21.7-9.8l16-44.2l0,0l2.7-7.5l25.5-70.2c11.8-10.2,28-16.5,45.8-16.4
	c17.7,0.1,33.7,6.4,45.4,16.5l25.6,69.9l18.2,51.6c3.1,8.9,13,13.4,21.8,9.9h0C369.9,418.1,374.1,408.8,371,400.3z M250.2,164.3
	l16.1,44.1c-5.3-1-10.7-1.5-16.3-1.5c-5.4,0-10.6,0.4-15.7,1.3L250.2,164.3z M250.6,254.4c-12.7,0-24.8,2.5-35.6,7l11.5-31.8
	c7.3-2.4,15.2-3.8,23.4-3.8c8.6,0,16.8,1.5,24.3,4.2l11.5,31.4C275,257,263.1,254.5,250.6,254.4z"/>
<g>
	<g>
		<g>
			<path class="st2" d="M311.8,112.5c9.1-21.9-1.1-47.1-22.8-56.7c-7.4-3.2-12.3,8.3-4.9,11.5c15.5,6.8,22.7,24.7,16.2,40.3
				C297.3,115,308.8,119.9,311.8,112.5L311.8,112.5z"/>
		</g>
	</g>
	<g>
		<g>
			<path class="st2" d="M331.8,123.2c6.9-16.5,7.2-35.3,0.5-51.9c-6.7-16.7-19.9-30-36.3-37.1c-7.4-3.2-12.3,8.3-4.9,11.5
				c27.9,12.1,40.9,44.6,29.2,72.6C317.3,125.7,328.7,130.6,331.8,123.2L331.8,123.2z"/>
		</g>
	</g>
	<g>
		<g>
			<path class="st2" d="M350.4,135.3c15.1-36,6.2-77.9-22-104.8c-7.9-7.5-17.3-13.5-27.3-17.8c-7.4-3.2-12.3,8.3-4.9,11.5
				c30.6,13.2,50.9,44.6,49.2,78.1c-0.5,9.8-2.7,19.2-6.4,28.2C335.8,137.7,347.3,142.7,350.4,135.3L350.4,135.3z"/>
		</g>
	</g>
</g>
<g>
	<g>
		<g>
			<path class="st2" d="M188.2,112c3,7.5,14.5,2.6,11.5-4.8c-6.4-15.7,1-33.5,16.5-40.2c7.4-3.2,2.6-14.7-4.8-11.5
				C189.6,64.9,179.3,90,188.2,112L188.2,112z"/>
		</g>
	</g>
	<g>
		<g>
			<path class="st2" d="M168.1,122.6c3,7.4,14.5,2.6,11.5-4.8c-11.5-28.1,1.8-60.5,29.8-72.4c7.4-3.2,2.6-14.7-4.8-11.5
				c-16.5,7-29.7,20.2-36.6,36.8C161.1,87.3,161.3,106,168.1,122.6L168.1,122.6z"/>
		</g>
	</g>
	<g>
		<g>
			<path class="st2" d="M149.4,134.5c3.1,7.4,14.6,2.6,11.5-4.8c-3.7-9-5.8-18.5-6.2-28.2c-1.5-33.5,19.1-64.7,49.8-77.7
				c7.4-3.2,2.6-14.7-4.8-11.5c-10.1,4.2-19.5,10.2-27.4,17.6C143.8,56.5,134.5,98.4,149.4,134.5L149.4,134.5z"/>
		</g>
	</g>
</g>
<path class="st0" d="M261.8,67.1l0.1-37.6l-23.6-0.1l-0.1,37.7c-16,5-27.6,19.9-27.6,37.5c-0.1,21.8,17.5,39.5,39.3,39.6
	c21.8,0.1,39.5-17.5,39.6-39.3C289.6,87.1,277.9,72.1,261.8,67.1z M250,126.3c-11.5,0-20.9-9.3-20.9-20.9s9.3-20.9,20.9-20.9
	s20.9,9.3,20.9,20.9S261.6,126.3,250,126.3z"/>
</svg>
