<?xml version="1.0" encoding="utf-8"?>
<!-- Generator: Adobe Illustrator 20.0.0, SVG Export Plug-In . SVG Version: 6.00 Build 0)  -->
<svg version="1.1" id="Livello_1" xmlns="http://www.w3.org/2000/svg" xmlns:xlink="http://www.w3.org/1999/xlink" x="0px" y="0px"
	 viewBox="0 0 400 400" style="enable-background:new 0 0 400 400;" xml:space="preserve">
<style type="text/css">
	.st0{fill:#FFFFFF;}
</style>
<g>
	<path class="st0" d="M286.8,38.6c-3.4-13.8-11.2-25.9-21.9-34.7c-0.1-0.1-0.3,0-0.3,0.1c0.1,1.1,0.2,2.2,0.2,3.4
		c-0.4,7.3-2.8,18.6-9.5,24.2c-8.2,6.9-15.2,7.6-20.4,12.5c-5.6,5.2-8.7,13-8.7,21.2c0,9,5.4,16.3,11.6,21.8l-0.3,0.9l-1.3,3.9
		l-9.6,28.8l-21.1,63.1h25.5l23.6-70.5l5.9-17.6l0.1-0.3l0.2-0.6c6.2,1.4,16.8-2.8,20-8.7c5.1-9.3,8-20,8-31.4
		C288.8,49.1,288.1,43.7,286.8,38.6z"/>
</g>
<g>
	<path class="st0" d="M276.6,252.5v-50.2c0-6.2-5-11.2-11.2-11.2H97.5c-6.2,0-11.2,5-11.2,11.2v161.4c0,17.7,14.4,32.1,32.1,32.1
		h126.1c17.7,0,32.1-14.4,32.1-32.1v-29.3c21.4-1.4,38.3-19.2,38.3-40.9S298,253.9,276.6,252.5z M276.7,317.5v-48.3
		c13.3,0,24.1,10.8,24.1,24.1C300.8,306.7,290,317.5,276.7,317.5z"/>
</g>
<path class="st0" d="M170.8,162.9L152,127.2l23-5.2c1.8-0.4,3.2-1.8,3.6-3.6c0.4-1.8-0.2-3.7-1.7-4.8L101,52
	c-1.5-1.2-3.6-1.4-5.3-0.5c-1.7,0.9-2.7,2.7-2.6,4.6l7.6,97.5c0.1,1.8,1.3,3.4,3,4.1c1.7,0.7,3.7,0.3,5-0.9l17.3-16l18.8,35.8
	c0.6,1.1,1.6,2,2.8,2.4c1.2,0.4,2.5,0.3,3.7-0.3l17.4-9.2C171.2,168.2,172.1,165.3,170.8,162.9z"/>
</svg>
