<?xml version="1.0" encoding="utf-8"?>
<!-- Generator: Adobe Illustrator 20.0.0, SVG Export Plug-In . SVG Version: 6.00 Build 0)  -->
<svg version="1.1" id="Livello_1" xmlns="http://www.w3.org/2000/svg" xmlns:xlink="http://www.w3.org/1999/xlink" x="0px" y="0px"
	 viewBox="0 0 565 424.4" style="enable-background:new 0 0 565 424.4;" xml:space="preserve">
<style type="text/css">
	.st0{fill:#E0E0E0;}
	.st1{fill:#FFFFFF;}
	.st2{fill:#2E8DB8;}
	.st3{fill:#999999;}
	.st4{fill:#E0C190;}
	.st5{fill:#EF494F;}
	.st6{fill:#604730;}
	.st7{fill:#6D6D6D;}
	.st8{opacity:0.2;fill:#604730;enable-background:new    ;}
	.st9{opacity:0.2;fill:#C18B42;enable-background:new    ;}
</style>
<path class="st0" d="M547,290.7H141.6c-4.4,0-8-3.6-8-8V13c0-4.4,3.6-8,8-8H547c4.4,0,8,3.6,8,8v269.7
	C555,287.1,551.4,290.7,547,290.7z"/>
<path class="st1" d="M534.5,86.1H155.9c-4.4,0-8-3.6-8-8V28.5c0-4.4,3.6-8,8-8h378.6c4.4,0,8,3.6,8,8V78
	C542.5,82.5,538.9,86.1,534.5,86.1z"/>
<path class="st1" d="M408.6,273.6H155.9c-4.4,0-8-3.6-8-8v-156c0-4.4,3.6-8,8-8h252.8c4.4,0,8,3.6,8,8v156
	C416.6,270,413,273.6,408.6,273.6z"/>
<path class="st1" d="M534.5,273.6h-89.4c-4.4,0-8-3.6-8-8v-156c0-4.4,3.6-8,8-8h89.4c4.4,0,8,3.6,8,8v156
	C542.5,270,538.9,273.6,534.5,273.6z"/>
<g>
	<path id="Ink" class="st2" d="M328.1,195.5c-3.6-3.6-9.4-3.5-13,0.1L265.7,245c-4.4,0.4-10.1-2.1-14.7-6.6c-4.3-4.3-6.8-9.8-6.5-14
		l12.6-12.6c3.6-3.6,3.4-9.6-0.2-13.2c-3.6-3.6-9.6-3.8-13.2-0.2l-10.1,10.1c-3.9,0.9-9.8-1.4-14.4-6c-4.6-4.6-6.8-10.5-5.9-14.3
		l68.3-68.3c3.6-3.6,3.4-9.6-0.2-13.2s-9.6-3.8-13.2-0.2l-68.3,68.3c-3.9,1.9-8.8,1.4-12.1-1.8c-3.3-3.3-3.8-8.1-1.9-12l29.7-29.7
		c3.6-3.6,4.1-9.5,0.5-13.1l-0.1-0.1c-3.6-3.6-9.8-3.4-13.4,0.2L181,140c-2.1,2.1-4.8,3.9-9.1,7.1l-0.9,0.7
		c-8.8,6.4-18.1-4.7-18.1-4.7c-8.1-6.2-19.5-5.7-26.9,1.7L284.2,303c8-8,7.8-21-0.2-29c0,0-10.5-10.6-4.6-16.8l18.3-18.3l0,0l0,0
		l30.4-30.4C331.6,204.9,331.7,199.1,328.1,195.5z"/>
	
		<rect x="248.4" y="332.9" transform="matrix(0.7071 -0.7071 0.7071 0.7071 -161.096 288.1071)" class="st3" width="37.7" height="11.3"/>
	<path class="st4" d="M210,362.2L65.5,217.8c-7.1-7.1-7.1-18.5,0-25.6l55.4-55.4c7.1-7.1,18.5-7.1,25.6,0L291,281.2
		c7.1,7.1,7.1,18.5,0,25.6l-55.4,55.4C228.5,369.3,217,369.3,210,362.2z"/>
	<path class="st3" d="M101.3,332.6l-2.6-2.6l22.1-22.1l39.3,41c35,34.5,61.5,50.3,83.8,49.4c19.7-0.8,34.2-14.8,48.2-28.7L268,345.5
		l2.6-2.6l26.5,26.5l-1.2,1.2c-14.8,14.8-30,30.3-51.6,31.2c-23.3,0.9-50.9-15.1-86.7-50.5L120.9,313L101.3,332.6z"/>
	<g>
		<path class="st5" d="M14.6,386.2c-7.6,7.6-7.7,21.1-0.1,28.7l0.1,0.1c7.6,7.6,20.7,7,28.3-0.5l75.4-75.4L90,310.8L14.6,386.2z
			 M38,391.7c2.8,2.8,2.8,7.2,0,10s-7.2,2.8-10,0s-2.8-7.2,0-10C30.7,388.9,35.2,388.9,38,391.7z"/>
		<path class="st6" d="M133.4,362.8c7.3-8.1,6.9-11.1,4.8-13.2L80,291.4c-2.1-2.1-5-2.5-13.2,4.8c-1.9,1.7-2.9,3.4-2.4,3.9l0.9,0.9
			c0.3,0.3,1.3-0.1,2.7-1.3c3.4-3,6.3-4.4,7.2-3.5L90,311l28.3,28.3l15.1,15.1c0.9,0.9-0.5,3.8-3.5,7.2c-1.2,1.4-1.6,2.4-1.3,2.7
			l0.9,0.9C130,365.6,131.7,364.6,133.4,362.8z"/>
	</g>
	<path class="st7" d="M133.4,362.8c7.3-8.1,6.9-11.1,4.8-13.2L80,291.4c-2.1-2.1-5-2.5-13.2,4.8c-1.9,1.7-2.9,3.4-2.4,3.9l0.9,0.9
		c0.3,0.3,1.3-0.1,2.7-1.3c3.4-3,6.3-4.4,7.2-3.5L90,311l28.3,28.3l15.1,15.1c0.9,0.9-0.5,3.8-3.5,7.2c-1.2,1.4-1.6,2.4-1.3,2.7
		l0.9,0.9C130,365.6,131.7,364.6,133.4,362.8z"/>
	<path class="st8" d="M42.9,414.6l75.4-75.4l-13-13l-66.4,66.4c1.9,2.7,1.6,6.5-0.8,9c-2.4,2.4-6.2,2.7-9,0.8l-13.5,13.5
		C23.2,422.6,35.6,421.8,42.9,414.6z"/>
	<path class="st9" d="M260.6,331L96.7,167.2c-1.7-1.7-4.5-1.7-6.2,0l-25.2,25.2c-7,7-7,18.3,0,25.3l144.8,144.8c7,7,18.3,7,25.3,0
		l25.2-25.2C262.3,335.5,262.3,332.7,260.6,331z"/>
</g>
</svg>
