<?xml version="1.0" encoding="utf-8"?>
<!-- Generator: Adobe Illustrator 19.2.1, SVG Export Plug-In . SVG Version: 6.00 Build 0)  -->
<svg version="1.1" id="Livello_1" xmlns="http://www.w3.org/2000/svg" xmlns:xlink="http://www.w3.org/1999/xlink" x="0px" y="0px"
	 viewBox="0 0 565 424.4" style="enable-background:new 0 0 565 424.4;" xml:space="preserve">
<style type="text/css">
	.st0{fill:#B3B3B3;}
	.st1{fill:#C9961A;}
	.st2{opacity:0.1;enable-background:new    ;}
	.st3{fill:#73311B;}
	.st4{opacity:0.2;enable-background:new    ;}
	.st5{fill:#E1EDF4;}
</style>
<title>icon-trasmissione-atti-telematici</title>
<g>
	<g>
		<g>
			<g>
				<rect x="117" y="259.2" transform="matrix(0.5 -0.866 0.866 0.5 -149.9181 265.6265)" class="st0" width="76.2" height="6.8"/>
				
					<rect x="189.8" y="224.5" transform="matrix(0.866 -0.5 0.5 0.866 -105.4224 131.7787)" class="st0" width="6.8" height="76.2"/>
			</g>
			<path class="st1" d="M223.9,292.2c0,11.9-22.2,21.5-49.7,21.5c-27.4,0-49.7-9.6-49.7-21.5c0-2.9,1.3-5.4,3.8-8
				c1-1.1,2.2-2.8,3.6-2.8h84.6c1.4,0,2.6,1.7,3.6,2.8C222.5,286.7,223.9,289.2,223.9,292.2z"/>
			<path class="st2" d="M216.5,281.4H175v32.2c27,0,49.3-9.6,49.3-21.5c0-2.9-1.6-5.4-4-8C219.3,283.1,217.9,281.4,216.5,281.4z"/>
		</g>
		<g>
			<g>
				<rect x="333.9" y="259.2" transform="matrix(0.5 -0.866 0.866 0.5 -41.4429 453.4179)" class="st0" width="76.2" height="6.8"/>
				<rect x="406.6" y="224.5" transform="matrix(0.866 -0.5 0.5 0.866 -76.3866 240.1833)" class="st0" width="6.8" height="76.2"/>
			</g>
			<path class="st1" d="M440.4,292.2c0,11.9-22.2,21.5-49.7,21.5c-27.4,0-49.7-9.6-49.7-21.5c0-2.9,1.3-5.4,3.8-8
				c1-1.1,2.2-2.8,3.6-2.8H433c1.4,0,2.6,1.7,3.6,2.8C439.1,286.7,440.4,289.2,440.4,292.2z"/>
			<path class="st2" d="M433.3,281.4H391v32.2c28,0,49.7-9.6,49.7-21.5c0-2.9-1.3-5.4-3.8-8C435.9,283.1,434.7,281.4,433.3,281.4z"
				/>
		</g>
	</g>
	<g>
		<rect x="272.3" y="231.6" class="st3" width="20.5" height="164.8"/>
		<g>
			<path class="st3" d="M330,406.9h-94.7c-4.3,0-7.8-3.5-7.8-7.8l0,0c0-4.3,3.5-7.8,7.8-7.8H330c4.3,0,7.8,3.5,7.8,7.8l0,0
				C337.8,403.4,334.3,406.9,330,406.9z"/>
			<path class="st3" d="M342.5,422.2H222.7c-4.4,0-8-3.6-8-8v-3.5c0-4.4,3.6-8,8-8h119.8c4.4,0,8,3.6,8,8v3.5
				C350.5,418.6,346.9,422.2,342.5,422.2z"/>
			<path class="st4" d="M215,412.4v2c0,4.3,3.2,8,7.5,8h120.1c4.3,0,7.3-3.7,7.3-8v-2H215z"/>
		</g>
		<rect x="283" y="232.4" class="st4" width="10" height="159"/>
	</g>
</g>
<path class="st5" d="M509.5,167.8c0,35.1-22.7,65.6-50.6,65.6H106.1c-28,0-50.6-30.6-50.6-65.6c0-35.1,22.7-64.5,50.6-64.5
	c7.2,0,14,1,20.3,4.4c8.1-44.1,39.6-76.9,77.2-76.9c6.6,0,13.1,1.1,19.3,3.1c7-7.8,15-14.3,23.5-19c10.5-5.8,22.1-9.1,34.3-9.4
	c0.6,0,1.2,0,1.8,0c0.6,0,1.2,0,1.8,0c12.2,0.4,23.8,3.7,34.3,9.4c2.1,1.2,24.4,17.9,23.5,19c6.2-1.9,12.6-3.1,19.3-3.1
	c37.6,0,69.1,32.8,77.2,76.8c6.2-3.4,13-4.3,20.3-4.3C486.8,103.2,509.5,132.7,509.5,167.8z"/>
</svg>
