<svg id="Layer_1" data-name="Layer 1" xmlns="http://www.w3.org/2000/svg" width="395.7" height="395.64" viewBox="0 0 395.7 395.64"><defs><style>.cls-1{fill:#193651;}.cls-2{fill:#fdbf5e;}.cls-3{fill:#ef494f;}.cls-4{fill:#2ea2db;}.cls-5{fill:#123747;}</style></defs><title>icon-brand-identity-connectivity</title><rect class="cls-1" x="257.16" y="185.47" width="12.35" height="12.35"/><rect class="cls-1" x="191.61" y="293.04" width="12.35" height="12.35"/><rect class="cls-1" x="126.13" y="185.47" width="12.35" height="12.35"/><path class="cls-2" d="M197.82,157.64a74.71,74.71,0,0,0,62.45-33.36,75.88,75.88,0,0,0-124.9,0A74.55,74.55,0,0,0,197.82,157.64Z" transform="translate(0 -0.03)"/><circle class="cls-2" cx="197.82" cy="55.01" r="23.47"/><path class="cls-3" d="M82.23,389.46a74.71,74.71,0,0,0,62.45-33.36,75.88,75.88,0,0,0-124.9,0C32.78,376.53,55.66,389.46,82.23,389.46Z" transform="translate(0 -0.03)"/><circle class="cls-3" cx="82.23" cy="286.84" r="23.47"/><path class="cls-4" d="M313.41,389.46a74.71,74.71,0,0,0,62.45-33.36,75.88,75.88,0,0,0-124.9,0A74.64,74.64,0,0,0,313.41,389.46Z" transform="translate(0 -0.03)"/><circle class="cls-4" cx="313.41" cy="286.84" r="23.47"/><path class="cls-5" d="M313.41,231.85c-21.66,0-40.79,8.66-55.66,21.66L204,222.61v-58.7c42-3.1,76-38.33,76-81.58a82.2,82.2,0,1,0-88.37,81.52v58.7l-53.79,30.9a81.37,81.37,0,0,0-55.66-21.66C36.46,231.85,0,268.32,0,313.44a82.23,82.23,0,1,0,164.46,0c0-19.14-6.79-36.46-17.91-50.68l51.91-29.67,51.91,29.67c-11.12,14.22-17.91,31.55-17.91,50.68a82.19,82.19,0,0,0,82.23,82.23c44.54,0,81-36.46,81-82.23A81.74,81.74,0,0,0,313.41,231.85ZM82.23,383.32a69.88,69.88,0,1,1,69.88-69.88C151.47,352.42,120.57,383.32,82.23,383.32Zm45.7-301.06a69.88,69.88,0,1,1,69.88,69.88C159.48,151.5,127.93,120.6,127.93,82.26ZM313.41,383.32a69.88,69.88,0,1,1,69.88-69.88A69.8,69.8,0,0,1,313.41,383.32Z" transform="translate(0 -0.03)"/></svg>