<?xml version="1.0" encoding="utf-8"?>
<!-- Generator: Adobe Illustrator 19.2.1, SVG Export Plug-In . SVG Version: 6.00 Build 0)  -->
<svg version="1.1" id="Livello_1" xmlns="http://www.w3.org/2000/svg" xmlns:xlink="http://www.w3.org/1999/xlink" x="0px" y="0px"
	 viewBox="0 0 565 424.4" style="enable-background:new 0 0 565 424.4;" xml:space="preserve">
<style type="text/css">
	.st0{fill:#B65534;}
	.st1{fill:#9E4230;}
	.st2{fill:#753322;}
	.st3{opacity:0.15;enable-background:new    ;}
	.st4{fill:#EF494F;}
	.st5{fill:#FFFFFF;}
	.st6{fill:#2E8DB7;}
</style>
<title>icon-trasmissione-atti-telematici</title>
<g>
	<g>
		<g>
			<path class="st0" d="M556.4,244.7l-15.8,15.8L448,167.8L437.9,178l4.8,4.8c2.3,2.3,2.3,5.6,0,7.9l-33.5,33.5
				c-2.3,2.3-5.6,2.3-7.9,0l-75.8-75.7c-2.3-2.3-2.3-5.6,0-7.9l33.5-33.5c2.3-2.3,5.6-2.3,7.9,0l5.1,5.1l40.2-40.2l-5.1-5.1
				c-2.3-2.3-2.3-5.6,0-7.9l33.5-33.5c2.3-2.3,5.6-2.3,7.9,0l75.7,75.7c2.3,2.3,2.3,5.6,0,7.9l-33.5,33.5c-2.3,2.3-5.6,2.3-7.9,0
				l-4.8-4.5l-14.4,14.4L556.4,244.7z"/>
		</g>
	</g>
	<path class="st1" d="M431.6,279.7H309.5c-2.4,0-4.3-2.8-4.3-6.4v-19.1c0-3.5,2-6.4,4.3-6.4h122.1c2.4,0,4.3,2.8,4.3,6.4v19.1
		C435.9,276.8,434,279.7,431.6,279.7z"/>
	<path class="st2" d="M441.2,290H299.9c-2.2,0-4.1-1.7-4.1-3.8v-10.4c0-2.1,1.8-3.8,4.1-3.8h141.2c2.2,0,4.1,1.7,4.1,3.8v10.4
		C445.2,288.2,443.4,290,441.2,290z"/>
	<path class="st3" d="M463.8,152.4l14.4-14.4l4.8,4.5c1.7,1.7,4.5,2,6.5,0.8l35.7-35.7c1.1-2.3,0.8-4.8-0.8-6.5L485.2,62L362.2,185
		l39.1,39.1c1.7,1.7,4.5,2,6.5,0.8l35.7-35.7c1.1-2.3,0.8-4.8-0.8-6.5L438,178l10.1-10.1L463.8,152.4z"/>
	<polygon class="st3" points="549.1,252.3 556.4,244.7 463.8,152.4 456.6,159.5 	"/>
</g>
<g>
	<g>
		<rect x="139" y="202.4" class="st4" width="15" height="10"/>
		<path class="st4" d="M154,364.4h-15v-19h15V364.4z M154,326.4h-15v-19h15V326.4z M154,288.4h-15v-19h15V288.4z M154,250.4h-15v-19
			h15V250.4z"/>
		<polygon class="st4" points="156,402.4 139,402.4 139,385.4 154,385.4 154,387.4 156,387.4 		"/>
		<path class="st4" d="M346,402.4h-19v-15h19V402.4z M308,402.4h-19v-15h19V402.4z M270,402.4h-19v-15h19V402.4z M232,402.4h-19v-15
			h19V402.4z M194,402.4h-19v-15h19V402.4z"/>
		<polygon class="st4" points="378,402.4 363,402.4 363,387 363,387 363,385.4 378,385.4 		"/>
		<path class="st4" d="M378,368.4h-15v-17h15V368.4z M378,334.4h-15v-17h15V334.4z"/>
		<rect x="363" y="290.4" class="st4" width="15" height="10"/>
	</g>
	<g>
		<path class="st5" d="M269.9,208.8H23.1c-4.4,0-8-3.6-8-8V38.3c0-4.4,3.6-8,8-8h246.8c4.4,0,8,3.6,8,8v162.5
			C277.9,205.2,274.3,208.8,269.9,208.8z"/>
		<path class="st6" d="M269.9,216.3H23.1c-8.5,0-15.5-7-15.5-15.5V38.3c0-8.5,7-15.5,15.5-15.5h246.8c8.5,0,15.5,7,15.5,15.5v162.5
			C285.4,209.4,278.5,216.3,269.9,216.3z M23.1,37.8c-0.3,0-0.5,0.2-0.5,0.5v162.5c0,0.3,0.2,0.5,0.5,0.5h246.8
			c0.3,0,0.5-0.2,0.5-0.5V38.3c0-0.3-0.2-0.5-0.5-0.5H23.1z"/>
	</g>
	<g>
		<g>
			<circle class="st6" cx="42.2" cy="55.1" r="6"/>
			<path class="st6" d="M42.2,63.6c-4.7,0-8.5-3.8-8.5-8.5s3.8-8.5,8.5-8.5s8.5,3.8,8.5,8.5S46.9,63.6,42.2,63.6z M42.2,51.6
				c-1.9,0-3.5,1.6-3.5,3.5s1.6,3.5,3.5,3.5s3.5-1.6,3.5-3.5S44.2,51.6,42.2,51.6z"/>
		</g>
		<g>
			<circle class="st6" cx="62" cy="55.1" r="6"/>
			<path class="st6" d="M62,63.6c-4.7,0-8.5-3.8-8.5-8.5s3.8-8.5,8.5-8.5s8.5,3.8,8.5,8.5S66.7,63.6,62,63.6z M62,51.6
				c-1.9,0-3.5,1.6-3.5,3.5s1.6,3.5,3.5,3.5s3.5-1.6,3.5-3.5S63.9,51.6,62,51.6z"/>
		</g>
		<g>
			<circle class="st6" cx="81.8" cy="55.1" r="6"/>
			<path class="st6" d="M81.8,63.6c-4.7,0-8.5-3.8-8.5-8.5s3.8-8.5,8.5-8.5s8.5,3.8,8.5,8.5S86.5,63.6,81.8,63.6z M81.8,51.6
				c-1.9,0-3.5,1.6-3.5,3.5s1.6,3.5,3.5,3.5s3.5-1.6,3.5-3.5S83.7,51.6,81.8,51.6z"/>
		</g>
	</g>
	<g>
		<path class="st6" d="M15,78.4h263H15z"/>
		<rect x="15" y="72.4" class="st6" width="263" height="12"/>
	</g>
</g>
</svg>
