<?xml version="1.0" encoding="utf-8"?>
<!-- Generator: Adobe Illustrator 19.2.1, SVG Export Plug-In . SVG Version: 6.00 Build 0)  -->
<svg version="1.1" id="Livello_1" xmlns="http://www.w3.org/2000/svg" xmlns:xlink="http://www.w3.org/1999/xlink" x="0px" y="0px"
	 viewBox="0 0 200 200" style="enable-background:new 0 0 200 200;" xml:space="preserve">
<style type="text/css">
	.st0{fill:#FFFFFF;}
</style>
<g>
	<polygon class="st0" points="143,144 56,144 56,114 48,114 48,153 108.7,153 152,153 152,100.3 152,97.6 143,97.6 	"/>
	<polygon class="st0" points="56,88.9 66,88.9 66,77.7 143,77.8 143,93 152,93 152,70 143.7,70 108.5,70 60.3,70 48,85.1 48,109 
		56,109 	"/>
</g>
<path class="st0" d="M121.3,25.9c22.5,0,41.4,19.6,44.2,45.6c0,0.1,0,0.2,0,0.2l0,0.1l0.8,7l6,1c4,0.7,8.1,3.1,11.5,6.9
	c0.3,0.4,0.7,0.8,1,1.3l0,0l0,0c0.1,0.1,0.2,0.2,0.3,0.4l0,0.1l0,0.1c0.1,0.1,0.2,0.2,0.2,0.4c3,4.5,4.6,10.1,4.6,15.8
	c0,11.4-6.6,21.8-15.4,24.5c-0.6,0.1-1.1,0.2-1.4,0.3l-0.1,0c-0.1,0-0.4,0.1-0.6,0.1H36.4c-0.8,0-1.7-0.1-2.8-0.2
	c-0.6-0.1-1.3-0.2-1.9-0.3c-13-2.6-22.4-15.7-22.4-31.2c0-3.3,0.4-6.4,1.3-9.5c0.1-0.3,0.2-0.7,0.3-1c0.1-0.3,0.1-0.6,0.2-0.7
	c0.2-0.5,0.3-1,0.4-1.4c0.1-0.3,0.2-0.8,0.3-0.9l0.4-0.9c4.8-10.6,14-17.1,24.2-17.1c2.6,0,5.3,0.5,7.8,1.3l1.1,0.4h1.1l3.3,0l0,0
	h1.9l2.1-5.6c3.4-9.4,11.3-15.4,20-15.4c1.9,0,4.1,0.4,5.9,0.8l4.6,1l3-4.2C95.4,32.7,107.9,25.9,121.3,25.9 M121.3,16.6
	c-16.2,0-30.7,8.4-40.4,22.1c-2.4-0.5-4.8-1-7.4-1c-12.2,0-22.7,8.7-27.3,21c0,0,0,0,0,0c-3.1-1.1-6.6-1.7-10-1.7
	c-13.9,0-25.9,9.4-31.6,23v0c-0.5,1.1-0.7,2.2-1.1,3.3C3.4,84,3.2,84.7,3,85.4c-1.1,4-1.7,8-1.7,12.4c0,20.2,12.5,36.9,29,40.3
	c0.8,0.2,1.6,0.3,2.5,0.4c1.2,0.1,2.4,0.2,3.6,0.2h136.2c0.7,0,1.3-0.1,2-0.3c0.4-0.1,0.9-0.3,1.3-0.3h0c12.7-3.4,22-17.6,22-33.6
	c0-8.1-2.4-15.6-6.3-21.5c-0.1-0.2-0.3-0.4-0.4-0.6c-0.2-0.2-0.3-0.4-0.5-0.6c-0.5-0.6-1-1.2-1.4-1.8c-4.2-4.7-9.8-8.4-15.9-9.4
	c0,0,0-0.1,0-0.1c0,0,0-0.1,0-0.1C170.2,40.1,148.1,16.6,121.3,16.6L121.3,16.6z"/>
<path class="st0" d="M159,113.8v-13.6c0-1.4-1.1-2.6-2.4-2.6h-31.1c-1.3,0-2.4,1.2-2.4,2.6v11c0,1.4-1.1,2.6-2.4,2.6H42.8
	c-1.3,0-2.4,1.2-2.4,2.6v63.8c0.1,1.4,1.1,2.5,2.4,2.5h113.8c1.3,0,2.4-1.2,2.4-2.6L159,113.8L159,113.8L159,113.8z"/>
</svg>
