<svg id="Livello_1" data-name="Livello 1" xmlns="http://www.w3.org/2000/svg" width="171.27" height="121.59" viewBox="0 0 171.27 121.59"><defs><style>.cls-1{fill:none;stroke:#000;stroke-miterlimit:10;}.cls-2{fill:#fff;}.cls-3{fill:#ef494f;}</style></defs><title>icon-ecommerce</title><path class="cls-1" d="M183.2,11.5" transform="translate(-15.07 -0.84)"/><circle class="cls-2" cx="110.44" cy="114.56" r="7.03"/><circle class="cls-2" cx="69.24" cy="114.56" r="7.03"/><path class="cls-2" d="M183.2,18.6H62.33c-4.92,0-9.87-.23-14.79-0.13-1.24-3.53-2.43-7.13-3.89-10.55A11.53,11.53,0,0,0,33.09,1c-2.52,0-5,0-7.55-.07L18.1,0.84c-4,0-4,6.25,0,6.28L31.93,7.23c2.4,0,4.66.44,5.85,2.84a52.4,52.4,0,0,1,2,5.43l2.52,6.92,6.84,19.07L60.05,71.88c0.83,2.32,1.66,4.37,2.5,6.69a3,3,0,0,0,3,2h78.59c-3.43,6-6.86,11.14-10.29,16.58-0.3.48-.61,1.1-0.91,1.59-6.25,0-12.51.17-18.76,0.22-10.83.09-21.65,0.2-32.48,0.29l-7.47.08c-4,0-4.05,6.32,0,6.29l37.54-.29,20.06-.16c2,0,4.24.34,5.57-1.58,1.22-1.76,2.3-3.64,3.44-5.46l11.72-18.56,0,0,11.22-19,17.95-30.37c1.38-2.34,2.76-4.6,4.15-6.94A3.11,3.11,0,0,0,183.2,18.6Zm-31.9,50.67c-1.08,1.82-2.15,3.33-3.23,5.33H67.78c-2-5-4-11-6-16.63-3.63-10.13-7.26-20.76-10.89-30.88A14.48,14.48,0,0,1,49.8,23.6H177.6s0.06,0.56.1,0.57c-2.82,4.77-5.64,9.75-8.45,14.52C163.26,48.81,157.28,59.15,151.29,69.27Z" transform="translate(-15.07 -0.84)"/><circle class="cls-2" cx="96.62" cy="45.93" r="18.01"/><polygon class="cls-3" points="86.27 51.01 88.09 47.91 96.48 51.3 103.47 36.01 107.02 38.06 98.09 56.01 86.27 51.01"/></svg>