<?xml version="1.0" encoding="utf-8"?>
<!-- Generator: Adobe Illustrator 19.2.1, SVG Export Plug-In . SVG Version: 6.00 Build 0)  -->
<svg version="1.1" id="Livello_1" xmlns="http://www.w3.org/2000/svg" xmlns:xlink="http://www.w3.org/1999/xlink" x="0px" y="0px"
	 viewBox="0 0 565 424.4" style="enable-background:new 0 0 565 424.4;" xml:space="preserve">
<style type="text/css">
	.st0{fill:#FC8059;}
	.st1{fill:#78B54B;}
	.st2{fill:#EF494F;}
	.st3{fill:#1A5063;}
	.st4{fill:#2E8DB7;}
</style>
<g>
	<path class="st0" d="M333.9,236.2h-5.4c-5.6,0-10.2-4.6-10.2-10.2V90c0-5.6,4.6-10.2,10.2-10.2h5.4c5.6,0,10.2,4.6,10.2,10.2V226
		C344.1,231.6,339.5,236.2,333.9,236.2z"/>
	<path class="st1" d="M396.9,236.2h-5.4c-5.6,0-10.2-4.6-10.2-10.2V24.1c0-5.6,4.6-10.2,10.2-10.2h5.4c5.6,0,10.2,4.6,10.2,10.2V226
		C407.1,231.6,402.5,236.2,396.9,236.2z"/>
	<path class="st2" d="M459.9,239.2h-5.4c-5.6,0-10.2-4.6-10.2-10.2v-84.6c0-5.6,4.6-10.2,10.2-10.2h5.4c5.6,0,10.2,4.6,10.2,10.2
		V229C470.1,234.6,465.5,239.2,459.9,239.2z"/>
	<path class="st1" d="M522.9,239.2h-5.4c-5.6,0-10.2-4.6-10.2-10.2V56.8c0-5.6,4.6-10.2,10.2-10.2h5.4c5.6,0,10.2,4.6,10.2,10.2V229
		C533.1,234.6,528.5,239.2,522.9,239.2z"/>
</g>
<circle class="st3" cx="150" cy="126.5" r="109.6"/>
<path class="st4" d="M150,16.9v110.5h109.6C259.6,66.4,211,16.9,150,16.9z"/>
<path class="st4" d="M536.1,355.6c-28,12.2-55.9,24.5-83.9,36.7c0,0,0,0,0,0.1v0c0,9.5-7.8,17.2-17.2,17.2s-17.2-7.8-17.2-17.2v0
	c0-1.6,0.2-3.2,0.7-4.7c-13.1-10.7-26.1-21.5-39.2-32.2c-27.1-22.3-54.3-44.6-81.4-66.9c-2-1.6-3.9-3.2-5.9-4.9
	c-2.4,1.2-5,1.9-7.8,1.9c-4.9,0-9.3-2.1-12.5-5.4c-15.2,5.5-30.4,11-45.5,16.5c-31.8,11.5-63.6,23-95.4,34.5
	c-2.2,0.8-4.3,1.6-6.5,2.4c-0.6,9-8.1,16.1-17.2,16.1c-9.5,0-17.2-7.8-17.2-17.2v0c0-2.2,0.4-4.3,1.2-6.3
	c-11.8-11.8-23.6-23.6-35.5-35.5c-2.2-2.2-4.4-4.4-6.7-6.7c-6.3-6.3,3.5-16,9.7-9.7c14,14,28.1,28.1,42.1,42.1
	c2-0.8,4.1-1.2,6.3-1.2c4.9,0,9.3,2.1,12.5,5.4c16-5.8,32-11.6,48-17.4c32.1-11.6,64.2-23.2,96.4-34.9c1-0.4,2-0.8,3.1-1.2
	c0.6-9,8.1-16.1,17.2-16.1c9.5,0,17.2,7.8,17.2,17.2v0c0,1.6-0.2,3.2-0.7,4.7c0.5,0.4,1.1,0.9,1.6,1.3
	c25.8,21.2,51.6,42.4,77.5,63.7c12.8,10.5,25.6,21,38.3,31.5c3,2.5,6.1,5,9.2,7.4c2.3-1.2,5-1.9,7.7-1.9c4.5,0,8.6,1.8,11.7,4.6
	c23.5-10.3,46.9-20.5,70.4-30.8c4-1.8,8.1-3.5,12.1-5.3c3.4-1.5,7.4-1,9.4,2.5C540.3,349.1,539.5,354.1,536.1,355.6z"/>
</svg>
