<?xml version="1.0" encoding="utf-8"?>
<!-- Generator: Adobe Illustrator 19.2.1, SVG Export Plug-In . SVG Version: 6.00 Build 0)  -->
<svg version="1.1" id="Livello_1" xmlns="http://www.w3.org/2000/svg" xmlns:xlink="http://www.w3.org/1999/xlink" x="0px" y="0px"
	 viewBox="0 0 119.8 119.9" style="enable-background:new 0 0 119.8 119.9;" xml:space="preserve">
<style type="text/css">
	.st0{fill:#FFFFFF;}
</style>
<title>icon-brand-identity</title>
<path class="st0" d="M77.4,41.8c-5.3-5.3-13.5-7.9-24.2-7.6c-3.9,0.1-7.8,0.6-11.7,1.4c0.9-3.8,1.4-7.6,1.5-11.4
	c0.3-10.8-2.4-19.1-7.4-24l-3.2,3.1c9.9,9.9,4.6,33.9,4.6,33.9s-24,5.3-33.9-4.6L0,35.7c5,5,13.3,7.6,24,7.4
	c3.9-0.1,7.8-0.6,11.6-1.4c-0.8,3.8-1.3,7.7-1.4,11.6c-0.2,10.8,2.3,18.9,7.6,24.2s13.5,7.8,24.2,7.6c3.9-0.1,7.8-0.6,11.6-1.3
	c-0.8,3.9-1.3,7.8-1.4,11.7c-0.3,10.8,2.2,19,7.5,24.3l-0.5-0.5l2.8-2.8l0.5,0.5c-10.6-10.6-4.4-34.1-4.4-34.1s23.5-6.2,34.1,4.4
	l-0.5-0.5l3.5-3.5l0.5,0.5c-5.3-5.3-13.5-7.8-24.3-7.6c-3.9,0.1-7.8,0.6-11.7,1.3c0.8-3.8,1.2-7.7,1.3-11.7
	C85.4,55.2,82.8,47.1,77.4,41.8z M78.9,78.8c0,0-23.3,6-33.9-4.6s-4.6-33.9-4.6-33.9s23.3-6,33.9,4.6C84.9,55.6,78.9,78.8,78.9,78.8
	z"/>
<path class="st0" d="M42.4,65.4c0.3,1.1,0,1.4,1.1,3.1l24.9-24.9c-1.7-1.2-2-0.8-3.1-1.1L42.4,65.4z"/>
<path class="st0" d="M41.4,49.5c-0.2,1.6-1.1,2.5-0.5,4.8l13.3-13.4c-2.3-0.5-3.2,0.4-4.8,0.5L41.4,49.5z"/>
<path class="st0" d="M40.5,57.4c0.6,1.5,0.9,3,1.1,4.6l20.5-20.5c-1.6-0.1-3.1-0.5-4.6-1.1L40.5,57.4z"/>
<path class="st0" d="M49.6,75.2c1,0.4,1.9,0.8,2.9,1.4l24.2-24.2c-0.5-0.9-1-1.9-1.3-2.9L49.6,75.2z"/>
<path class="st0" d="M6.5,32.1c1.1,0.9,2.3,1.6,3.5,2.1L34.3,9.9c-0.5-1.3-1.2-2.5-2.1-3.5L6.5,32.1z"/>
<path class="st0" d="M54.8,77.1c1.9,0.9,3.2,1.1,3.7,0.5l19-19c0.6-0.6,0.4-1.8-0.5-3.7L54.8,77.1z"/>
<path class="st0" d="M19.8,35.7c1.7,0.5,3.5,0.6,5.2,0.4l11.3-11.2c0.2-1.8,0-3.5-0.4-5.2L19.8,35.7z"/>
<path class="st0" d="M13.1,35.3c1.2,0.2,1.7-0.3,3.7,0.5L36,16.7c-0.8-2-0.3-2.5-0.5-3.7L13.1,35.3z"/>
<path class="st0" d="M46.3,72.6l0.8,0.8l26.2-26.2l-0.8-0.8c-0.6-0.6-0.7-0.6-2.2-1.9L44.5,70.4C45.8,71.9,45.8,72,46.3,72.6z"/>
<path class="st0" d="M62.3,78.1c1.8-0.2,3.5,0,5.3,0.4l11-11c-0.5-1.7-0.6-3.5-0.4-5.3L62.3,78.1z"/>
<path class="st0" d="M82.9,91.3c0.6,2.2,0.5,3.8-0.4,4.6l13.5-13.4c-0.8,0.8-2.4,1-4.6,0.4L82.9,91.3z"/>
<path class="st0" d="M84.1,107.1c1,1.8,0.7,2.1,1.2,3.1l25-25c-1-0.4-1.3-0.1-3.1-1.2L84.1,107.1z"/>
<path class="st0" d="M82.8,100c0.1,1.6,0.4,3.1,1.1,4.6l20.7-20.7c-1.4-0.7-3-1-4.6-1.1L82.8,100z"/>
</svg>
