<?xml version="1.0" encoding="utf-8"?>
<!-- Generator: Adobe Illustrator 19.2.1, SVG Export Plug-In . SVG Version: 6.00 Build 0)  -->
<svg version="1.1" id="Livello_2" xmlns="http://www.w3.org/2000/svg" xmlns:xlink="http://www.w3.org/1999/xlink" x="0px" y="0px"
	 viewBox="0 0 160.3 117.4" style="enable-background:new 0 0 160.3 117.4;" xml:space="preserve">
<style type="text/css">
	.st0{fill:#FFFFFF;stroke:#FFFFFF;stroke-width:2;stroke-miterlimit:10;}
	.st1{fill:#FFFFFF;}
</style>
<g>
	<path class="st0" d="M80.2,4.9c4.8,0,9.8,5.5,13.6,14.9c4.1,10.4,6.4,24.2,6.4,38.9s-2.3,28.5-6.4,38.9
		c-3.8,9.5-8.7,14.9-13.6,14.9c-4.8,0-9.8-5.5-13.6-14.9c-4.1-10.4-6.4-24.2-6.4-38.9s2.3-28.5,6.4-38.9
		C70.4,10.4,75.3,4.9,80.2,4.9 M80.2,2.4c-12.4,0-22.5,25.3-22.5,56.4s10.1,56.4,22.5,56.4c12.4,0,22.5-25.3,22.5-56.4
		S92.6,2.4,80.2,2.4L80.2,2.4z"/>
	<path class="st0" d="M42.1,20.7c3.4-3.4,10.7-3.1,20.2,1c10.2,4.4,21.7,12.6,32.1,23s18.6,21.8,23,32.1c4.1,9.4,4.4,16.7,1,20.2
		s-10.7,3.1-20.2-1c-10.2-4.4-21.7-12.6-32.1-23c-10.4-10.4-18.6-21.8-23-32.1C39,31.5,38.7,24.1,42.1,20.7 M40.3,18.9
		c-8.8,8.8,1.9,33.8,24,55.8s47,32.8,55.8,24s-1.9-33.8-24-55.8S49.1,10.1,40.3,18.9L40.3,18.9z"/>
	<path class="st0" d="M26.3,58.8c0-4.8,5.5-9.8,14.9-13.6c10.4-4.1,24.2-6.4,38.9-6.4c14.7,0,28.5,2.3,38.9,6.4
		C128.6,49,134,54,134,58.8s-5.5,9.8-14.9,13.6c-10.4,4.1-24.2,6.4-38.9,6.4s-28.5-2.3-38.9-6.4C31.7,68.6,26.3,63.7,26.3,58.8
		 M23.8,58.8c0,12.4,25.3,22.5,56.4,22.5s56.4-10.1,56.4-22.5s-25.3-22.5-56.4-22.5S23.8,46.3,23.8,58.8L23.8,58.8z"/>
	<path class="st0" d="M42.1,96.9c-3.4-3.4-3.1-10.7,1-20.2c4.4-10.2,12.6-21.7,23-32.1s21.8-18.6,32.1-23c9.4-4.1,16.7-4.4,20.2-1
		s3.1,10.7-1,20.2c-4.4,10.2-12.6,21.7-23,32.1s-21.8,18.6-32.1,23C52.8,99.9,45.5,100.3,42.1,96.9 M40.3,98.7
		c8.8,8.8,33.8-1.9,55.8-24s32.8-47,24-55.8s-33.8,1.9-55.8,24S31.4,89.9,40.3,98.7L40.3,98.7z"/>
</g>
<circle class="st1" cx="80.1" cy="57.9" r="7.7"/>
</svg>
