<svg id="Layer_1" data-name="Layer 1" xmlns="http://www.w3.org/2000/svg" width="500.51" height="501.55" viewBox="0 0 500.51 501.55"><defs><style>.cls-1{fill:#ef494f;}.cls-2{fill:#fff;}.cls-3{fill:#123747;}.cls-4{fill:#84dbff;}.cls-5{fill:#54c0eb;}</style></defs><title>icon-brand-identity-target</title><path class="cls-1" d="M501,250.78v13.58a260.33,260.33,0,0,1-24,95.09C436.24,443,350.56,501.55,251.3,501.55,112.33,501.55.52,388.7,0.52,250.78A250.17,250.17,0,0,1,251.3,0C389.22,0,501,111.8,501,250.78Z" transform="translate(-0.52)"/><circle class="cls-2" cx="249.73" cy="250.78" r="198.53"/><circle class="cls-1" cx="249.73" cy="250.77" r="147.33"/><circle class="cls-2" cx="249.73" cy="250.77" r="95.09"/><circle class="cls-1" cx="249.73" cy="250.78" r="42.84"/><path class="cls-3" d="M400.72,99.26c-6.27-6.27-17.76-6.27-24,0L239.8,236.15c-6.27,6.27-6.27,17.76,0,24h0c6.27,6.27,17.76,6.27,24,0L400.72,123.3C407,117,407,105.54,400.72,99.26Z" transform="translate(-0.52)"/><polygon class="cls-4" points="438.86 60.6 377.21 121.21 363.63 65.83 425.27 4.18 438.86 60.6"/><polygon class="cls-5" points="433.63 134.79 494.24 74.19 438.86 60.6 377.21 121.21 433.63 134.79"/></svg>