<?xml version="1.0" encoding="utf-8"?>
<!-- Generator: Adobe Illustrator 19.2.1, SVG Export Plug-In . SVG Version: 6.00 Build 0)  -->
<svg version="1.1" id="Livello_1" xmlns="http://www.w3.org/2000/svg" xmlns:xlink="http://www.w3.org/1999/xlink" x="0px" y="0px"
	 viewBox="0 0 800 600" style="enable-background:new 0 0 800 600;" xml:space="preserve">
<style type="text/css">
	.st0{fill:#8C8B89;}
	.st1{fill:#FFFFFF;}
	.st2{fill:#ECE9E5;}
	.st3{fill:#0B212B;}
</style>
<path class="st0" d="M695.6,205c-29.4,0-53.1-24.1-53.1-53.5s23.6-53.5,53-53.5H694V57.2l1,0.5c-29.4,0-52.3-22.7-52.3-51.7h-40.8
	c0,29-23.8,52.3-53.3,52.3S495.4,35,495.4,6h-40.8c0,29-23.8,52.3-53.3,52.3S348.1,35,348.1,6h-40.8c0,29-23.8,52.3-53.3,52.3
	S200.8,35,200.8,6h-43.4c0,29-23.8,53-53.3,53h-0.2v39h0.2c29.4,0,53.3,24.1,53.3,53.5S133.6,205,104.2,205H104v41h0.2
	c29.4,0,53.3,24.1,53.3,53.5S133.7,353,104.2,353H104v41h0.2c29.4,0,53.3,23.6,53.3,53s-23.8,53-53.3,53H104v42.5
	c0,0,1.8-0.1,2.7-0.1c29.4,0,53.3,23.8,53.3,53.3V595h40v0.7c0-29.4,23.6-53.3,53-53.3s53,23.8,53,53.3V595h41v0.7
	c0-29.4,24.1-53.3,53.5-53.3s53.5,23.8,53.5,53.3V595h41v0.7c0-29.4,23.6-53.3,53-53.3s53,23.8,53,53.3V595h40v0.7
	c0-29.4,25.1-53.7,54.5-53.7H694v-42h1.6c-29.4,0-53.1-23.6-53.1-53s23.6-53,53-53H694v-41h1.6c-29.4,0-53.1-24.1-53.1-53.5
	s23.6-53.5,53-53.5H694v-41H695.6z"/>
<g>
	<path class="st1" d="M294,316.5c0-63.4,56.3-117.3,118.2-117.3c56.9,0,93.8,41.7,93.8,91.1c0,50-33.1,73.6-59,73.6
		c-17.9,0-27.1-10.7-28.9-22l-0.3-1.8c-10.4,14.6-26.8,23.8-42.9,23.8c-28.9,0-46.2-21.1-46.2-50c0-39.9,32.8-73,67.3-73
		c17.9,0,31,8.6,37.2,20l3.3-15.8h33.7L455,317.8c-0.3,1.8-0.9,5.4-0.9,7.1c0,9.2,4.8,13.4,11,13.4c11.6,0,28-14,28-47.9
		c0-47.1-32.2-79.5-82.2-79.5c-56.3,0-105.4,49.4-105.4,105.1c0,46.8,35.7,82.8,84,82.8c20.3,0,38.4-6.3,54.5-16.4l6.3,8.9
		c-18.5,11.9-39.9,18.8-61.9,18.8C334.2,410,294,369.2,294,316.5z M421.1,317.7l7.4-34.8c-3.3-6.6-11-15.2-24.1-15.2
		c-23.8,0-41.1,21.4-41.1,43.2c0,15.5,9.5,26.2,24.7,26.2C403.9,337,414.6,326.6,421.1,317.7z"/>
</g>
<g>
	<path class="st2" d="M160,595.7V595h40v0.7c0-29.4,23.6-53.3,53-53.3s53,23.8,53,53.3V595h41v0.7c0-29.4,24.1-53.3,53.5-53.3
		s53.5,23.8,53.5,53.3V595h41v0.7c0-29.4,23.6-53.3,53-53.3s53,23.8,53,53.3V595h40v0.7c0-29.4,25.1-53.7,54.5-53.7H694v-42h1.6
		c-29.4,0-53.1-23.6-53.1-53s23.6-53,53-53H694v-41h1.6c-29.4,0-53.1-24.1-53.1-53.5s23.6-53.5,53-53.5H694v-41h1.6
		c-29.4,0-53.1-24.1-53.1-53.5s23.6-53.5,53-53.5H694V57.7c-28.6-0.5-50.8-23.5-51.3-51.7h-28.1h-12.7
		c-0.5,28.6-24.2,52.3-53.2,52.3S496,34.6,495.4,6h-40.8c-0.5,28.6-24.2,52.3-53.2,52.3S348.7,34.6,348.1,6h-40.8
		c-0.5,28.6-24.2,52.3-53.2,52.3S201.4,34.6,200.9,6H185h-27.6c-0.5,28.6-24.2,53-53.2,53H104v27.9V98h0.2
		c29.4,0,53.3,24.1,53.3,53.5S133.7,205,104.2,205H104v41h0.2c29.4,0,53.3,24.1,53.3,53.5S133.7,353,104.2,353H104v41h0.2
		c29.4,0,53.3,23.6,53.3,53s-23.8,53-53.3,53H104v19v23.5c0,0,1.8-0.1,2.7-0.1C136.1,542.4,160,566.2,160,595.7z M248.1,119h297.8
		c20.9,0,37.8,16.9,37.8,37.8v284.3c0,20.9-16.9,37.8-37.8,37.8H248.1c-20.9,0-37.8-16.9-37.8-37.8V156.8
		C210.3,135.9,227.2,119,248.1,119z"/>
	<path class="st3" d="M694,57.2v0.5c0.3,0,0.6,0,1,0L694,57.2z"/>
</g>
</svg>
