<?xml version="1.0" encoding="utf-8"?>
<!-- Generator: Adobe Illustrator 19.2.1, SVG Export Plug-In . SVG Version: 6.00 Build 0)  -->
<svg version="1.1" id="Livello_1" xmlns="http://www.w3.org/2000/svg" xmlns:xlink="http://www.w3.org/1999/xlink" x="0px" y="0px"
	 viewBox="0 0 200 122.6" style="enable-background:new 0 0 200 122.6;" xml:space="preserve">
<style type="text/css">
	.st0{fill:#FFFFFF;}
</style>
<title>icon-easy-lex</title>
<circle class="st0" cx="48.9" cy="62.2" r="14"/>
<polygon class="st0" points="162,16.1 48.9,16.1 105.5,54.3 "/>
<path class="st0" d="M48.9,78.7c-2.9,0-5.5-0.7-7.9-2l-4.4,44.6l12.3-9.8l12.3,9.8l-4.4-44.6C54.5,77.9,51.8,78.7,48.9,78.7z"/>
<path class="st0" d="M105.5,59.1L48.9,20.9v24.8c0,0,0,0,0,0c9.1,0,16.5,7.4,16.5,16.5c0,5.4-2.6,10.2-6.7,13.2l1.4,13.9h98.7
	c1.8,0,3.2-1.4,3.2-3.1V20.9L105.5,59.1z"/>
</svg>
