<?xml version="1.0" encoding="utf-8"?>
<!-- Generator: Adobe Illustrator 19.2.1, SVG Export Plug-In . SVG Version: 6.00 Build 0)  -->
<svg version="1.1" id="Livello_1" xmlns="http://www.w3.org/2000/svg" xmlns:xlink="http://www.w3.org/1999/xlink" x="0px" y="0px"
	 viewBox="0 0 34.8 36.7" style="enable-background:new 0 0 34.8 36.7;" xml:space="preserve">
<style type="text/css">
	.st0{fill:#FFFFFF;}
</style>
<title>icon-brand-identity</title>
<path class="st0" d="M33.8,14.8L19.9,0.9c-0.7-0.7-1.6-1-2.5-0.9c-0.9,0-1.8,0.3-2.5,0.9L1,14.8c-0.6,0.6-1,1.5-1,2.3s0.3,1.7,1,2.3
	l1.2,1.2c1.3,1.3,3.2,1.3,4.5,0l5.8-6v18.8c0,2,2,3.3,4,3.3h2c2,0,4-1.3,4-3.3V14.7l5.8,6c1.3,1.3,3.3,1.3,4.5,0l1.1-1.2
	c0.6-0.6,0.9-1.5,0.9-2.3S34.4,15.5,33.8,14.8z"/>
</svg>
