<svg id="Livello_1" data-name="Livello 1" xmlns="http://www.w3.org/2000/svg" width="766.2" height="625.73" viewBox="0 0 766.2 625.73"><defs><style>.cls-1{fill:#e4eef9;}</style></defs><title>folder</title><path class="cls-1" d="M764.77,302.66H733V213.27H707.44V162.19H351l-45.6-63.85H65.51a34.93,34.93,0,0,0-34.89,34.89V691.11H30.7a32.6,32.6,0,0,0,32.68,33H635c14.76,0,27.76-9.95,31.29-23.15l130.59-358v-2.26C796.83,318.63,783.34,302.66,764.77,302.66Zm-57.34,0H605.28V289.89a12.77,12.77,0,0,0-25.54,0v12.77H515.88V289.89a12.77,12.77,0,0,0-25.54,0v12.77H426.49V289.89a12.77,12.77,0,0,0-25.54,0v12.77H337.1V289.89a12.77,12.77,0,0,0-25.54,0v12.77H247.71V289.89a12.77,12.77,0,0,0-25.54,0v12.77h-29a32.76,32.76,0,0,0-5.39.45,33.15,33.15,0,0,0-16.72,8.16V238.81H707.44v63.85Zm-613,208.06V315.43H167.2a29.42,29.42,0,0,0-5.29,10.38l-4,11.11Zm51.08-220.83h-33l7.48-7.48,25.54-25.54v33ZM681.9,187.73v25.54H153l-33,33V187.73H681.9ZM56.16,133.23a9.36,9.36,0,0,1,9.35-9.35H292.22l27.37,38.31H94.47V271.84L68.93,297.38v282L56.16,614.24v-481Zm585.75,560a7.23,7.23,0,0,1-7,5.33H63.38a7.05,7.05,0,0,1-5.72-2.83c-0.8-1-2-3.27-1.57-5.21l12.85-35.22h0l117-320.71,0.33-1a7.23,7.23,0,0,1,7-5.33H764.77c4.85,0,6.09,7,6.41,10.46Z" transform="translate(-30.62 -98.34)"/></svg>