<svg id="Layer_1" data-name="Layer 1" xmlns="http://www.w3.org/2000/svg" width="480.97" height="512" viewBox="0 0 480.97 512"><defs><style>.cls-1{fill:#9b272f;}.cls-2{fill:#fff;}.cls-3{fill:#ef494f;}.cls-4{fill:#bc2d32;}</style></defs><title>phone-book</title><path class="cls-1" d="M38.79,170.67H85.33a23.27,23.27,0,1,0,0-46.55H38.79A23.27,23.27,0,1,0,38.79,170.67Z" transform="translate(-15.51)"/><path class="cls-1" d="M85.33,232.73H38.79a23.27,23.27,0,0,0,0,46.55H85.33A23.27,23.27,0,1,0,85.33,232.73Z" transform="translate(-15.51)"/><path class="cls-1" d="M85.33,341.33H38.79a23.27,23.27,0,0,0,0,46.55H85.33A23.27,23.27,0,1,0,85.33,341.33Z" transform="translate(-15.51)"/><circle class="cls-2" cx="263.76" cy="201.7" r="69.82"/><path class="cls-2" d="M279.27,271.51A108.6,108.6,0,0,0,170.67,380.12H387.88A108.6,108.6,0,0,0,279.27,271.51Z" transform="translate(-15.51)"/><path class="cls-3" d="M473.21,0H162.91A101,101,0,0,0,62.06,100.85v23.27H85.33a23.27,23.27,0,1,1,0,46.55H62.06v62.06H85.33a23.27,23.27,0,0,1,0,46.55H62.06v62.06H85.33a23.27,23.27,0,0,1,0,46.55H62.06v23.27A101,101,0,0,0,162.91,512h310.3a23.27,23.27,0,0,0,23.27-23.27V23.27A23.27,23.27,0,0,0,473.21,0ZM279.27,380.12H170.67A108.6,108.6,0,0,1,279.27,271.52a69.82,69.82,0,1,1,69.82-69.82,69.82,69.82,0,0,1-69.82,69.82A108.6,108.6,0,0,1,387.88,380.12H279.27Z" transform="translate(-15.51)"/><path class="cls-4" d="M170.67,380.12A108.6,108.6,0,0,1,279.27,271.51a69.82,69.82,0,0,1,0-139.64V0H162.91A101,101,0,0,0,62.06,100.85v23.27H85.33a23.27,23.27,0,1,1,0,46.55H62.06v62.06H85.33a23.27,23.27,0,0,1,0,46.55H62.06v62.06H85.33a23.27,23.27,0,0,1,0,46.55H62.06v23.27A101,101,0,0,0,162.91,512H279.27V380.12H170.67Z" transform="translate(-15.51)"/></svg>